<?xml version="1.0" encoding="utf-8"?>
<!-- Generator: Adobe Illustrator 27.7.0, SVG Export Plug-In . SVG Version: 6.00 Build 0)  -->
<svg version="1.2" baseProfile="tiny" id="g-NYC-consulate2-_1-Africa-img"
	 xmlns="http://www.w3.org/2000/svg" xmlns:xlink="http://www.w3.org/1999/xlink" x="0px" y="0px" viewBox="0 0 841.68 595.199"
	 overflow="visible" xml:space="preserve">
<g>
	<rect x="0.001" fill-rule="evenodd" fill-opacity="0" width="841.709" height="595.051"/>
	<path vector-effect="non-scaling-stroke" fill-rule="evenodd" fill="#E41A1C" d="M584.657,422.073c0,2.193-1.776,3.969-3.966,3.969
		c-2.193,0-3.969-1.776-3.969-3.969c0-2.191,1.776-3.966,3.969-3.966C582.882,418.107,584.657,419.883,584.657,422.073"/>
	<path vector-effect="non-scaling-stroke" fill-rule="evenodd" fill="#E41A1C" d="M664.711,492.268c0,2.193-1.778,3.969-3.969,3.969
		c-2.191,0-3.966-1.776-3.966-3.969c0-2.191,1.776-3.966,3.966-3.966C662.933,488.302,664.711,490.077,664.711,492.268"/>
	<path vector-effect="non-scaling-stroke" fill-rule="evenodd" fill="#E41A1C" d="M640.35,501.743c0,2.193-1.776,3.969-3.966,3.969
		c-2.191,0-3.969-1.776-3.969-3.969c0-2.191,1.778-3.966,3.969-3.966C638.574,497.777,640.35,499.552,640.35,501.743"/>
	<path vector-effect="non-scaling-stroke" fill-rule="evenodd" fill="#E41A1C" d="M693.338,469.644c0,2.193-1.778,3.969-3.969,3.969
		c-2.191,0-3.966-1.776-3.966-3.969c0-2.191,1.776-3.966,3.966-3.966C691.56,465.678,693.338,467.453,693.338,469.644"/>
	<path vector-effect="non-scaling-stroke" fill-rule="evenodd" fill="#E41A1C" d="M586.215,422.884c0,2.193-1.776,3.969-3.966,3.969
		c-2.191,0-3.969-1.776-3.969-3.969c0-2.191,1.778-3.966,3.969-3.966C584.439,418.918,586.215,420.694,586.215,422.884"/>
	<path vector-effect="non-scaling-stroke" fill-rule="evenodd" fill="#E41A1C" d="M644.285,480.374c0,2.193-1.776,3.969-3.966,3.969
		c-2.193,0-3.969-1.776-3.969-3.969c0-2.191,1.776-3.966,3.969-3.966C642.509,476.408,644.285,478.183,644.285,480.374"/>
	<path vector-effect="non-scaling-stroke" fill-rule="evenodd" fill="#E41A1C" d="M645.379,491.91c0,2.191-1.776,3.969-3.969,3.969
		c-2.191,0-3.966-1.778-3.966-3.969c0-2.191,1.776-3.966,3.966-3.966C643.603,487.944,645.379,489.72,645.379,491.91"/>
	<path vector-effect="non-scaling-stroke" fill-rule="evenodd" fill="#E41A1C" d="M648.177,487.985c0,2.191-1.778,3.969-3.969,3.969
		s-3.966-1.778-3.966-3.969c0-2.191,1.776-3.969,3.966-3.969S648.177,485.794,648.177,487.985"/>
	<path vector-effect="non-scaling-stroke" fill-rule="evenodd" fill="#E41A1C" d="M623.792,481.211c0,2.191-1.778,3.966-3.969,3.966
		s-3.966-1.776-3.966-3.966c0-2.193,1.776-3.969,3.966-3.969S623.792,479.018,623.792,481.211"/>
	<path vector-effect="non-scaling-stroke" fill-rule="evenodd" fill="#E41A1C" d="M658.588,417.594c0,2.191-1.776,3.969-3.966,3.969
		c-2.191,0-3.969-1.778-3.969-3.969c0-2.191,1.778-3.966,3.969-3.966C656.812,413.628,658.588,415.403,658.588,417.594"/>
</g>
<style>
#g-NYC-consulate2-_1-Africa-img rect, #g-NYC-consulate2-_1-Africa-img circle, #g-NYC-consulate2-_1-Africa-img path, #g-NYC-consulate2-_1-Africa-img line, #g-NYC-consulate2-_1-Africa-img polyline, #g-NYC-consulate2-_1-Africa-img polygon { vector-effect: non-scaling-stroke; }
</style>
</svg>

