<?xml version="1.0" encoding="utf-8"?>
<!-- Generator: Adobe Illustrator 27.7.0, SVG Export Plug-In . SVG Version: 6.00 Build 0)  -->
<svg version="1.2" baseProfile="tiny" id="g-NYC-consulate1-_1-label-img"
	 xmlns="http://www.w3.org/2000/svg" xmlns:xlink="http://www.w3.org/1999/xlink" x="0px" y="0px" viewBox="0 0 841.68 595.199"
	 overflow="visible" xml:space="preserve">
<g>
	<rect x="-10.511" y="-3.358" fill-rule="evenodd" fill-opacity="0" width="841.709" height="595.051"/>
	<path id="Manhattan_00000051385853822172114130000009828833946931919505_" vector-effect="none" fill="#323232" d="
		M171.062,359.339l-6.14-16.18h-0.1c0.033,0.342,0.063,0.759,0.088,1.25s0.046,1.027,0.063,1.607
		c0.017,0.579,0.025,1.169,0.025,1.769v11.554h-1.976v-18.281h3.151l5.789,15.205h0.088l5.877-15.205h3.126v18.281h-2.101v-11.704
		c0-0.542,0.008-1.086,0.025-1.632c0.017-0.546,0.037-1.063,0.062-1.551c0.025-0.488,0.05-0.911,0.075-1.269h-0.1l-6.215,16.155
		H171.062 M190.865,345.409c1.634,0,2.847,0.367,3.639,1.1c0.792,0.734,1.188,1.905,1.188,3.514v9.316h-1.513l-0.4-2.026h-0.1
		c-0.384,0.5-0.784,0.919-1.201,1.257c-0.417,0.338-0.898,0.592-1.444,0.763c-0.546,0.171-1.215,0.256-2.007,0.256
		c-0.834,0-1.573-0.146-2.219-0.438c-0.646-0.292-1.155-0.734-1.525-1.325c-0.371-0.592-0.556-1.342-0.556-2.251
		c0-1.367,0.542-2.417,1.626-3.151c1.084-0.734,2.734-1.134,4.952-1.2l2.363-0.1v-0.838c0-1.184-0.254-2.013-0.763-2.488
		c-0.508-0.475-1.226-0.713-2.151-0.713c-0.717,0-1.4,0.104-2.051,0.313c-0.65,0.208-1.267,0.454-1.851,0.738l-0.638-1.576
		c0.617-0.317,1.325-0.588,2.126-0.813C189.139,345.522,189.981,345.409,190.865,345.409 M193.641,352.587l-2.088,0.088
		c-1.709,0.067-2.913,0.346-3.614,0.838c-0.7,0.492-1.05,1.188-1.05,2.088c0,0.784,0.238,1.363,0.713,1.738
		c0.475,0.375,1.105,0.563,1.888,0.563c1.217,0,2.213-0.338,2.988-1.013c0.775-0.675,1.163-1.688,1.163-3.039V352.587
		 M206.454,345.384c1.626,0,2.855,0.398,3.689,1.194c0.833,0.796,1.25,2.074,1.25,3.833v8.928h-2.051v-8.79
		c0-1.142-0.261-1.997-0.782-2.563c-0.521-0.567-1.319-0.85-2.395-0.85c-1.517,0-2.584,0.429-3.201,1.288
		c-0.617,0.859-0.925,2.105-0.925,3.739v7.177h-2.076v-13.705h1.676l0.313,1.976h0.113c0.292-0.484,0.663-0.89,1.113-1.219
		c0.45-0.329,0.954-0.579,1.513-0.75C205.25,345.47,205.838,345.384,206.454,345.384 M217.742,339.882v5.814
		c0,0.333-0.008,0.669-0.025,1.007c-0.017,0.338-0.046,0.648-0.087,0.932h0.138c0.283-0.484,0.644-0.89,1.081-1.219
		c0.438-0.329,0.936-0.579,1.494-0.75c0.558-0.171,1.151-0.256,1.776-0.256c1.1,0,2.019,0.175,2.757,0.525s1.292,0.892,1.663,1.626
		c0.371,0.734,0.557,1.684,0.557,2.851v8.928h-2.051v-8.79c0-1.142-0.26-1.997-0.782-2.563c-0.521-0.567-1.319-0.85-2.395-0.85
		c-1.017,0-1.827,0.194-2.432,0.581c-0.604,0.388-1.038,0.957-1.3,1.707c-0.263,0.75-0.394,1.667-0.394,2.751v7.165h-2.076v-19.456
		H217.742 M236.495,345.409c1.634,0,2.847,0.367,3.639,1.1c0.792,0.734,1.188,1.905,1.188,3.514v9.316h-1.513l-0.4-2.026h-0.1
		c-0.383,0.5-0.783,0.919-1.2,1.257c-0.417,0.338-0.898,0.592-1.444,0.763s-1.215,0.256-2.007,0.256
		c-0.834,0-1.573-0.146-2.219-0.438c-0.646-0.292-1.155-0.734-1.526-1.325c-0.371-0.592-0.556-1.342-0.556-2.251
		c0-1.367,0.542-2.417,1.625-3.151c1.084-0.734,2.734-1.134,4.952-1.2l2.363-0.1v-0.838c0-1.184-0.254-2.013-0.763-2.488
		c-0.508-0.475-1.226-0.713-2.151-0.713c-0.717,0-1.4,0.104-2.051,0.313c-0.65,0.208-1.267,0.454-1.851,0.738l-0.637-1.576
		c0.617-0.317,1.325-0.588,2.126-0.813S235.611,345.409,236.495,345.409 M239.271,352.587l-2.088,0.088
		c-1.709,0.067-2.914,0.346-3.614,0.838c-0.7,0.492-1.05,1.188-1.05,2.088c0,0.784,0.238,1.363,0.713,1.738s1.105,0.563,1.888,0.563
		c1.217,0,2.213-0.338,2.988-1.013c0.775-0.675,1.163-1.688,1.163-3.039V352.587 M250.021,357.888c0.342,0,0.692-0.029,1.05-0.088
		s0.65-0.129,0.875-0.213v1.613c-0.242,0.108-0.577,0.2-1.007,0.275c-0.429,0.075-0.848,0.113-1.257,0.113
		c-0.725,0-1.384-0.127-1.976-0.381c-0.592-0.254-1.065-0.686-1.419-1.294c-0.354-0.609-0.531-1.451-0.531-2.526v-8.128h-1.951
		v-1.013l1.963-0.813l0.825-2.976h1.251v3.176h4.014v1.626h-4.014v8.065c0,0.859,0.198,1.501,0.594,1.926
		C248.835,357.676,249.362,357.888,250.021,357.888 M259.147,357.888c0.342,0,0.692-0.029,1.05-0.088
		c0.358-0.058,0.65-0.129,0.875-0.213v1.613c-0.242,0.108-0.577,0.2-1.007,0.275c-0.429,0.075-0.848,0.113-1.257,0.113
		c-0.725,0-1.384-0.127-1.976-0.381c-0.592-0.254-1.065-0.686-1.419-1.294c-0.354-0.609-0.531-1.451-0.531-2.526v-8.128h-1.951
		v-1.013l1.963-0.813l0.825-2.976h1.251v3.176h4.014v1.626h-4.014v8.065c0,0.859,0.198,1.501,0.594,1.926
		C257.961,357.676,258.488,357.888,259.147,357.888 M268.973,345.409c1.634,0,2.847,0.367,3.639,1.1s1.188,1.905,1.188,3.514v9.316
		h-1.513l-0.4-2.026h-0.1c-0.383,0.5-0.784,0.919-1.201,1.257s-0.898,0.592-1.444,0.763c-0.546,0.171-1.215,0.256-2.007,0.256
		c-0.834,0-1.574-0.146-2.22-0.438c-0.646-0.292-1.155-0.734-1.525-1.325c-0.371-0.592-0.557-1.342-0.557-2.251
		c0-1.367,0.542-2.417,1.626-3.151c1.084-0.734,2.734-1.134,4.952-1.2l2.363-0.1v-0.838c0-1.184-0.254-2.013-0.763-2.488
		c-0.508-0.475-1.225-0.713-2.151-0.713c-0.717,0-1.4,0.104-2.051,0.313c-0.65,0.208-1.267,0.454-1.851,0.738l-0.638-1.576
		c0.617-0.317,1.325-0.588,2.126-0.813C267.248,345.522,268.089,345.409,268.973,345.409 M271.749,352.587l-2.088,0.088
		c-1.709,0.067-2.913,0.346-3.614,0.838c-0.7,0.492-1.05,1.188-1.05,2.088c0,0.784,0.238,1.363,0.713,1.738
		c0.475,0.375,1.105,0.563,1.888,0.563c1.217,0,2.213-0.338,2.988-1.013c0.775-0.675,1.163-1.688,1.163-3.039V352.587
		 M284.562,345.384c1.626,0,2.855,0.398,3.689,1.194c0.834,0.796,1.25,2.074,1.25,3.833v8.928h-2.051v-8.79
		c0-1.142-0.26-1.997-0.782-2.563c-0.521-0.567-1.319-0.85-2.395-0.85c-1.517,0-2.584,0.429-3.201,1.288
		c-0.617,0.859-0.925,2.105-0.925,3.739v7.177h-2.076v-13.705h1.675l0.313,1.976h0.113c0.292-0.484,0.663-0.89,1.113-1.219
		c0.45-0.329,0.955-0.579,1.513-0.75C283.358,345.47,283.946,345.384,284.562,345.384"/>
	<path id="Beooklyn_00000025422521373580849300000006855504356657606044_" vector-effect="none" fill="#323232" d="M349.155,506.404
		h4.026c1.776,0,3.112,0.266,4.006,0.797c0.895,0.532,1.342,1.436,1.342,2.713c0,0.551-0.105,1.045-0.316,1.483
		c-0.211,0.438-0.517,0.799-0.919,1.084c-0.402,0.285-0.898,0.483-1.488,0.593v0.097c0.622,0.097,1.173,0.275,1.653,0.535
		c0.48,0.259,0.856,0.622,1.128,1.089s0.408,1.06,0.408,1.779c0,0.875-0.203,1.614-0.608,2.217
		c-0.405,0.603-0.977,1.058-1.716,1.366c-0.739,0.308-1.614,0.462-2.625,0.462h-4.891V506.404 M350.809,512.501h2.723
		c1.238,0,2.096-0.204,2.572-0.613c0.476-0.408,0.715-1.005,0.715-1.789c0-0.81-0.284-1.394-0.851-1.75
		c-0.567-0.357-1.47-0.535-2.708-0.535h-2.451V512.501 M350.809,513.892v5.319h2.956c1.264,0,2.159-0.248,2.684-0.744
		c0.525-0.496,0.788-1.165,0.788-2.008c0-0.538-0.118-0.998-0.355-1.381c-0.237-0.382-0.619-0.676-1.147-0.88
		s-1.233-0.306-2.115-0.306H350.809 M366.618,509.769c0.214,0,0.438,0.011,0.671,0.034c0.233,0.023,0.441,0.053,0.622,0.092
		l-0.204,1.498c-0.175-0.045-0.37-0.081-0.583-0.107c-0.214-0.026-0.415-0.039-0.603-0.039c-0.428,0-0.831,0.086-1.211,0.258
		c-0.379,0.172-0.711,0.418-0.997,0.739c-0.285,0.321-0.509,0.707-0.671,1.157c-0.162,0.451-0.243,0.951-0.243,1.502v5.718h-1.624
		v-10.658h1.342l0.175,1.964h0.068c0.22-0.395,0.486-0.757,0.797-1.084s0.673-0.588,1.084-0.783
		C365.654,509.866,366.112,509.769,366.618,509.769 M379.1,515.273c0,0.875-0.113,1.656-0.34,2.344
		c-0.227,0.687-0.554,1.267-0.982,1.741c-0.428,0.473-0.945,0.835-1.551,1.084c-0.606,0.25-1.292,0.374-2.057,0.374
		c-0.713,0-1.366-0.125-1.959-0.374c-0.593-0.25-1.105-0.611-1.536-1.084c-0.431-0.473-0.765-1.053-1.002-1.741
		c-0.237-0.687-0.355-1.468-0.355-2.344c0-1.167,0.198-2.16,0.593-2.98s0.961-1.446,1.697-1.877c0.736-0.431,1.613-0.647,2.63-0.647
		c0.972,0,1.823,0.217,2.552,0.652c0.729,0.434,1.297,1.062,1.702,1.882C378.898,513.122,379.1,514.112,379.1,515.273
		 M370.99,515.273c0,0.856,0.113,1.598,0.34,2.227c0.227,0.629,0.577,1.115,1.05,1.459c0.473,0.344,1.083,0.515,1.828,0.515
		c0.739,0,1.347-0.172,1.823-0.515s0.828-0.83,1.055-1.459s0.34-1.371,0.34-2.227c0-0.849-0.113-1.583-0.34-2.203
		c-0.227-0.619-0.577-1.097-1.05-1.434c-0.473-0.337-1.086-0.506-1.838-0.506c-1.109,0-1.921,0.366-2.436,1.099
		C371.248,512.962,370.99,513.976,370.99,515.273 M391.078,515.273c0,0.875-0.113,1.656-0.34,2.344
		c-0.227,0.687-0.554,1.267-0.982,1.741c-0.428,0.473-0.945,0.835-1.551,1.084c-0.606,0.25-1.292,0.374-2.057,0.374
		c-0.713,0-1.366-0.125-1.959-0.374c-0.593-0.25-1.105-0.611-1.537-1.084c-0.431-0.473-0.765-1.053-1.001-1.741
		c-0.237-0.687-0.355-1.468-0.355-2.344c0-1.167,0.198-2.16,0.593-2.98s0.961-1.446,1.697-1.877c0.736-0.431,1.613-0.647,2.63-0.647
		c0.972,0,1.823,0.217,2.553,0.652c0.729,0.434,1.297,1.062,1.702,1.882C390.876,513.122,391.078,514.112,391.078,515.273
		 M382.968,515.273c0,0.856,0.113,1.598,0.34,2.227c0.227,0.629,0.577,1.115,1.05,1.459c0.473,0.344,1.083,0.515,1.828,0.515
		c0.739,0,1.347-0.172,1.823-0.515c0.477-0.344,0.828-0.83,1.055-1.459s0.34-1.371,0.34-2.227c0-0.849-0.113-1.583-0.34-2.203
		c-0.227-0.619-0.577-1.097-1.05-1.434c-0.473-0.337-1.086-0.506-1.838-0.506c-1.109,0-1.92,0.366-2.436,1.099
		C383.226,512.962,382.968,513.976,382.968,515.273 M395.472,505.49v7.857c0,0.259-0.01,0.575-0.029,0.948s-0.036,0.702-0.049,0.987
		h0.068c0.136-0.169,0.335-0.418,0.598-0.749c0.263-0.331,0.484-0.596,0.666-0.797l3.54-3.773h1.896l-4.288,4.551l4.599,6.107
		h-1.945l-3.763-5.047l-1.293,1.186v3.861h-1.604V505.49H395.472 M405.951,520.621h-1.624V505.49h1.624V520.621 M407.669,509.963
		h1.731l2.353,6.185c0.136,0.363,0.262,0.712,0.379,1.045c0.117,0.334,0.22,0.653,0.311,0.958c0.091,0.305,0.162,0.6,0.214,0.885
		h0.068c0.091-0.324,0.22-0.75,0.389-1.279c0.168-0.528,0.35-1.068,0.545-1.619l2.227-6.175h1.741l-4.639,12.223
		c-0.246,0.655-0.533,1.225-0.861,1.711c-0.327,0.486-0.724,0.861-1.191,1.123s-1.031,0.394-1.692,0.394
		c-0.305,0-0.574-0.018-0.807-0.054c-0.233-0.036-0.434-0.076-0.603-0.122v-1.293c0.143,0.032,0.316,0.062,0.52,0.088
		s0.417,0.039,0.637,0.039c0.402,0,0.751-0.076,1.045-0.229s0.549-0.374,0.763-0.666c0.214-0.292,0.399-0.639,0.555-1.04
		l0.583-1.498L407.669,509.963 M424.374,509.769c1.264,0,2.22,0.31,2.868,0.929c0.648,0.619,0.972,1.613,0.972,2.98v6.943h-1.595
		v-6.836c0-0.888-0.203-1.553-0.608-1.993c-0.405-0.441-1.026-0.661-1.862-0.661c-1.18,0-2.01,0.334-2.489,1.002
		c-0.48,0.668-0.72,1.637-0.72,2.908v5.582h-1.614v-10.658h1.303l0.243,1.536h0.088c0.227-0.376,0.515-0.692,0.865-0.948
		c0.35-0.256,0.742-0.451,1.176-0.583C423.437,509.835,423.894,509.769,424.374,509.769"/>
	<path id="Queens_00000070839225466490868320000000838456794233095566_" vector-effect="none" fill="#323232" d="M599.008,363.954
		c0,1.167-0.159,2.224-0.476,3.17c-0.318,0.946-0.789,1.747-1.415,2.402c-0.626,0.655-1.405,1.131-2.339,1.429l3.345,3.51h-2.363
		l-2.752-3.209c-0.084,0-0.17,0.003-0.258,0.01c-0.088,0.006-0.173,0.01-0.258,0.01c-1.102,0-2.063-0.175-2.883-0.525
		s-1.501-0.849-2.042-1.498c-0.541-0.648-0.947-1.423-1.216-2.324c-0.269-0.901-0.404-1.899-0.404-2.995
		c0-1.452,0.24-2.726,0.72-3.822c0.48-1.096,1.207-1.948,2.183-2.557s2.199-0.914,3.671-0.914c1.407,0,2.591,0.301,3.554,0.904
		c0.963,0.603,1.692,1.451,2.188,2.543C598.76,361.181,599.008,362.47,599.008,363.954 M587.69,363.954
		c0,1.206,0.172,2.25,0.515,3.131c0.344,0.882,0.87,1.562,1.58,2.042c0.71,0.48,1.613,0.72,2.708,0.72
		c1.102,0,2.005-0.24,2.708-0.72c0.703-0.48,1.224-1.16,1.561-2.042c0.337-0.882,0.506-1.925,0.506-3.131
		c0-1.835-0.384-3.269-1.152-4.303s-1.966-1.551-3.593-1.551c-1.102,0-2.01,0.237-2.723,0.71c-0.713,0.473-1.243,1.146-1.59,2.018
		C587.863,361.7,587.69,362.742,587.69,363.954 M610.723,360.424v10.658H609.4l-0.233-1.498h-0.088
		c-0.22,0.37-0.506,0.681-0.856,0.934c-0.35,0.253-0.744,0.442-1.181,0.569s-0.903,0.19-1.395,0.19c-0.843,0-1.549-0.136-2.12-0.408
		s-1-0.694-1.288-1.264c-0.289-0.57-0.433-1.303-0.433-2.198v-6.982h1.634v6.865c0,0.888,0.201,1.551,0.603,1.989
		c0.402,0.438,1.015,0.656,1.838,0.656c0.791,0,1.421-0.149,1.891-0.447c0.47-0.298,0.809-0.737,1.016-1.318
		c0.208-0.58,0.311-1.292,0.311-2.134v-5.611H610.723 M618.237,360.23c0.908,0,1.686,0.201,2.334,0.603
		c0.648,0.402,1.144,0.964,1.488,1.687c0.344,0.723,0.515,1.567,0.515,2.533v1.002h-7.361c0.019,1.251,0.331,2.204,0.934,2.859
		s1.452,0.982,2.548,0.982c0.674,0,1.271-0.062,1.789-0.185c0.519-0.123,1.057-0.305,1.614-0.545v1.42
		c-0.538,0.24-1.071,0.415-1.6,0.525c-0.528,0.11-1.152,0.165-1.872,0.165c-1.024,0-1.917-0.209-2.679-0.627
		c-0.762-0.418-1.353-1.032-1.775-1.843c-0.421-0.81-0.632-1.802-0.632-2.976c0-1.147,0.193-2.141,0.578-2.98
		c0.386-0.84,0.93-1.486,1.634-1.94C616.456,360.457,617.284,360.23,618.237,360.23 M618.217,361.552
		c-0.862,0-1.549,0.282-2.062,0.846c-0.512,0.564-0.817,1.352-0.914,2.363h5.64c-0.006-0.635-0.105-1.194-0.297-1.677
		c-0.191-0.483-0.481-0.859-0.87-1.128C619.326,361.687,618.827,361.552,618.217,361.552 M629.417,360.23
		c0.908,0,1.686,0.201,2.334,0.603c0.648,0.402,1.144,0.964,1.488,1.687c0.344,0.723,0.515,1.567,0.515,2.533v1.002h-7.361
		c0.019,1.251,0.331,2.204,0.934,2.859c0.603,0.655,1.452,0.982,2.548,0.982c0.674,0,1.27-0.062,1.789-0.185
		c0.519-0.123,1.057-0.305,1.614-0.545v1.42c-0.538,0.24-1.071,0.415-1.599,0.525c-0.528,0.11-1.152,0.165-1.872,0.165
		c-1.024,0-1.917-0.209-2.679-0.627c-0.762-0.418-1.353-1.032-1.775-1.843c-0.422-0.81-0.632-1.802-0.632-2.976
		c0-1.147,0.193-2.141,0.579-2.98c0.386-0.84,0.93-1.486,1.633-1.94C627.635,360.457,628.463,360.23,629.417,360.23
		 M629.397,361.552c-0.862,0-1.549,0.282-2.062,0.846c-0.512,0.564-0.817,1.352-0.914,2.363h5.64
		c-0.007-0.635-0.106-1.194-0.297-1.677c-0.191-0.483-0.481-0.859-0.87-1.128C630.506,361.687,630.006,361.552,629.397,361.552
		 M641.539,360.23c1.264,0,2.22,0.31,2.869,0.929c0.648,0.619,0.972,1.613,0.972,2.98v6.943h-1.595v-6.836
		c0-0.888-0.203-1.553-0.608-1.993c-0.405-0.441-1.026-0.661-1.862-0.661c-1.18,0-2.01,0.334-2.489,1.002
		c-0.48,0.668-0.72,1.637-0.72,2.908v5.582h-1.614v-10.658h1.303l0.243,1.536h0.088c0.227-0.376,0.515-0.692,0.865-0.948
		c0.35-0.256,0.742-0.451,1.177-0.583C640.603,360.296,641.06,360.23,641.539,360.23 M655.598,368.165
		c0,0.681-0.17,1.253-0.511,1.716c-0.34,0.464-0.827,0.812-1.459,1.045c-0.632,0.233-1.386,0.35-2.261,0.35
		c-0.745,0-1.39-0.058-1.935-0.175c-0.544-0.117-1.021-0.282-1.429-0.496v-1.488c0.434,0.214,0.953,0.408,1.556,0.583
		c0.603,0.175,1.219,0.263,1.848,0.263c0.92,0,1.588-0.149,2.003-0.447c0.415-0.298,0.622-0.703,0.622-1.216
		c0-0.292-0.083-0.549-0.248-0.773s-0.442-0.441-0.831-0.652c-0.389-0.211-0.927-0.442-1.614-0.695
		c-0.681-0.259-1.269-0.517-1.765-0.773c-0.496-0.256-0.878-0.569-1.147-0.938s-0.404-0.849-0.404-1.439
		c0-0.901,0.365-1.593,1.094-2.076c0.729-0.483,1.687-0.724,2.874-0.724c0.642,0,1.243,0.063,1.804,0.19
		c0.561,0.126,1.084,0.297,1.57,0.511l-0.544,1.293c-0.441-0.188-0.911-0.347-1.41-0.477c-0.499-0.13-1.008-0.194-1.527-0.194
		c-0.745,0-1.318,0.123-1.716,0.37c-0.399,0.246-0.598,0.583-0.598,1.011c0,0.331,0.092,0.603,0.277,0.817s0.481,0.415,0.89,0.603
		c0.408,0.188,0.947,0.408,1.614,0.661c0.668,0.246,1.245,0.501,1.731,0.763c0.486,0.263,0.86,0.58,1.123,0.953
		C655.467,367.103,655.598,367.581,655.598,368.165"/>
	<path vector-effect="none" fill="#323232" d="M507.094,11.888h4.026c1.776,0,3.112,0.266,4.006,0.797s1.342,1.436,1.342,2.713
		c0,0.551-0.105,1.045-0.316,1.483s-0.517,0.799-0.919,1.084c-0.402,0.285-0.898,0.483-1.488,0.593v0.097
		c0.622,0.097,1.173,0.275,1.653,0.535c0.48,0.259,0.856,0.622,1.128,1.089s0.408,1.06,0.408,1.78c0,0.875-0.203,1.614-0.608,2.217
		c-0.405,0.603-0.977,1.058-1.716,1.366s-1.614,0.462-2.626,0.462h-4.891V11.888 M508.747,17.985h2.723
		c1.238,0,2.096-0.204,2.572-0.613c0.477-0.408,0.715-1.005,0.715-1.789c0-0.81-0.284-1.394-0.851-1.75
		c-0.567-0.357-1.47-0.535-2.708-0.535h-2.45V17.985 M508.747,19.376v5.319h2.956c1.264,0,2.159-0.248,2.684-0.744
		c0.525-0.496,0.788-1.165,0.788-2.008c0-0.538-0.118-0.998-0.355-1.381c-0.237-0.382-0.619-0.676-1.147-0.88
		c-0.528-0.204-1.233-0.306-2.115-0.306H508.747 M524.556,15.253c0.214,0,0.438,0.011,0.671,0.034
		c0.233,0.023,0.441,0.053,0.622,0.092l-0.204,1.498c-0.175-0.045-0.37-0.081-0.583-0.107c-0.214-0.026-0.415-0.039-0.603-0.039
		c-0.428,0-0.831,0.086-1.211,0.258c-0.379,0.172-0.711,0.418-0.997,0.739c-0.285,0.321-0.509,0.707-0.671,1.157
		c-0.162,0.451-0.243,0.951-0.243,1.502v5.718h-1.624V15.447h1.342l0.175,1.964h0.068c0.22-0.395,0.486-0.757,0.797-1.084
		c0.311-0.327,0.673-0.588,1.084-0.783C523.592,15.35,524.051,15.253,524.556,15.253 M537.038,20.757
		c0,0.875-0.113,1.656-0.34,2.344c-0.227,0.687-0.554,1.267-0.982,1.741c-0.428,0.473-0.945,0.835-1.551,1.084
		c-0.606,0.25-1.292,0.374-2.057,0.374c-0.713,0-1.366-0.125-1.959-0.374c-0.593-0.25-1.105-0.611-1.537-1.084
		c-0.431-0.473-0.765-1.053-1.002-1.741c-0.237-0.687-0.355-1.468-0.355-2.344c0-1.167,0.198-2.16,0.593-2.98
		s0.961-1.446,1.697-1.877c0.736-0.431,1.613-0.647,2.63-0.647c0.972,0,1.823,0.217,2.552,0.652
		c0.729,0.434,1.297,1.062,1.702,1.882C536.836,18.606,537.038,19.596,537.038,20.757 M528.929,20.757
		c0,0.856,0.113,1.598,0.34,2.227c0.227,0.629,0.577,1.115,1.05,1.459c0.473,0.344,1.083,0.515,1.828,0.515
		c0.739,0,1.347-0.172,1.823-0.515c0.477-0.344,0.828-0.83,1.055-1.459c0.227-0.629,0.34-1.371,0.34-2.227
		c0-0.849-0.113-1.583-0.34-2.203c-0.227-0.619-0.577-1.097-1.05-1.434c-0.473-0.337-1.086-0.506-1.838-0.506
		c-1.109,0-1.92,0.366-2.436,1.099C529.186,18.445,528.929,19.46,528.929,20.757 M544.874,15.253c1.264,0,2.22,0.31,2.869,0.929
		c0.648,0.619,0.972,1.613,0.972,2.98v6.943h-1.595v-6.836c0-0.888-0.203-1.553-0.608-1.993c-0.405-0.441-1.026-0.661-1.862-0.661
		c-1.18,0-2.01,0.334-2.489,1.002c-0.48,0.668-0.72,1.637-0.72,2.908v5.582h-1.614V15.447h1.303l0.243,1.536h0.087
		c0.227-0.376,0.515-0.692,0.865-0.948c0.35-0.256,0.742-0.451,1.177-0.583C543.937,15.319,544.395,15.253,544.874,15.253
		 M554.576,20.65l-3.685-5.202h1.848l2.81,4.104l2.801-4.104h1.828l-3.685,5.202l3.89,5.455h-1.848l-2.985-4.347l-3.005,4.347
		h-1.828L554.576,20.65"/>
</g>
<style>
#g-NYC-consulate1-_1-label-img rect, #g-NYC-consulate1-_1-label-img circle, #g-NYC-consulate1-_1-label-img path, #g-NYC-consulate1-_1-label-img line, #g-NYC-consulate1-_1-label-img polyline, #g-NYC-consulate1-_1-label-img polygon { vector-effect: non-scaling-stroke; }
</style>
</svg>

