<?xml version="1.0" encoding="utf-8"?>
<!-- Generator: Adobe Illustrator 27.7.0, SVG Export Plug-In . SVG Version: 6.00 Build 0)  -->
<svg version="1.2" baseProfile="tiny" id="g-NYC-consulate2-_1-Scale-img"
	 xmlns="http://www.w3.org/2000/svg" xmlns:xlink="http://www.w3.org/1999/xlink" x="0px" y="0px" viewBox="0 0 841.68 595.199"
	 overflow="visible" xml:space="preserve">
<g>
	
		<path vector-effect="non-scaling-stroke" fill="none" stroke="#000000" stroke-width="0.2399" stroke-linecap="square" stroke-miterlimit="10" d="
		M574.335,560.649v-8.502"/>
	
		<path vector-effect="non-scaling-stroke" fill="none" stroke="#000000" stroke-width="0.2399" stroke-linecap="square" stroke-miterlimit="10" d="
		M689.882,560.649v-8.502"/>
	
		<path vector-effect="non-scaling-stroke" fill="none" stroke="#000000" stroke-width="0.2399" stroke-linecap="square" stroke-miterlimit="10" d="
		M805.43,560.649v-8.502"/>
	
		<path vector-effect="non-scaling-stroke" fill="none" stroke="#000000" stroke-width="0.2399" stroke-linecap="square" stroke-miterlimit="10" d="
		M574.335,560.649H805.43"/>
	<path vector-effect="none" d="M574.289,580.887c0.648,0,1.205-0.178,1.67-0.533c0.465-0.355,0.821-0.859,1.069-1.511
		c0.248-0.652,0.372-1.425,0.372-2.32v-0.012c0-0.894-0.124-1.668-0.372-2.32s-0.604-1.155-1.069-1.508s-1.021-0.53-1.67-0.53
		c-0.648,0-1.204,0.177-1.667,0.53s-0.817,0.856-1.063,1.508s-0.369,1.425-0.369,2.32v0.012c0,0.894,0.123,1.668,0.369,2.32
		c0.246,0.652,0.6,1.156,1.063,1.511C573.085,580.709,573.641,580.887,574.289,580.887 M574.289,579.967
		c-0.43,0-0.797-0.14-1.101-0.419s-0.537-0.677-0.697-1.192s-0.24-1.127-0.24-1.834v-0.012c0-0.707,0.08-1.317,0.24-1.831
		s0.392-0.909,0.697-1.186s0.672-0.416,1.101-0.416c0.43,0,0.798,0.139,1.104,0.416s0.541,0.673,0.703,1.186
		s0.243,1.124,0.243,1.831v0.012c0,0.707-0.081,1.318-0.243,1.834s-0.396,0.913-0.703,1.192S574.719,579.967,574.289,579.967"/>
	<path vector-effect="none" d="M690.023,580.746h1.019v-8.453h-1.031l-2.249,1.617v1.06l2.238-1.558h0.023V580.746"/>
	<path vector-effect="none" d="M802.681,580.746h5.577v-0.937h-4.44l0.31,0.293v-0.65l-0.31,0.65l2.32-2.378
		c0.519-0.531,0.922-0.977,1.207-1.339c0.285-0.361,0.485-0.686,0.6-0.975c0.115-0.289,0.173-0.588,0.173-0.896v-0.012
		c0-0.441-0.114-0.84-0.343-1.195c-0.228-0.355-0.542-0.637-0.94-0.844s-0.853-0.31-1.365-0.31c-0.523,0-1.001,0.11-1.432,0.331
		c-0.432,0.221-0.774,0.523-1.028,0.908s-0.381,0.821-0.381,1.309v0.035h1.019v-0.029c0-0.305,0.08-0.58,0.24-0.826
		s0.379-0.442,0.656-0.589c0.277-0.146,0.592-0.22,0.943-0.22c0.309,0,0.581,0.063,0.817,0.19c0.236,0.127,0.422,0.302,0.557,0.524
		c0.135,0.223,0.202,0.478,0.202,0.767v0.012c0,0.234-0.038,0.455-0.114,0.662c-0.076,0.207-0.215,0.44-0.416,0.7
		c-0.201,0.26-0.493,0.589-0.876,0.987l-2.976,3.105V580.746 M812.149,580.746h1.019v-8.453h-1.019V580.746 M815.998,580.746h1.183
		l-2.824-3.591l-0.68,0.68L815.998,580.746 M812.94,578.667l1.189-1.136h0.082l2.888-2.876h-1.236l-2.671,2.689h-0.252V578.667
		 M817.972,580.746h1.019v-3.819c0-0.285,0.061-0.539,0.182-0.761c0.121-0.223,0.286-0.399,0.495-0.53
		c0.209-0.131,0.448-0.196,0.718-0.196c0.254,0,0.474,0.051,0.659,0.152s0.33,0.244,0.433,0.428
		c0.103,0.184,0.155,0.398,0.155,0.644v4.083h1.019v-3.872c0-0.277,0.059-0.524,0.176-0.741c0.117-0.217,0.279-0.387,0.486-0.51
		c0.207-0.123,0.445-0.185,0.715-0.185s0.498,0.053,0.685,0.158s0.331,0.258,0.431,0.457s0.149,0.439,0.149,0.721v3.972h1.019
		v-4.206c0-0.406-0.082-0.759-0.246-1.057c-0.164-0.299-0.394-0.531-0.691-0.697c-0.297-0.166-0.646-0.249-1.049-0.249
		c-0.285,0-0.552,0.047-0.8,0.141s-0.467,0.227-0.656,0.401c-0.189,0.174-0.341,0.384-0.454,0.63h-0.023
		c-0.086-0.25-0.211-0.462-0.375-0.636c-0.164-0.174-0.358-0.307-0.583-0.398c-0.225-0.092-0.475-0.138-0.753-0.138
		c-0.391,0-0.732,0.093-1.025,0.278c-0.293,0.186-0.508,0.429-0.644,0.729h-0.023v-0.89h-1.019V580.746"/>
	<path vector-effect="none" fill="#FFFFFF" d="M806.049,508.955l13.591,34.752l-13.62-13.651l-13.62,13.651L806.049,508.955"/>
	<path vector-effect="none" fill="none" stroke="#1F78B4" stroke-width="3" d="M806.049,508.955l13.591,34.752l-13.62-13.651
		l-13.62,13.651L806.049,508.955"/>
	<path vector-effect="none" fill="none" d="M806.049,508.955l13.62,34.575l-13.62-13.651l-13.62,13.651L806.049,508.955"/>
	<path vector-effect="none" fill="none" stroke="#1F78B4" stroke-linecap="square" d="M806.049,508.955l13.62,34.575l-13.62-13.651
		l-13.62,13.651L806.049,508.955"/>
	<path vector-effect="none" fill="none" d="M793.576,540.823l3.166-1.832"/>
	<path vector-effect="none" fill="none" stroke="#1F78B4" stroke-width="0.25" d="M793.576,540.823l3.166-1.832"/>
	<path vector-effect="none" fill="none" d="M793.859,539.825l4.883-2.824"/>
	<path vector-effect="none" fill="none" stroke="#1F78B4" stroke-width="0.25" d="M793.859,539.825l4.883-2.824"/>
	<path vector-effect="none" fill="none" d="M793.106,541.929l1.879-1.087"/>
	<path vector-effect="none" fill="none" stroke="#1F78B4" stroke-width="0.25" d="M793.106,541.929l1.879-1.087"/>
	<path vector-effect="none" fill="none" d="M794.253,538.766l6.508-3.766"/>
	<path vector-effect="none" fill="none" stroke="#1F78B4" stroke-width="0.25" d="M794.253,538.766l6.508-3.766"/>
	<path vector-effect="none" fill="none" d="M797.333,531.145l8.776-5.089"/>
	<path vector-effect="none" fill="none" stroke="#1F78B4" stroke-width="0.25" d="M797.333,531.145l8.776-5.089"/>
	<path vector-effect="none" fill="none" d="M798.551,527.939l7.557-4.373"/>
	<path vector-effect="none" fill="none" stroke="#1F78B4" stroke-width="0.25" d="M798.551,527.939l7.557-4.373"/>
	<path vector-effect="none" fill="none" d="M798.903,526.899l7.206-4.17"/>
	<path vector-effect="none" fill="none" stroke="#1F78B4" stroke-width="0.25" d="M798.903,526.899l7.206-4.17"/>
	<path vector-effect="none" fill="none" d="M799.623,525.647l6.486-3.753"/>
	<path vector-effect="none" fill="none" stroke="#1F78B4" stroke-width="0.25" d="M799.623,525.647l6.486-3.753"/>
	<path vector-effect="none" fill="none" d="M799.921,524.644l6.187-3.58"/>
	<path vector-effect="none" fill="none" stroke="#1F78B4" stroke-width="0.25" d="M799.921,524.644l6.187-3.58"/>
	<path vector-effect="none" fill="none" d="M800.344,523.562l5.765-3.336"/>
	<path vector-effect="none" fill="none" stroke="#1F78B4" stroke-width="0.25" d="M800.344,523.562l5.765-3.336"/>
	<path vector-effect="none" fill="none" d="M800.621,522.568l5.367-3.105"/>
	<path vector-effect="none" fill="none" stroke="#1F78B4" stroke-width="0.25" d="M800.621,522.568l5.367-3.105"/>
	<path vector-effect="none" fill="none" d="M801.09,521.494l5.083-2.971"/>
	<path vector-effect="none" fill="none" stroke="#1F78B4" stroke-width="0.25" d="M801.09,521.494l5.083-2.971"/>
	<path vector-effect="none" fill="none" d="M801.478,520.408l4.631-2.68"/>
	<path vector-effect="none" fill="none" stroke="#1F78B4" stroke-width="0.25" d="M801.478,520.408l4.631-2.68"/>
	<path vector-effect="none" fill="none" d="M801.785,519.396l4.324-2.502"/>
	<path vector-effect="none" fill="none" stroke="#1F78B4" stroke-width="0.25" d="M801.785,519.396l4.324-2.502"/>
	<path vector-effect="none" fill="none" d="M802.499,518.147l3.61-2.089"/>
	<path vector-effect="none" fill="none" stroke="#1F78B4" stroke-width="0.25" d="M802.499,518.147l3.61-2.089"/>
	<path vector-effect="none" fill="none" d="M802.849,517.113l3.254-1.883"/>
	<path vector-effect="none" fill="none" stroke="#1F78B4" stroke-width="0.25" d="M802.849,517.113l3.254-1.883"/>
	<path vector-effect="none" fill="none" d="M803.227,516.058l2.882-1.668"/>
	<path vector-effect="none" fill="none" stroke="#1F78B4" stroke-width="0.25" d="M803.227,516.058l2.882-1.668"/>
	<path vector-effect="none" fill="none" d="M803.439,515.103l2.67-1.545"/>
	<path vector-effect="none" fill="none" stroke="#1F78B4" stroke-width="0.25" d="M803.439,515.103l2.67-1.545"/>
	<path vector-effect="none" fill="none" d="M804.22,513.816l1.888-1.094"/>
	<path vector-effect="none" fill="none" stroke="#1F78B4" stroke-width="0.25" d="M804.22,513.816l1.888-1.094"/>
	<path vector-effect="none" fill="none" d="M804.668,512.721l1.441-0.834"/>
	<path vector-effect="none" fill="none" stroke="#1F78B4" stroke-width="0.25" d="M804.668,512.721l1.441-0.834"/>
	<path vector-effect="none" fill="none" d="M804.848,511.784l1.261-0.73"/>
	<path vector-effect="none" fill="none" stroke="#1F78B4" stroke-width="0.25" d="M804.848,511.784l1.261-0.73"/>
	<path vector-effect="none" fill="none" d="M805.388,510.637l0.72-0.417"/>
	<path vector-effect="none" fill="none" stroke="#1F78B4" stroke-width="0.25" d="M805.388,510.637l0.72-0.417"/>
	<path vector-effect="none" fill="none" d="M797.803,530.038l8.306-4.807"/>
	<path vector-effect="none" fill="none" stroke="#1F78B4" stroke-width="0.25" d="M797.803,530.038l8.306-4.807"/>
	<path vector-effect="none" fill="none" d="M796.021,534.407l10.088-5.838"/>
	<path vector-effect="none" fill="none" stroke="#1F78B4" stroke-width="0.25" d="M796.021,534.407l10.088-5.838"/>
	<path vector-effect="none" fill="none" d="M795.623,535.471l10.486-6.068"/>
	<path vector-effect="none" fill="none" stroke="#1F78B4" stroke-width="0.25" d="M795.623,535.471l10.486-6.068"/>
	<path vector-effect="none" fill="none" d="M795.3,536.492l9.368-5.421"/>
	<path vector-effect="none" fill="none" stroke="#1F78B4" stroke-width="0.25" d="M795.3,536.492l9.368-5.421"/>
	<path vector-effect="none" fill="none" d="M794.579,537.74l7.994-4.626"/>
	<path vector-effect="none" fill="none" stroke="#1F78B4" stroke-width="0.25" d="M794.579,537.74l7.994-4.626"/>
	<path vector-effect="none" fill="none" d="M796.394,533.355l9.715-5.622"/>
	<path vector-effect="none" fill="none" stroke="#1F78B4" stroke-width="0.25" d="M796.394,533.355l9.715-5.622"/>
	<path vector-effect="none" fill="none" d="M796.994,532.176l9.115-5.274"/>
	<path vector-effect="none" fill="none" stroke="#1F78B4" stroke-width="0.25" d="M796.994,532.176l9.115-5.274"/>
	<path vector-effect="none" fill="none" d="M798.272,528.932l7.837-4.535"/>
	<path vector-effect="none" fill="none" stroke="#1F78B4" stroke-width="0.25" d="M798.272,528.932l7.837-4.535"/>
	<path vector-effect="none" fill="none" d="M806.051,529.88v-20.508"/>
	<path vector-effect="none" fill="none" stroke="#1F78B4" stroke-width="0.25" d="M806.051,529.88v-20.508"/>
</g>
<style>
#g-NYC-consulate2-_1-Scale-img rect, #g-NYC-consulate2-_1-Scale-img circle, #g-NYC-consulate2-_1-Scale-img path, #g-NYC-consulate2-_1-Scale-img line, #g-NYC-consulate2-_1-Scale-img polyline, #g-NYC-consulate2-_1-Scale-img polygon { vector-effect: non-scaling-stroke; }
</style>
</svg>

