<?xml version="1.0" encoding="utf-8"?>
<!-- Generator: Adobe Illustrator 27.7.0, SVG Export Plug-In . SVG Version: 6.00 Build 0)  -->
<svg version="1.2" baseProfile="tiny" id="g-NYC-consulate2-_1-Americas-img"
	 xmlns="http://www.w3.org/2000/svg" xmlns:xlink="http://www.w3.org/1999/xlink" x="0px" y="0px" viewBox="0 0 841.68 595.199"
	 overflow="visible" xml:space="preserve">
<g>
	<rect x="0.001" fill-rule="evenodd" fill-opacity="0" width="841.709" height="595.051"/>
	<path vector-effect="non-scaling-stroke" fill-rule="evenodd" fill="#984EA3" d="M610.993,454.772c0,2.191-1.776,3.969-3.969,3.969
		c-2.191,0-3.966-1.778-3.966-3.969s1.776-3.966,3.966-3.966C609.218,450.806,610.993,452.582,610.993,454.772"/>
	<path vector-effect="non-scaling-stroke" fill-rule="evenodd" fill="#984EA3" d="M603.262,342.49c0,2.191-1.776,3.969-3.966,3.969
		c-2.193,0-3.969-1.778-3.969-3.969s1.776-3.966,3.969-3.966C601.487,338.524,603.262,340.3,603.262,342.49"/>
	<path vector-effect="non-scaling-stroke" fill-rule="evenodd" fill="#984EA3" d="M625.327,509.256c0,2.191-1.778,3.966-3.969,3.966
		c-2.191,0-3.966-1.776-3.966-3.966c0-2.191,1.776-3.969,3.966-3.969C623.549,505.287,625.327,507.065,625.327,509.256"/>
	<path vector-effect="non-scaling-stroke" fill-rule="evenodd" fill="#984EA3" d="M665.464,466.582c0,2.191-1.778,3.966-3.969,3.966
		c-2.191,0-3.966-1.776-3.966-3.966c0-2.191,1.776-3.969,3.966-3.969C663.686,462.614,665.464,464.392,665.464,466.582"/>
	<path vector-effect="non-scaling-stroke" fill-rule="evenodd" fill="#984EA3" d="M646.288,466.676c0,2.191-1.776,3.966-3.966,3.966
		c-2.191,0-3.969-1.776-3.969-3.966s1.778-3.969,3.969-3.969C644.513,462.707,646.288,464.485,646.288,466.676"/>
	<path vector-effect="non-scaling-stroke" fill-rule="evenodd" fill="#984EA3" d="M645.607,493.189c0,2.191-1.776,3.969-3.966,3.969
		c-2.191,0-3.969-1.778-3.969-3.969s1.778-3.966,3.969-3.966C643.831,489.223,645.607,490.999,645.607,493.189"/>
	<path vector-effect="non-scaling-stroke" fill-rule="evenodd" fill="#984EA3" d="M454.653,456.435c0,2.191-1.776,3.966-3.966,3.966
		s-3.969-1.776-3.969-3.966c0-2.193,1.778-3.969,3.969-3.969S454.653,454.242,454.653,456.435"/>
	<path vector-effect="non-scaling-stroke" fill-rule="evenodd" fill="#984EA3" d="M599.344,512.939c0,2.191-1.776,3.966-3.966,3.966
		c-2.193,0-3.969-1.776-3.969-3.966c0-2.193,1.776-3.969,3.969-3.969C597.568,508.97,599.344,510.746,599.344,512.939"/>
	<path vector-effect="non-scaling-stroke" fill-rule="evenodd" fill="#984EA3" d="M575.672,432.508c0,2.191-1.778,3.969-3.969,3.969
		c-2.191,0-3.969-1.778-3.969-3.969c0-2.191,1.778-3.966,3.969-3.966C573.894,428.542,575.672,430.318,575.672,432.508"/>
	<path vector-effect="non-scaling-stroke" fill-rule="evenodd" fill="#984EA3" d="M517.016,491.45c0,2.193-1.778,3.969-3.969,3.969
		c-2.191,0-3.966-1.776-3.966-3.969c0-2.191,1.776-3.966,3.966-3.966C515.238,487.483,517.016,489.259,517.016,491.45"/>
	<path vector-effect="non-scaling-stroke" fill-rule="evenodd" fill="#984EA3" d="M624.041,481.48c0,2.193-1.776,3.969-3.966,3.969
		s-3.969-1.776-3.969-3.969c0-2.191,1.778-3.966,3.969-3.966S624.041,479.289,624.041,481.48"/>
	<path vector-effect="non-scaling-stroke" fill-rule="evenodd" fill="#984EA3" d="M612.903,474.445c0,2.191-1.776,3.966-3.969,3.966
		c-2.191,0-3.966-1.776-3.966-3.966c0-2.193,1.776-3.969,3.966-3.969C611.128,470.477,612.903,472.252,612.903,474.445"/>
	<path vector-effect="non-scaling-stroke" fill-rule="evenodd" fill="#984EA3" d="M639.784,502.878c0,2.191-1.776,3.969-3.966,3.969
		c-2.191,0-3.969-1.778-3.969-3.969c0-2.191,1.778-3.969,3.969-3.969C638.008,498.909,639.784,500.687,639.784,502.878"/>
	<path vector-effect="non-scaling-stroke" fill-rule="evenodd" fill="#984EA3" d="M518.057,496.092c0,2.191-1.776,3.969-3.969,3.969
		c-2.191,0-3.966-1.778-3.966-3.969c0-2.191,1.776-3.966,3.966-3.966C516.282,492.126,518.057,493.902,518.057,496.092"/>
	<path vector-effect="non-scaling-stroke" fill-rule="evenodd" fill="#984EA3" d="M624.461,481.898c0,2.191-1.776,3.969-3.969,3.969
		c-2.191,0-3.966-1.778-3.966-3.969s1.776-3.966,3.966-3.966C622.685,477.931,624.461,479.707,624.461,481.898"/>
	<path vector-effect="non-scaling-stroke" fill-rule="evenodd" fill="#984EA3" d="M551.819,524.288c0,2.191-1.776,3.966-3.969,3.966
		c-2.191,0-3.966-1.776-3.966-3.966c0-2.191,1.776-3.969,3.966-3.969C550.044,520.319,551.819,522.097,551.819,524.288"/>
	<path vector-effect="non-scaling-stroke" fill-rule="evenodd" fill="#984EA3" d="M438.296,441.055c0,2.193-1.776,3.969-3.966,3.969
		c-2.193,0-3.969-1.776-3.969-3.969c0-2.191,1.776-3.966,3.969-3.966C436.521,437.089,438.296,438.864,438.296,441.055"/>
	<path vector-effect="non-scaling-stroke" fill-rule="evenodd" fill="#984EA3" d="M639.462,492.928c0,2.191-1.778,3.966-3.969,3.966
		c-2.191,0-3.966-1.776-3.966-3.966c0-2.193,1.776-3.969,3.966-3.969C637.684,488.959,639.462,490.735,639.462,492.928"/>
	<path vector-effect="non-scaling-stroke" fill-rule="evenodd" fill="#984EA3" d="M447.184,462.201c0,2.191-1.776,3.966-3.966,3.966
		c-2.193,0-3.969-1.776-3.969-3.966c0-2.193,1.776-3.969,3.969-3.969C445.408,458.232,447.184,460.008,447.184,462.201"/>
	<path vector-effect="non-scaling-stroke" fill-rule="evenodd" fill="#984EA3" d="M643.651,444.201c0,2.191-1.776,3.969-3.966,3.969
		c-2.191,0-3.969-1.778-3.969-3.969c0-2.191,1.778-3.966,3.969-3.966C641.876,440.234,643.651,442.01,643.651,444.201"/>
	<path vector-effect="non-scaling-stroke" fill-rule="evenodd" fill="#984EA3" d="M645.084,493.607c0,2.191-1.776,3.969-3.966,3.969
		c-2.191,0-3.969-1.778-3.969-3.969c0-2.191,1.778-3.966,3.969-3.966C643.308,489.641,645.084,491.416,645.084,493.607"/>
	<path vector-effect="non-scaling-stroke" fill-rule="evenodd" fill="#984EA3" d="M525.894,320.941c0,2.191-1.778,3.966-3.969,3.966
		c-2.191,0-3.966-1.776-3.966-3.966s1.776-3.969,3.966-3.969C524.116,316.973,525.894,318.751,525.894,320.941"/>
	<path vector-effect="non-scaling-stroke" fill-rule="evenodd" fill="#984EA3" d="M636.292,499.183c0,2.191-1.776,3.966-3.969,3.966
		c-2.191,0-3.966-1.776-3.966-3.966c0-2.191,1.776-3.969,3.966-3.969C634.517,495.214,636.292,496.992,636.292,499.183"/>
	<path vector-effect="non-scaling-stroke" fill-rule="evenodd" fill="#984EA3" d="M660.603,443.325c0,2.191-1.778,3.966-3.969,3.966
		c-2.191,0-3.966-1.776-3.966-3.966c0-2.191,1.776-3.969,3.966-3.969C658.825,439.356,660.603,441.134,660.603,443.325"/>
	<path vector-effect="non-scaling-stroke" fill-rule="evenodd" fill="#984EA3" d="M814.124,255.284c0,2.193-1.776,3.969-3.969,3.969
		c-2.191,0-3.966-1.776-3.966-3.969c0-2.191,1.776-3.966,3.966-3.966C812.348,251.318,814.124,253.093,814.124,255.284"/>
	<path vector-effect="non-scaling-stroke" fill-rule="evenodd" fill="#984EA3" d="M604.966,503.723c0,2.191-1.776,3.969-3.966,3.969
		c-2.193,0-3.969-1.778-3.969-3.969c0-2.191,1.776-3.969,3.969-3.969C603.19,499.754,604.966,501.532,604.966,503.723"/>
	<path vector-effect="non-scaling-stroke" fill-rule="evenodd" fill="#984EA3" d="M635.769,499.183c0,2.191-1.778,3.966-3.969,3.966
		c-2.191,0-3.966-1.776-3.966-3.966c0-2.191,1.776-3.969,3.966-3.969C633.991,495.214,635.769,496.992,635.769,499.183"/>
	<path vector-effect="non-scaling-stroke" fill-rule="evenodd" fill="#984EA3" d="M593.595,413.973c0,2.191-1.776,3.969-3.966,3.969
		c-2.193,0-3.969-1.778-3.969-3.969c0-2.191,1.776-3.969,3.969-3.969C591.82,410.004,593.595,411.782,593.595,413.973"/>
	<path vector-effect="non-scaling-stroke" fill-rule="evenodd" fill="#984EA3" d="M562.871,492.119c0,2.193-1.776,3.969-3.966,3.969
		c-2.193,0-3.969-1.776-3.969-3.969c0-2.191,1.776-3.966,3.969-3.966C561.095,488.153,562.871,489.928,562.871,492.119"/>
</g>
<style>
#g-NYC-consulate2-_1-Americas-img rect, #g-NYC-consulate2-_1-Americas-img circle, #g-NYC-consulate2-_1-Americas-img path, #g-NYC-consulate2-_1-Americas-img line, #g-NYC-consulate2-_1-Americas-img polyline, #g-NYC-consulate2-_1-Americas-img polygon { vector-effect: non-scaling-stroke; }
</style>
</svg>

