<?xml version="1.0" encoding="utf-8"?>
<!-- Generator: Adobe Illustrator 27.7.0, SVG Export Plug-In . SVG Version: 6.00 Build 0)  -->
<svg version="1.2" baseProfile="tiny" id="g-NYC-consulate2-_1-Midtown-img"
	 xmlns="http://www.w3.org/2000/svg" xmlns:xlink="http://www.w3.org/1999/xlink" x="0px" y="0px" viewBox="0 0 841.68 595.199"
	 overflow="visible" xml:space="preserve">
<g>
	<rect x="0.001" fill-rule="evenodd" fill-opacity="0" width="841.709" height="595.051"/>
	<path vector-effect="none" fill-rule="evenodd" fill="#FFD99F" fill-opacity="0.298" d="M734.454,437.197l-4.936,7.433
		l-0.569,0.883l-0.365-0.228l-4.444,6.644l-2.049,3.066l0.276,0.295l-2.846,4.24l-5.607,8.064l-9.494,13.66l-2.291,3.294l-3.7,5.324
		l-25.244,39.484l-2.011,3.146l-0.535,0.758l-0.605,0.969l-1.262,2.025l1.303,0.833l-0.629,0.936l-0.019,0.156l-0.036,0.13
		l-0.139-0.01l-0.098,0.283l-0.202,0.139l-0.139,0.295l-0.379,0.657l-0.305,0.48l-0.317,0.453l-0.13,0.278l-0.23,0.36l-0.139,0.149
		l-0.194,0.418l-0.091,0.156l-0.434,0.573l-0.029,0.13l-0.084,0.158l-0.091,0.082l-0.074,0.194l-0.214,0.259l-0.24,0.417
		l-0.065,0.139l-0.214,0.35l-0.12,0.103l-0.06,0.158l-0.408,0.585l-1.857,2.879l-0.23-0.156l-0.07,0.019l-0.149,0.297l-0.106,0.05
		l-0.031,0.142l-0.13,0.125l-0.031,0.11l-0.511,0.763l-0.576,0.929l-0.785,1.233l-0.223,0.286l-0.125,0.187l-0.031,0.149
		l-0.737,1.181l-0.062,0.031l-0.067,0.118l-0.427,0.727l-0.168,0.194l-0.007,0.086l-0.163,0.218l-0.149,0.257l-0.286,0.417
		l-0.569,0.967l-0.293,0.389l-0.458,0.72l-0.257,0.463l-0.082,0.043l-0.612,0.981l-0.019,0.127l-1.742,2.721l-0.295-0.17
		l-0.065,0.082l-0.185-0.144l0.041-0.06l-0.456-0.36l-0.72,1.192l-0.425,0.665l-0.374,0.585l-0.842,1.346l-1.205,1.936l0.134,0.163
		v0.175l-0.511,0.912l-0.629,1.051l-0.178,0.072l-0.113-0.019l-0.324,0.545l-0.617,1.18l-0.537,0.967l-1.603,3.21l-0.672-0.338
		l-0.194-0.166l-0.122-0.029l-0.077-0.089l-0.118-0.022l-0.077-0.089h-0.11l-0.118-0.103l-0.406,0.818l-0.309,0.629l-0.979,1.979
		l3.237,2.016l0.05,0.007l0.187,0.096l0.074,0.12l0.317,0.166l0.122,0.182l0.026,0.156l-0.192,0.269l-0.192,0.271l-0.079-0.002
		l-0.103,0.084l-0.302-0.18l-0.067,0.043l-0.36-0.218l0,0l-0.367-0.23l-0.84-0.487l-0.034,0.026l-2.054-1.075l-0.084,0.055
		l-0.235,0.477l-0.657,1.298l-0.818,1.622l1.202,0.689l0.281,0.168l-0.737,1.536l-0.727,1.44l-1.351,2.632l-1.399,2.791
		l-0.405,0.804l-2.318-1.063l-0.703-0.326l-0.713-0.322l-0.461-0.226l-1.185-0.557l-12.472-6.836l4.698-8.571l4.396-7.928l4.4-7.872
		l0.365-0.713l1.229-2.131l1.111-1.984l0.967-1.651l0.885-1.509l4.187-7.896l-14.735-8.192l-8.487-4.712l-13.298-7.39l-8.503-4.926
		l4.472-7.661l4.369-7.913l4.782-8.535l-15.651-8.676l-4.561-2.503l-3.275-1.795l-2.503-1.37l-4.245-2.311l-1.305-0.71l-1.12-0.624
		l-5.44-3.112l4.621-8.83l4.314-7.94l4.475-8.105l4.468-8.026l6.018,3.335l0.893,0.473l4.521-7.988l4.451-8.007l4.376-8.117l4.453-8
		l4.463-8.067l4.444-7.995l4.444-8.057l4.453-7.98l4.482-8.103l4.42-8.004l4.799-8.626l4.801-8.727l4.465-8.019l1.094,0.612
		l14.648,8.194l15.644,8.667l22.149,12.201l7.39,4.081l4.638,2.534l10.881,5.946l21.897,12.261l6.682,3.58l1.001,0.621l1.526,0.825
		l-2.846,4.257l-1.003,0.955l-0.082,0.11l-4.645,7.649l-0.062,0.626l-3.654,6.236l-3.174,5.852l-2.846,4.444l-1.372,1.519v0.002
		l-2.251,2.491L734.454,437.197"/>
	<path vector-effect="none" fill-rule="evenodd" fill="#FFD99F" fill-opacity="0.298" d="M709.299,546.878l-0.597,0.801l-0.621-0.05
		l-0.394,0.65l-0.66,1.087l-1.346-0.564l-0.038-0.789l0.408-0.619l0.681-0.984l0.984-0.818l0.36-0.389l0.636-0.211l0.549-1.099
		l0.549-0.367l0.338,0.254l-0.084,0.422l-0.763,1.874L709.299,546.878"/>
	<path vector-effect="none" fill-rule="evenodd" fill="#FFD99F" fill-opacity="0.298" d="M745.367,578.924l-0.499,0.969l-1.01-0.276
		l0.228-1.015L745.367,578.924"/>
	<path vector-effect="none" fill-rule="evenodd" fill="#FFD99F" fill-opacity="0.298" d="M420.27,209.17l0.427,0.358l0.605,0.509
		l1.312,0.951l0.859,0.493l-3.625,6.588l0.902,0.501l1.229,0.681l26.756,14.857l3.088,1.705l24.714,13.649l27.761,15.342
		l10.884,6.034l16.954,9.439l-5.008,8.631l-2.483,4.473l-2.289,4.129l-4.441,8.04l-4.489,8.04l-4.405,7.99l-4.46,8.026l-4.441,8.069
		l-4.458,8.016l-4.46,8.081l-4.425,7.992l-4.489,8.115l-4.398,7.887l-4.528,8.033l-4.408,8.091l-4.436,8.043l-4.813,8.643
		l-4.736,8.539l-4.391,7.918l-4.398,7.961l-4.441,7.995L414.07,427.57l-5.247-2.922l-1.041-0.501l-6.459-3.575l-14.869-8.371
		l0.636-1.315l3.042-5.492l0.677-1.219l0.504-0.725l1.615-2.872l2.203-4.185l4.556-8.235l4.564-8.288l-7.191-3.983l-20.491-11.349
		l-10.548-5.838l-16.023-8.871l-1.121-0.737l-1.243-0.641l-1.348-0.78l-3.628-2.027l2.488-4.492l-21.698-12.028l1.418-2.5
		l21.715,11.894l4.029-7.316l-21.232-11.709l1.967-3.642l-1.109-0.629l-0.713,0.206l-0.266,0.475l-0.593-0.326l0.653-1.185
		l0.091-0.074l0.101-0.058l0.11-0.041l0.118-0.022l0.115-0.002l0.118,0.019l19.757,10.984l3.244,1.706l7.841,4.472l2.817-2.085
		l0.154,0.13l1.025-1.888l0.696-1.284l0.127-0.226l2.755-4.892l-30.468-16.935l-0.134-0.468l2.253-4.053l0.317-0.204l27.555,15.287
		l0.893,0.506l2.181,1.195l3.009-5.509l-0.228-0.957l-0.343-0.161l-0.298-0.24l-0.204-0.422l-0.091-0.48l0.067-0.432l0.206-0.367
		l0.331-0.295l0.434-0.206l1.039-0.274l0.432-0.24l0.355-0.444l0.427-0.861l0.653-1.322l0.199-0.401l-0.106-0.199l-31.804-17.667
		l-0.305-0.415l0.113-0.25l1.634-2.994l0.293-0.25l0.482-0.022l0.204,0.125l30.602,17.285l0.084-0.146l0.794,0.432l3.369-6.123
		l3.347-6.085l-31.703-17.7l-0.214-0.223l0.007-0.319l1.898-3.321l0.362-0.108l0.312,0.108l31.507,17.645l3.314-6.054l3.501-6.392
		l-31.907-17.636l-0.074-0.42l1.761-3.138l0.389-0.216l0.417,0.043l23.418,13.235l0.444-0.806l-1.209-0.667l1.36-2.327l1.149,0.631
		l3.138-5.708l-23.953-13.326l2.584-4.641l23.886,13.166l4.225-7.721l-1.336-0.696l1.133-2.031l1.303,0.751l3.34-6.12l-3.234-1.656
		l0.465-0.836l-0.869-0.728l-0.187,0.334l-0.936-0.53l-0.149,0.292l-0.717-0.415l0.993-1.832l0.07,0.041l0.374-0.668l0.617,0.304
		l-0.36,0.691l0.957,0.55l-0.209,0.315l1.185,0.372l0.065-0.15l3.095,1.808l1.773-3.268l1.305,0.129l0.319-0.109l0.218-0.243
		l0.108-0.224l-0.019-0.391l-0.811-1.171l0.3-0.486l0.014-0.173l-20.45-11.342l1.956-3.524l20.472,11.391l3.21-5.742l-9.854-5.459
		l-7.556-4.186l1.063-1.878l17.352,9.629l0.897-0.022l0.845,0.504L420.27,209.17"/>
	<path vector-effect="none" fill-rule="evenodd" fill="#FFD99F" fill-opacity="0.298" d="M631.419,626.473l-0.199,1.219
		l-0.494-0.079l-0.024,0.065l0.163,0.11l0.048,0.115l-0.501,3.287l-0.103,0.211l-0.204,0.096l-1.049-0.139l-2.131,10.253
		l0.022,0.571l0.046,1.538l0.062,0.525l-0.007,0.753l-0.017,1.447l0.139,0.725l0.014,0.631l0.031,0.401l0.017,0.554l-0.017,0.924
		l0.07,0.938l0.014,0.739l-0.079,0.804l-0.11,0.065l0.005,0.202l0.101,0.151l0.034,1.598l-0.079,0.139l-0.005,0.11l0.106,0.086
		v0.043h-68.308l-7.822-4.333l-2.366-1.303l-0.917-0.511l-10.231-5.665l-3.731-2.066l-4.657-2.579l4.451-7.904l4.389-7.937
		l4.386-7.928l4.412-7.942l-15.572-8.683l-15.159-8.364l-0.648-0.329l4.386-7.935l4.401-7.92l4.362-7.956l4.372-7.918l4.341-7.942
		l4.808-8.496l4.782-8.619l-0.897-0.509l-14.927-8.228l-15.654-8.599l4.434-7.978l4.365-7.935l4.391-7.913l4.379-7.935l4.415-7.952
		l4.398-7.916l4.201-7.613l0.523-0.945l15.613,8.727l9.154,5.005l5.44,3.112l1.12,0.624l1.305,0.71l4.245,2.311l2.503,1.37
		l3.275,1.795l4.561,2.503l15.651,8.676l-4.782,8.535l-4.369,7.913l-4.472,7.661l8.503,4.926l13.298,7.39l8.487,4.712l14.735,8.192
		l-4.187,7.896l-0.885,1.509l-0.967,1.651l-1.111,1.984l-1.229,2.131l-0.365,0.713l-4.4,7.872l-4.396,7.928l-4.698,8.571
		l12.472,6.836l1.185,0.557l0.461,0.226l0.713,0.322l0.703,0.326l2.318,1.063l-2.044,4.23l1.231,0.669l0.216,0.115l-0.336,0.612
		l-1.8,3.568l-0.873,5.775l-0.197,1.269l-0.314,2.126l-0.497,3.009l-0.441,3.131l-0.859,5.214l-0.036,0.221l0.753,0.12l0.168,0.026
		l0.125,0.043l0.139,0.168l0.036,0.223l-0.007,0.046l-0.485,3.153l-0.096,0.125l-0.096,0.043l-0.007,0.103L631.419,626.473"/>
	<path vector-effect="none" fill-rule="evenodd" fill="#FFD99F" fill-opacity="0.298" d="M342.656,345.645l3.628,2.027l1.348,0.78
		l1.243,0.641l1.121,0.737l16.023,8.871l10.548,5.838l20.491,11.349l7.191,3.983l-4.564,8.288l-4.556,8.235l-2.203,4.185
		l-1.615,2.872l-0.504,0.725l-0.677,1.219l-3.042,5.492l-0.636,1.315l14.869,8.371l6.459,3.575l1.041,0.501l5.247,2.922
		l27.665,15.421l-4.355,7.899l-4.384,7.92l-4.398,7.961l-4.729,8.511l-4.722,8.568l-4.209,7.594l-4.528,8.172l-4.434,7.976
		l-4.393,7.949l-4.372,7.863l-4.396,7.911l-4.41,7.925l20.342,11.325l7.335,4.084l27.754,15.409l4.391-7.932l4.424-7.947
		l17.427,9.672l13.964,7.757l15.637,8.643l15.207,8.441l0.609,0.319l-4.403,7.925l-4.405,7.93l-4.389,7.937l-4.403,7.923
		l-4.705,8.573l-4.758,8.506l-1.824,3.278l-2.591,4.662l-4.285,7.582l-0.703,1.229H370.996l-7.815-4.305l-27.708-15.397
		l-5.694-3.143l-19.694-10.939l-2.311-1.274l-0.78-0.42l-14.917-8.276l-8.004-4.41l-4.029-2.267l-4.83-2.75l-0.895-0.173
		l-1.001-0.115l-1.219-0.684l-1.32-0.753l0.605-5.003l-1.449-0.173l-0.007-0.175l-3.702-0.487l0.506-3.933l-0.158-0.074
		l-24.733-3.251l-0.175-0.197l-0.106-0.35l0.566-4.341l0.206-0.319l0.47-0.221l0.42,0.053l24.061,3.333l0.226-0.252l0.497-3.534
		l0.427,0.031l3.436,0.449l1.382,0.204l0.953-6.69l0.732-5.375l-0.019-0.298l-2.049-0.358l-6.19-1.073l-0.37-0.065l0.525-3.733
		l-3.496-0.492l-0.173,0.13l-0.036,0.261l-0.053,0.396l-0.07,0.516l-0.077,0.583l-0.089,0.662l-0.058,0.43l-0.077,0.571
		l-0.077,0.566l-0.089,0.66l0.11,0.139l1.147,0.132l-0.026,0.223l-2.886-0.331l0.031-0.278l1.082,0.125l0.149-0.118l0.146-1.063
		l0.094-0.684l0.058-0.422l0.086-0.633l0.065-0.485l0.091-0.667l0.058-0.41l0.034-0.25l-0.166-0.175l-4.667-0.643l-0.187,0.142
		l-0.034,0.264l-0.05,0.379l-0.062,0.48l-0.082,0.629l-0.089,0.684l-0.06,0.446l-0.026,0.216l-0.204,1.555l0.182,0.13l1.121,0.122
		l-0.024,0.214l-3.364-0.362l0.026-0.24l1.514,0.163l0.202-0.12l0.173-1.507l0.041-0.365l0.13-1.113l0.106-0.917l0.058-0.511
		l0.026-0.228l-0.137-0.127l-5.449-0.715l-0.122,0.149l-0.084,0.749l-0.053,0.444l-0.086,0.713l-0.062,0.537l-0.106,0.881
		l-0.048,0.396l-0.106,0.873l0.182,0.122l1.077,0.098l-0.017,0.19l-3.35-0.345l0.022-0.192l1.514,0.156l0.192-1.217l0.048-0.307
		l0.173-1.109l0.07-0.446l0.139-0.89l0.122-0.785l-0.125-0.18l-5.586-0.763l-0.545,4.686l0.122,0.252l1.109,0.098l-0.014,0.17
		l-1.617-0.154l0.602-5.118l0.043-0.357l0.038-0.324l-0.161-0.302l0.624-4.341l0.074-0.274l0.317-0.235l0.432,0.014l10.531,1.377
		l0.038-0.406l4.129,0.585v0.19l1.771,0.295l-0.014,0.247l4.724,0.643l0.113-0.864l0.106-0.804l0.058-0.451l0.11-0.837l0.053-0.408
		l0.113-0.864l0.058-0.444l0.106-0.813l0.055-0.408l0.046-0.36l0.041-0.305l0.125-0.955l-21.177-2.98l-0.331-0.151L247,546.977
		l0.026-0.341l0.542-4.345l0.206-0.228l0.274-0.077l0.379,0.055l21.484,2.87l1.032-7.659l-4.127-0.552l-0.007,0.192h-0.065
		l-0.005,0.214l0.175,0.005l-0.012,0.403l-4.024-0.494l0.053-0.434l0.506,0.062l0.048-0.406l-14.197-1.977l-0.372-0.237
		l-0.115-0.252l0.583-4.434l0.149-0.312l0.276-0.18l0.365,0.01l21.539,2.93l1.099-8.036l-0.324-0.01v0.161l-0.895-0.122
		l-0.029,0.187l-3.33-0.442l-0.01-0.096l-1.046-0.142l0.046-0.329l-16.081-2.2l-0.271-0.151l-0.204-0.274v-0.24l0.648-4.221
		l0.158-0.204l0.235-0.106l0.302-0.022l11.023,1.536l3.772-13.317l3.009-0.194l1.452-4.952l-15.344-8.362l1.101-3.832l15.255,8.64
		l2.877-9.991l-0.247-0.501l0.626-2.08l0.453-0.314l0.861-2.963l-2.219-0.828l-3.714-1.92l0.139-0.247l3.717,1.958l0.921,0.319
		l0.077-0.218l-3.179-1.543l0.115-0.173l-0.797-0.449l-0.098,0.089l-0.571-0.276l0.017-0.031l0.47-0.926l0.588,0.324l-0.101,0.158
		l0.77,0.42l0.137-0.252l2.366,1.303l0.797,0.437l0.094-0.202l-0.816-0.372l-6.598-3.628l0.127-0.23l8.283,4.554l0.513-1.785
		l-3.82-2.138l0.149-0.264l-0.358-0.178l-0.122,0.211l-9.89-5.403l0.19-0.283l-0.42-0.233l-0.168,0.298l-0.821-0.458l0.686-1.231
		l-0.492-0.276l0.501-0.897l1.269,0.708l-0.962,1.723l0.48,0.245l0.077-0.108l9.763,5.432l-0.062,0.11l0.432,0.25l1.017-1.821
		l3.261,1.838l3.338-11.62l1.065-3.671l1.598-5.509l1.164-3.973l-1.214-0.705l1.442-2.486l1.216,0.686l1.732-3.158l0.086-0.158
		l-1.255-0.691l1.384-2.517l1.241,0.681l1.809-3.186l1.492-2.707l1.008-1.804l1.224-2.239l3.63-6.594l0.989-1.792l1.341-2.534
		l0.42-0.797l1.116-2.171l3.81-6.848l2.02,1.171l3.981-7.414l-1.6-0.955l-3.035-1.852l2.419-4.213l-18.859-10.303l-0.288-0.206
		l-0.161-0.355l0.065-0.36l4.626-8.249l0.221-0.221l0.302-0.022l0.317,0.041l1.252,0.612l17.66,9.725l2.913-5.348l2.915,1.617
		l0.984-1.732l-2.666-1.478l-1.629-0.941l0.434-0.792l0.525-0.962l-0.941-0.648l-0.144,0.144l-0.578-0.453l0.489-0.624l0.569,0.444
		l-0.118,0.149l0.885,0.66l0.197-0.403l4.319,2.399l0.941-1.802l-3.474-2.008l1.005-1.67l2.318-4.086l1.982-3.556l2.455-4.484
		l3.378,1.917l4.408-7.887l-21.559-12.177l-0.127-0.194l0.017-0.209l1.044-1.802l0.218-0.142l0.266,0.055l21.451,12.098
		L342.656,345.645"/>
	<path vector-effect="none" fill-rule="evenodd" fill="#FFD99F" fill-opacity="0.298" d="M623.338,320.147l15.644,8.866
		l14.699,8.072l1.022,0.569l-4.465,8.019l-4.801,8.727l-4.799,8.626l-4.42,8.004l-4.482,8.103l-4.453,7.98l-4.444,8.057
		l-4.444,7.995l-4.463,8.067l-4.453,8l-4.376,8.117l-4.451,8.007l-4.521,7.988l-0.893-0.473l-6.018-3.335l-4.468,8.026l-4.475,8.105
		l-4.314,7.94l-4.621,8.83l-9.154-5.005l-15.613-8.727l-0.523,0.945l-4.201,7.613l-4.398,7.916l-4.415,7.952l-4.379,7.935
		l-4.391,7.913l-4.365,7.935l-4.434,7.978l15.654,8.599l14.927,8.228l0.897,0.509l-4.782,8.619l-4.808,8.496l-4.341,7.942
		l-4.372,7.918l-4.362,7.956l-4.401,7.92l-4.386,7.935l-0.609-0.319l-15.207-8.441l-15.637-8.643l-13.964-7.757l-17.427-9.672
		l-4.424,7.947l-4.391,7.932l-27.754-15.409l-7.335-4.084l-20.342-11.325l4.41-7.925l4.396-7.911l4.372-7.863l4.393-7.949
		l4.434-7.976l4.528-8.172l4.209-7.594l4.722-8.568l4.729-8.511l4.398-7.961l4.384-7.92l4.355-7.899l4.441-7.995l4.398-7.961
		l4.391-7.918l4.736-8.539l4.813-8.643l4.436-8.043l4.408-8.091l4.528-8.033l4.398-7.887l4.489-8.115l4.425-7.992l4.46-8.081
		l4.458-8.016l4.441-8.069l4.46-8.026l4.405-7.99l4.489-8.04l4.441-8.04l2.289-4.129l2.483-4.473l5.008-8.631l2.467-4.571
		l0.492,0.211l0.513,0.158l0.528,0.096l0.535,0.036l0.535-0.024l0.528-0.086l0.585-0.197l0.554-0.269l0.518-0.334l0.473-0.398
		l0.42-0.451l0.36-0.499l23.555,12.89l6.98,3.877l20.755,11.531l19.917,11.131l5.43,3.035L623.338,320.147"/>
</g>
<style>
#g-NYC-consulate2-_1-Midtown-img rect, #g-NYC-consulate2-_1-Midtown-img circle, #g-NYC-consulate2-_1-Midtown-img path, #g-NYC-consulate2-_1-Midtown-img line, #g-NYC-consulate2-_1-Midtown-img polyline, #g-NYC-consulate2-_1-Midtown-img polygon { vector-effect: non-scaling-stroke; }
</style>
</svg>

