<?xml version="1.0" encoding="utf-8"?>
<!-- Generator: Adobe Illustrator 27.7.0, SVG Export Plug-In . SVG Version: 6.00 Build 0)  -->
<svg version="1.2" baseProfile="tiny" id="g-NYC-consulate1-_1-manhattan-img"
	 xmlns="http://www.w3.org/2000/svg" xmlns:xlink="http://www.w3.org/1999/xlink" x="0px" y="0px" viewBox="0 0 841.68 595.199"
	 overflow="visible" xml:space="preserve">
<g>
	<rect x="0.001" fill-rule="evenodd" fill-opacity="0" width="841.709" height="595.051"/>
	
		<path vector-effect="none" fill-rule="evenodd" fill="#BEB297" stroke="#69722C" stroke-width="0.7368" stroke-linecap="square" stroke-linejoin="bevel" stroke-miterlimit="10" d="
		M457.46-59.505l0.024,0.55l0.012,0.319l0.074,1.812l-0.014,0.171l0.058,1.277l0.581,0.052l-0.002,0.659l0.002,0.565l0.01,0.405
		l0.007,0.316l0.11,5.391l0.029,3.07l0.017,3.349l-0.062,3.422l-0.091,4.966l-0.475-0.012v0.06l0.017,0.06l-0.029,0.048
		l-0.007,0.072l0.036,0.06v0.084l-0.041,0.102l-0.007,0.06l0.079,0.078l-0.048,0.155l0.029,0.143l-0.041,0.078l0.012,0.06
		l-0.043,0.096l0.034,0.129v0.125v0.161l-0.017,0.149l-0.007,0.167l0.043,0.161l-0.019,0.161l0.007,0.108l-0.067,0.137l-0.017,0.155
		l0.017,0.167l-0.024,0.161l-0.065,0.49l-0.014,0.188l0.029,0.09l-0.005,0.113l0.036,0.137l-0.031,0.125l0.036,0.203l-0.072,0.066
		l0.055,0.09l-0.048,0.108l-0.024,0.101l0.06,0.078l-0.007,0.119l-0.012,0.281l0.036,0.155l0.043,0.191l-0.103,0.197l-0.096,0.239
		l0.645,0.012l-0.024,1.244l-0.005,0.303l-0.005,0.212l-0.017,0.278l-0.012,0.203l-0.233,3.833l-0.209,2.855l-0.106,1.104
		l-0.122,1.433l-0.221,1.995l-0.18,1.371l-0.235,1.71l-0.35,3.054l-0.089,1.828l-0.041,0.854l-0.106,2.114l0.01,1.957l0.511,2.694
		l0.07,0.146l0.252,1.582l0.058,0.428l2.282,5.653l0.948,1.508l0.283,0.437l0.307,0.434l0.038,0.058l0.365,0.634l0.619,0.834
		l1.231,1.703l0.981,1.359l3.446,4.825l0.197,0.25l0.084,0.123l0.034,0.118l0.074,0.045l0.067,0.084l0.094,0.188l0.074,0.074
		l0.35,0.543l0.144,0.22l0.449,0.662l0.134,0.237l0.05,0.098l0.067,0.124l0.098,0.183l0.163,0.281l0.024,0.064l0.209,0.358
		l0.005,0.054l0.07,0.099l0.098,0.183l0.101,0.179l0.331,0.586l0.089,0.192l0.367,0.634l0.024,0.079l0.06,0.079l0.034,0.084
		l0.197,0.346l0.031,0.084l0.086,0.123l0.154,0.291v0.049l0.122,0.192l0.408,0.714l0.151,0.286l0.211,0.39l0.084,0.153l0.098,0.178
		l0.122,0.277l0.07,0.153l0.285,0.657l0.034,0.049l0.504,1.137l0.192,0.397l0.161,0.487l-0.022,0.033l-0.269,0.451l0.144,0.353
		l0.108,0.297l0.298,0.644l0.084,0.183l0.42,0.908l0.384,1.181l0.47,1.393l0.23,0.678l0.274,0.782l0.07,0.244l0.336,1.02
		l0.094,0.388l0.12,0.552l0.11,0.657l0.274,1.208l0.365,0.185l0.341,0.172l0.034,0.595l0.022,0.398l0.022,0.347l0.034,0.313
		l0.034,0.333l0.055,0.578l0.134,1.568l0.065,0.742l0.149,1.69l-0.07,2.126l-0.098,2.928l-0.108,3.496l-0.259,8.014l-0.074,0.365
		l-0.909,4.507l-0.118,0.23l-0.905,1.621l-0.619,1.134l-0.257,0.469l-0.523,0.93l0.132,0.108l-0.036,0.073l0.17,0.098l-0.094,0.183
		l-0.223-0.097l-0.058,0.11l-0.06-0.012l-0.086,0.163l0.07,0.049l-0.605,1.119l-0.158-0.065l-0.36,0.642l-0.909,0.656l-2.824,2.007
		l-1.274,0.903l-0.938,0.677l-0.549,0.396l-0.334,0.247l-0.549,0.41l-0.278,0.209l-1.109,0.818L463.677,86l-0.12,0.082l-0.545,0.367
		l-0.833,0.632l-0.933,0.723l-0.566,0.434l-0.103,0.08l-0.869,0.672l-0.989,0.926l-0.65,0.6l-0.741,0.703l-0.823,0.756l-0.276,0.264
		l-0.693,0.626l-0.929,0.807l-1.281,1.15l-0.218,0.2l-0.262,0.237l-0.391,0.411l0.012,0.012l0.305,0.292l-1.128,1.112l-0.29-0.295
		l-1.19,1.201l-0.782,1.423l-1.204,2.16l-1.516,2.748l-1.5,2.676l0.036,0.038l-0.113,0.215l0.034,0.11l0.235,0.131l3.561,1.991
		l0.05,0.056l0.005,0.062l-0.372,0.677l-0.036,0.026l-0.065-0.001l-3.69-1.993l-0.324,0.922l-0.686,2.007l-0.077,0.225l-0.54,1.586
		l-0.346,1.015l-0.211,0.646l-0.036,0.087l-0.185,0.554l-0.132,0.378l-0.178,0.508l-0.53,1.131l0.007,0.044l-0.053,0.069
		l-0.053,0.131l-0.583,1.324l-0.074,0.102l-0.245,0.367l-0.209,0.301l-1.195,1.77l-2.958,4.405l-2.275,3.387l-0.034,0.014
		l-0.034,0.014l-0.041,0.04l-0.113,0.062l-0.034,0.047l-0.086,0.062l-0.082,0.055l-0.101,0.066l-0.144,0.102l-0.094,0.073
		l-0.048,0.018l-0.103,0.08l-0.058,0.04l-0.204,0.146l-0.144,0.089l-0.144,0.113l-0.07,0.037l-0.091,0.075l-0.055,0.043
		l-0.118,0.081l-0.386,0.269l-0.372,0.263l-0.326,0.236l-0.07,0.065l-0.125,0.07l-0.036,0.038l-0.134,0.091l-0.206,0.14
		l-0.175,0.124h-0.017l-0.113,0.07l-0.077,0.054l-0.084,0.054l-0.173,0.107l-0.789,0.494l-0.247,0.14l-0.103,0.064l-0.108,0.075
		l-0.144,0.091l-1.111,0.722l-0.326,0.218l-0.605,0.413l-0.732,0.499l-0.65,0.446l-0.672,0.462l-0.547,0.376l-0.314,0.217
		l-0.178,0.123l-0.142,0.115l-0.417,0.384l-0.132,0.123l-0.281,0.258l-0.439,0.405l-0.35,0.319l-0.276,0.25l-0.331,0.307
		l-0.401,0.368l-0.187,0.184l-0.18,0.225l-0.139,0.225l-0.122,0.213l-0.163,0.294l-0.154,0.274l-0.199,0.389l-0.18,0.323
		l-0.449,0.781l0.029,0.123l-0.422,1.202l-0.943,6.021l0.041,1.387l0.638,3.445l0.468,2.521l0.657,2.12l3.969-1.445l0.05-0.01
		l0.053-0.002l0.05,0.007l0.05,0.015l0.048,0.023l0.043,0.03l0.038,0.036l0.031,0.042l0.024,0.046l0.017,0.049l0.996,2.763
		l0.019,0.044l0.01,0.046l0.005,0.047l-0.005,0.047l-0.012,0.046l-0.017,0.044l-0.026,0.04l-0.029,0.036l-0.036,0.031l-2.39,0.775
		l0.046,0.261l0.007,0.265l-0.031,0.263l-0.067,0.256l-0.106,0.244l-0.137,0.227l-0.168,0.205l-0.194,0.179l-0.221,0.149
		l-0.238,0.117l1.416,3.898l0.809,3.842l0.662,0.404l0.058-0.083l-0.158-0.563l-0.178,0.03l-0.377-1.611l0.11-0.027l0.014,0.056
		l0.142-0.027l0.125-0.035l-0.012-0.059l0.11-0.021l0.384,1.599l-0.18,0.053l0.182,0.675l-0.062,0.095l0.554,0.326l-0.266,0.492
		l-0.506-0.299l0.065-0.124l-0.571-0.308l0.017,0.062l0.374,0.214l-0.19,0.417l0.228,0.085l0.214,0.114l0.197,0.141l0.178,0.166
		l0.154,0.188l0.127,0.207l0.098,0.222l0.07,0.233l0.293,3.923l-0.319,1.223l-1.3,1.233l-0.758,2.721l-1.394,2.907l-1.66,2.492
		l-1.324,1.985l-1.204,1.663l-1.641,2.26l-2.095,2.888l-2.994,3.357l-3.21,3.612l-2.049,2.868l-2.368,3.315l-2.428,3.431
		l-2.349,3.307l-1.713,3.104l-1.173,2.122l-0.837,1.357l-1.996,3.235l-2.414,3.452l-2.284,3.266l-2.198,3.255l-2.217,3.264
		l-4.295,6.356l-4.285,6.344l-5.363,6.214l-0.554,0.641l-1.778,2.123l-0.098,0.118l-2.625,3.16l-1.38,1.632l-1.145,1.339
		l-0.161,0.19l-1.495,1.795l-1.022,1.193l-0.427,0.477l-0.098,0.11l-0.166,0.192l-0.118,0.122l-0.146,0.187l-0.214,0.271
		l-0.955,1.202l-1.188,1.778l-0.418,0.398l-0.034,0.048l-1.941,3.191l-0.026,0.262l-1.526,2.603l-1.324,2.443l-1.188,1.855
		l-0.571,0.636h-0.002l-0.938,1.039l-2.447,2.455l-2.061,3.105l-0.238,0.367l-0.151-0.094l-1.857,2.774l-0.854,1.279l0.115,0.122
		l-1.188,1.771l-2.342,3.366l-3.964,5.701l-0.955,1.377l-1.545,2.222l-10.538,16.484l-0.84,1.312l-0.223,0.317l-0.252,0.403
		l-0.525,0.845l0.542,0.348l-0.262,0.391l-0.007,0.065l-0.017,0.055l-0.058-0.005l-0.041,0.118l-0.084,0.06l-0.058,0.122
		l-0.158,0.274l-0.13,0.202l-0.13,0.19l-0.055,0.115l-0.096,0.151l-0.058,0.062l-0.082,0.173l-0.038,0.067l-0.182,0.238
		l-0.012,0.055l-0.034,0.065l-0.038,0.036l-0.031,0.082l-0.089,0.108l-0.101,0.173l-0.026,0.058l-0.089,0.146l-0.05,0.043
		l-0.026,0.067l-0.17,0.245l-0.775,1.202l-0.096-0.067l-0.029,0.01l-0.062,0.125l-0.043,0.019l-0.012,0.06l-0.055,0.053
		l-0.014,0.046l-0.211,0.319l-0.242,0.386l-0.326,0.516l-0.094,0.12l-0.053,0.077l-0.012,0.062l-0.307,0.492l-0.026,0.014
		l-0.029,0.048l-0.178,0.305l-0.07,0.079l-0.002,0.036l-0.07,0.094l-0.062,0.106l-0.118,0.175l-0.238,0.403l-0.125,0.163l-0.19,0.3
		l-0.108,0.192l-0.034,0.019l-0.254,0.41l-0.01,0.053l-0.727,1.135l-0.122-0.072l-0.026,0.036l-0.079-0.06l0.019-0.026l-0.192-0.149
		l-0.3,0.497l-0.178,0.278l-0.156,0.245l-0.353,0.561l-0.501,0.809l0.055,0.067v0.074l-0.214,0.379l-0.262,0.439l-0.074,0.029
		l-0.048-0.007l-0.134,0.228l-0.257,0.492l-0.226,0.403l-0.669,1.341l-0.278-0.142l-0.082-0.07l-0.053-0.012l-0.031-0.036
		l-0.048-0.01l-0.034-0.036h-0.046l-0.048-0.043l-0.17,0.341l-0.13,0.262l-0.408,0.828l1.351,0.84l0.022,0.005l0.079,0.038
		l0.029,0.05l0.134,0.07l0.05,0.077l0.01,0.065l-0.079,0.113l-0.082,0.113l-0.031-0.002l-0.043,0.036l-0.127-0.074l-0.026,0.017
		l-0.151-0.089v-0.002l-0.154-0.096l-0.35-0.202l-0.014,0.01l-0.857-0.449l-0.036,0.024l-0.098,0.199l-0.274,0.542l-0.343,0.677
		l0.504,0.288l0.118,0.07l-0.31,0.641l-0.302,0.602l-0.564,1.097l-0.585,1.166l-0.168,0.336l-0.854,1.766l0.516,0.278l0.089,0.048
		l-0.139,0.257l-0.753,1.488l-0.362,2.411l-0.084,0.53l-0.13,0.888l-0.209,1.257l-0.185,1.305l-0.358,2.176l-0.014,0.094l0.314,0.05
		l0.07,0.01l0.053,0.019l0.058,0.07l0.014,0.094l-0.002,0.019l-0.202,1.315l-0.041,0.053l-0.041,0.017l-0.002,0.043l0.161,0.014
		l-0.084,0.509l-0.206-0.031l-0.01,0.026l0.067,0.046l0.022,0.048l-0.211,1.372l-0.041,0.089l-0.086,0.041l-0.439-0.058
		l-0.888,4.278l0.01,0.238l0.019,0.643l0.024,0.218l-0.002,0.317l-0.007,0.602l0.058,0.302l0.007,0.264l0.012,0.168l0.007,0.23
		l-0.007,0.386l0.029,0.391l0.007,0.31l-0.034,0.336l-0.046,0.026l0.002,0.084l0.041,0.062l0.014,0.667l-0.034,0.06v0.046
		l0.043,0.036l0.012,0.926l0.019,0.077l0.036,0.487l-0.053,0.13l0.026,0.089l0.034,0.405l-0.038,0.13l0.031,0.705l0.065,4.804
		l0.031,0.132l0.012,0.29l0.019,0.238l0.079,0.991l-0.029,0.082l0.3,3.443l-0.084,0.086l-1.464,0.086l-6.291-3.443l-0.187,0.643
		l0.175,0.089l0.022-0.041l0.048,0.007l1.519,0.847l-0.082,0.137l-1.56-0.859l0.007-0.031l-0.158-0.065l-0.151,1.144l0.12,0.012
		l0.137,0.065l0.029-0.017l1.195,0.523l-0.043,0.118l-1.207-0.533l-0.005-0.024l-0.12-0.034l-0.11,0.01l-0.038,0.792l0.026,0.523
		l0.079-0.422l0.154,0.036l-0.046,0.204l0.866,0.18l0.014,0.091l-0.05,0.074l-0.864-0.168l0.002,0.053h-0.031l0.024,0.326
		l0.026,0.322l0.298-0.002v-0.024l0.523,0.002l-0.005-0.024l0.295-0.022l0.012,0.108l0.13,0.01l0.048-0.074l0.216,0.166l0.012-0.019
		l2.735,1.48l-0.082,0.144l0.645,0.362l0.909,0.513l1.02-1.857l-0.53-0.403l0.026-0.043l0.681,0.547l-0.953,1.708l0.134,0.094
		l0.132-0.194l0.19,0.134l0.086-0.173l0.108,0.067l-0.439,0.722l-0.089-0.072l0.089-0.156l-0.204-0.11l0.101-0.156l-0.132-0.082
		l-0.137,0.238l-1.07-0.612l-0.091,0.216l0.022,0.031l0.07,0.103l0.084,0.158l0.026,0.154l-0.019,0.211l-0.079,0.206l-0.134,0.161
		l-0.161,0.115l-0.202,0.098l-0.168,0.014l-0.257-0.038l-0.091,0.168l-3.649-1.994l0.06,0.441l0.06,0.3l0.084,0.461l0.067,0.329
		l0.096,0.473l0.144,0.744l0.18,0.926l0.065,0.341l0.178,0.864l0.118,0.561l0.058,0.329l0.072,0.405l0.185,0.912l0.187,0.977
		l0.156,0.789l0.12,0.585l0.137,0.715l0.065,0.096l0.031,0.199l0.115,0.086l0.024,0.12l0.041,0.096l0.101-0.007l0.014,0.106
		l0.041,0.046l0.034,0.091l-0.084,0.103l0.034,0.161l0.065-0.019l-0.034-0.07l0.074-0.067l0.086-0.019l0.108,0.115l-0.079,0.082
		l0.079,0.065l0.077-0.067l0.098,0.017l0.055-0.055l0.077,0.034l0.074-0.029l0.055,0.07l-0.074,0.055l0.01,0.115l-0.096,0.024
		l-0.041,0.055l-0.048,0.086l-0.082,0.019l-0.084,0.082l-0.11,0.019l-0.055,0.115l-0.086-0.022l-0.13,0.046l0.014,0.156l0.401,2.02
		l0.379,2.025l0.122,0.722l0.082,0.365l0.077,0.346l0.281,1.492l0.074,0.396l0.441,2.183l0.127,0.25l0.065,0.086l0.103,0.197
		l0.096,0.134l0.139,0.242l0.192,0.3l0.146,0.214l0.221,0.3l0.194,0.252l0.185,0.25l0.192,0.235l0.353,0.391l0.355,0.367l0.35,0.406
		l0.422,0.441l0.338,0.35l0.326,0.307l0.082,0.077l0.516,0.48l0.379,0.355l0.026,0.024l0.588,0.576l0.144,0.17l0.178,0.221
		l0.192,0.24l0.247,0.374l0.19,0.295l0.108,0.158l0.331,0.557l0.014,0.038l0.182,0.37l0.298,0.578l0.204,0.475l0.238,0.631
		l0.043,0.146l0.115,0.398l0.094,0.429l0.07,0.394l0.031,0.173l0.046,0.362l0.036,0.621l0.024,0.458l0.002,0.406l-0.055,0.801
		l-0.031,0.446l-0.103,0.773l-0.014,0.118l-0.07,0.59l-0.151,1.106l-0.182,1.605l-0.055,0.05l-0.014,0.254l-0.07,0.031l-0.118-0.055
		l-0.07,0.014l-0.065,0.024l-0.137,1.272l0.403,0.048l0.103,0.012l0.098,0.01l0.065,0.036l0.034,0.065l0.082,0.005l0.01,0.125
		l-0.557,3.863l-0.173,1.267l-0.106,0.804l-0.094,0.643l-0.079,0.655l-0.12,0.89l-0.026,0.065l-0.07,0.038l-0.103-0.005
		l-0.173,1.243l-0.062,0.427l-0.043,0.422l-0.106,0.717l-0.091,0.612l-0.026,0.098l-0.089,0.631l-0.175,1.063l-0.13,0.845
		l-0.12,0.669l-0.024,0.122l-0.036,0.206l-0.012,0.158l-0.055,0.24l-0.238,1.356l-0.041,0.204l-0.206,1.082l-0.067,0.446
		l-0.13,0.708l-0.245,1.344l-0.146,0.811l-0.156,0.876l-0.449,2.421l-1.545,8.614l-0.393,2.239l-0.422,2.231l-0.449,2.227
		l-0.475,2.222l-0.504,2.215l-0.533,2.21l-0.689,2.692l-0.717,2.683l-0.749,2.678l-0.777,2.666l-0.809,2.659l-0.835,2.649
		l-0.866,2.642l-0.897,2.63l-0.084,0.223l-0.055,0.146l-0.103,0.262l-0.103,0.293l-0.048,0.134l-0.084,0.245l0,0l-2.267,6.426
		l0.031,0.043l-0.703,2.039l-0.331,0.991l-0.302,0.773l-0.168,0.214l-0.595,1.615l-0.48,1.123l-0.312,0.59l-0.182,0.346l-0.66,1.063
		l-0.434,0.624l-0.701,0.873l-0.269,0.314l-0.674,0.691l-1.241,1.209l-0.792,0.713l-0.405,0.346l-0.322,0.245l-0.396,0.209
		l-0.338,0.154l-0.417,0.137l-0.3,0.048l-0.473,0.043l-0.993,0.086l-0.655,0.055l-1.682,0.154l-0.074,0.007l-0.338,0.029
		l-3.04,0.266l-1.008,0.089l-0.216,0.014l0.022,0.386l-0.732,0.067l-3.162,0.302l0.168,2.099l-7.395,0.957l-2.373,0.3l-3.482,0.442
		l-8.369,1.06l-6.58,0.833l-0.035,0.048l-0.885,0.11l-0.228-0.036l-0.135-0.118l-0.072-0.11l-0.568-3.94l-0.036-0.026l-0.09-0.017
		l-0.116-0.046l-0.088-0.098l-0.078-0.127l-0.246,0.022l-0.413,0.065l-1.871,0.288l-0.42,0.062l-0.464,0.082l-0.696,0.134
		l-1.683,0.314l-1.451,0.302l-1.121,0.238l-1.136,0.173l-1.155,0.197l-1.432,0.295l-0.266,0.055l-0.561,0.158l-0.545,0.046
		l-0.212,0.048l-0.234,0.05l-0.866,0.185l-1.986,0.442l-3.634,0.727l-1.092,0.046l-0.54,0.024l-0.968,0.218l-0.818,0.329
		l-2.432,0.518l-2.56,0.473l-0.877,0.161l-2.629,0.477l-2.522,0.511l-3.263,1.188l-0.825,0.427l-0.984,0.528l-0.137,0.086
		l-0.656,0.417l-0.13,0.074l-0.222,0.125l-0.054,0.132l-0.243,0.209l-0.416,0.235l-0.283,0.322l-0.333,0.269l-0.245,0.187
		l-0.265,0.18l-0.273,0.185l-0.228,0.204l-0.159,0.12l-0.159,0.122l-0.256,0.18l0.045,0.074l0.088,0.144l-0.195,0.151l-0.052-0.005
		l-0.083-0.122l-0.155-0.228l-1.115,0.727l-0.267,0.175l0.014,0.048l-0.014,0.127l-0.033,0.146l-0.063,0.134l-0.099,0.079
		l-0.58,0.463l-0.387,0.309l-0.679,0.466l-0.62,0.408l-0.894,0.557l-0.318,0.199l-0.134,0.096l-1.24,0.885l0.227,0.326l-0.376,0.288
		l-0.035,0.026l0.021,0.029l0.272,0.381l-0.06,0.079l0.025,0.05l-0.03,0.024l0.002,0.038l0.788,1.13l-1.722,1.267l-0.006,0.005
		l0.004,0.002l3.315,4.117l-1.03,0.833l-2.483,2.042l-2.449-2.882l-0.025-0.031l-0.006,0.005l-0.245,0.199l-0.144,0.118
		l-1.677-0.893l-0.471,0.398l1.313,1.555l-0.215,0.161l0.13,0.149l1.684,1.946l0.002,0.036l-0.252,0.206l-0.57,0.461l-0.056-0.002
		l-0.602-0.756l-0.002,0.031l-0.353,0.333l-0.041,0.012l-0.235-0.262l0.002-0.038l0.365-0.326l0.047-0.005l-3.816-4.46l-1.058,0.897
		l-0.201,0.168l-0.051,0.043l-0.77,0.633l0.697,0.823l0.319-0.23l0.128,0.142l-0.319,0.228l4.083,4.825l-0.97,0.789l-4.849-5.742
		l-1.157,0.989l-1.002,0.876l-1.037,0.854l-0.325,0.261l-1.091,0.912l-0.096,0.082l-0.199,0.166l-0.367,0.346l-1.276,1.101
		l-0.93,0.775l-0.526,0.453l-0.491-0.569l-0.82,0.703l-0.369,0.314l-0.666,0.564l1.121,1.173l0.024,0.029l0.059,0.072l1.585,1.874
		l0.049,0.058l0.049,0.058l1.341,1.581l0.304,0.36l-0.175,0.156l0.088,0.098l0.139-0.125l0.144,0.163l0.036-0.031l0.502,0.566
		l-0.775,0.686l-0.03,0.005l-0.456-0.533l0.049-0.043l-0.03-0.079l0.058-0.082l-0.018-0.065l0.037-0.029l-0.007-0.07l0.028-0.029
		l-0.016-0.046l0.219-0.178l-0.091-0.101l-0.479,0.432l-1.26-1.478l-0.43-0.489l-0.607-0.689l-0.51-0.578l-0.393-0.446l-0.138-0.158
		l-0.222-0.36l-0.034,0.024l-0.808-0.955l-0.121-0.142l-0.854,0.679l-0.92,0.746l-1.217,0.965l-0.033,0.036l-0.317,0.653
		l-0.166,0.348l-0.214,0.422l-1.051,0.84l-1.653,1.329l-3.053,2.467l-0.129,0.058l-0.606,0.23l2.409,4.233l3.849-2.186l0.669,1.178
		l-3.851,2.186l0.761,1.341l-1.105,0.629l-3.93-6.884l-5.997,2.051l-0.509,0.014l0.298,0.941l-0.742,0.137l0.326,1.101l0.331-0.108
		l0.205,0.576l0.046,0.226l-0.17,0.072l0.061,0.19l0.002,0.079l0.06-0.002l0.093,0.216l-0.015,0.048l0.089,0.245l0.09,0.084
		l-0.057,0.055l0.039,0.098l0.054,0.007l0.057,0.11l-0.065,0.038l0.02,0.082l0.05-0.026l0.087,0.149l-0.075,0.06l0.123,0.319
		l0.09-0.007l0.046,0.048l-0.003,0.06l-0.088,0.096l0.114,0.276l0.058-0.029l0.083,0.163l-0.078,0.053l0.482,1.173l-0.058,0.134
		l-0.064,0.036l-0.148-0.204l-0.323-0.945l-0.296-0.89l-0.163-0.545l-0.124-0.35l-0.123-0.333l-0.119-0.307l-0.068-0.163
		l-0.848,0.25l0.225,1.092l0.02,0.264l-0.048,0.101l-0.099,0.062l-0.109,0.014l-0.085-0.024l-0.054-0.11l-0.153-0.449l-0.15-0.398
		l-0.136-0.355l-0.923,0.24l0.119,0.262l0.071,0.151l0.071,0.298l0.138,0.441l0.087,0.334l-0.016,0.108l-0.071,0.079l-0.189-0.019
		l-0.103-0.103l-0.093,0.012l-0.103-0.278l-0.106-0.216l-0.199-0.511l-0.032-0.106l-0.058-0.235l-0.023-0.048l-0.562,0.182
		l-0.388,0.127l0.006,0.089l0.064,0.348l0.125,0.379l0.252,0.806l0.292,0.811l0.196,0.641l-0.303,0.3l-0.126,0.074l-0.319-0.058
		l-0.196-0.206l-0.16-0.302l-0.123-0.367l-0.06-0.115l-0.262-0.473l-0.073-0.233l-0.259-0.662l-0.178-0.468l-0.12-0.24l-0.825,0.266
		l0.013,0.317l0.146,0.813l0.105,0.576l0.053,0.362l0.003,0.182l-0.11,0.084l-0.292,0.144l-0.14-0.038l-0.133-0.168l-0.221-0.386
		l-0.25-0.437l-0.156-0.283l-0.13-0.29l-0.063-0.185l-0.093-0.295l-0.017-0.144l-0.38,0.041l-0.43,0.046l-0.017,0.19v0.6
		l0.071,0.732l0.063,0.645l0.218,1.18l0.053,0.346l-0.036,0.132l-0.093,0.101l-0.283,0.002l-0.113-0.156l-0.053-0.223l-0.053-0.461
		l-0.043-0.463l-0.033-0.458l-0.061-0.732l-0.027-0.19l-0.063-0.314l-0.206-0.873l-0.865,0.101l0.02,0.643l-0.01,0.506l-0.083,0.466
		l-0.12,0.367l-0.219,0.151l-0.096-0.024l-0.263-0.223l0.049-0.058l0.082-0.134l0.126-0.446l0.168,0.07l0.037-0.338l0.115-0.01
		l0.011-0.074l-0.126,0.005l0.004-0.302l0.126-0.038l-0.008-0.046l-0.128,0.012l0.013-0.317l0.147-0.014l0.003-0.101l-0.235,0.019
		l-0.019-0.24l0.133-0.01l-0.099-0.751l0.272-0.036l-0.195-1.55l-1.603-0.273l-0.573,2.354l-0.053,0.218l0.055,0.012l-0.15,0.617
		l-0.037-0.01l-0.046,0.398l-0.106,0.319l-0.188,0.801l-0.364-0.053v-0.07l0.538-2.181l0.053,0.014l0.051-0.209l-0.558-0.355
		l-0.05,0.065l0.021,0.014l-0.077,0.098l-0.011-0.007l-0.203,0.355l-0.327,0.528l-0.456,0.737l-0.062-0.038l-0.037,0.046
		l0.008,0.132l-0.206,0.463l-0.156-0.07l0.016-0.156l0.054-0.017l0.185-0.36l0.001-0.074l0.229-0.317l0.239-0.333l0.004-0.05
		l0.031-0.036l0.026-0.005l0.282-0.477l0.051-0.065l0.008-0.038l0.289-0.485l-1.302-0.837l-0.33,0.552l-0.192,0.271l-0.167,0.283
		l-0.191,0.298l-0.29,0.408l-0.279,0.391l-0.283,0.47l-0.123-0.086l0.255-0.463l0.053,0.007l0.058-0.096l0.063,0.002l0.104-0.151
		l-0.03-0.026l0.107-0.13l0.025-0.062l0.079-0.048l0.023-0.058l-0.025-0.024l-0.053,0.038l-0.021-0.005l0.228-0.3l0.269-0.432
		l0.38-0.607l0.098-0.134l0.118-0.19l-0.559-0.372l-0.072,0.048l-0.786-0.523l-0.494,0.801l-2.182-2.212l-0.472-0.487l-0.476-0.612
		l-0.838-0.909l-0.093-0.082l-0.43-0.571l-0.601-0.777l-0.502-0.641l-0.071-0.103l-1.165-1.617l-0.318-0.446l-0.438-0.71
		l-0.542-0.84l-0.033,0.031l-0.435-0.696l0.025-0.017l-0.031-0.041l-0.164-0.221l-0.101-0.168l-0.326-0.537l-0.17-0.314
		l-0.219-0.413l-0.19-0.437l-0.143-0.382l-0.085-0.288l-0.083-0.331l-0.037,0.002l-0.089-0.386l-0.051-0.295l-0.034-0.221
		l-0.418,0.038l0.016,0.206l-0.453,0.036l-0.025-0.23l-0.025-0.233l0.467-0.041l0.021,0.185l0.407-0.043l-0.048-0.561l0.042-0.002
		l-0.017-0.314l0.011-0.343l0.035-0.348l0.032-0.178l0.061-0.302l-0.044-0.05l-0.003-0.06l0.044-0.067l0.04-0.014l0.03,0.007
		l0.229-0.859l-0.914-0.273l-0.25,0.835l0.429,0.13l-0.167,0.557l-0.107,0.07l-0.082-0.132l0.121-0.372l-0.424-0.12l-0.124,0.434
		l-0.049-0.014l0.45-1.425l-2.456,0.427l-0.863-1.428l4.656-0.813l0.145-0.463l-0.207-0.019l-0.066,0.038l-0.042-0.012l-0.05,0.017
		l-0.014-0.026l0.028-0.019l-0.127-0.07l-0.148,0.029l-0.169-0.01l-0.045,0.036l-0.129-0.031l-0.061,0.046l-0.066-0.022
		l-0.066,0.017l-0.005,0.038l-0.068-0.031l-0.058,0.022l-0.034,0.026l-0.092-0.017l-0.045,0.022l-0.253,0.05l-0.034-0.041
		l-0.126,0.019l-0.011,0.038l-0.103,0.007l-0.04,0.034l-0.042-0.031l-0.037-0.017l-0.039,0.06l-0.066-0.038l-0.076,0.094
		l-0.045-0.007l-0.046-0.034l-0.196,0.439l-3.056-0.888l-0.1-0.053l-0.156-0.237l-1.694-6.946l-0.004-0.125l0.49-2.567l0.407-2.157
		l0.083-0.13l0.045-0.022l0.103-0.05l0.134,0.002l0.325,0.089l0.032-0.113l0.034-0.089l0.044-0.053l0.071-0.108l0.1-0.115
		l0.103-0.079l0.122-0.079l0.135-0.067l0.144-0.053l0.142-0.029l0.149,0.005l0.139,0.005l0.101,0.01l0.203,0.084l0.137,0.086
		l-0.098,0.149l-0.147-0.082l-0.11-0.043l-0.042-0.012l-0.015,0.127l-0.159-0.012l-0.139,0.012l-0.12,0.01l-0.046,0.022l0.049,0.142
		l-0.098,0.029l-0.083,0.062l-0.105,0.089l-0.076,0.113l-0.039,0.062l-0.002,0.07l0.154,0.022l0.051-0.086l0.093-0.079l0.137-0.058
		l0.078,0.005l0.115-0.022l0.066-0.041l0.125,0.005l0.081,0.036l0.064,0.074l0.032,0.043l0.007,0.077l0.047,0.082l0.049,0.053
		l0.032,0.06l0.01,0.096l0.019,0.077l0.064-0.012l0.056-0.053l0.02-0.173l0.505-1.646l0.772-2.594l0.001-0.048l0.109-0.377
		l-1.896-0.549l0.035-0.122l-0.626-0.18l-0.128-0.101l-0.008-0.014l-0.08-0.108l-0.006-0.137l0.441-2.318l0.471-2.467l0.663-3.472
		l0.52-2.769l0.315-1.62l0.487-2.57l0.14-0.756l0.263-1.684l0.276-2.207l0.23-1.514l0.2-1.478l0.421-2.781l0.07-0.074l0.086-0.005
		l0.048,0.024l-0.005,0.324l-0.322,2.351l4.793,1.008l0.325-1.6l-0.194-0.494l-0.106-0.542l-0.001-0.571l0.11-0.564l0.147-0.362
		l0.059-0.142l0.261-0.396l0.349-0.377l0.292-1.651l-0.901-0.178l-1.506-0.295l-2.726-0.533l-0.308,2.327l-0.063,0.492l-0.009,0.017
		l-0.012,0.017l-0.014,0.012l-0.016,0.012l-0.018,0.007l-0.019,0.005l-0.019,0.002l-0.019-0.002l-0.018-0.002l-0.017-0.007
		l-0.016-0.01l-0.014-0.012l-0.012-0.012l-0.01-0.014l-0.008-0.017l0.074-0.53l0.361-2.599l0.331-2.373l0.525-3.798l0.106-0.722
		l0.002-0.017l0.231-1.663l0.251-1.809l0.584-4.173l0.565-4.062l0.489-3.515l0.623-4.484l0.065-0.132l0.142-0.091l0.12,0.002
		l2.783,0.482l0.013-0.074l1.121,0.187l-0.007,0.089l0.488,0.086l2.242,0.389l0.018-0.127l0.026-0.185l0.026-0.086l0.053-0.065
		l0.103-0.041l0.988,0.146l6.069,1.073l0.592-3.246l-0.018-0.089l0.17-1.032l0.077-0.47l0.231-1.447l-0.009-0.058l0.198-1.257
		l-2.225-0.358l0.168-1.168l-2.366-0.353l-0.022,0.098l-1.078-0.151l-0.01,0.046l-5.324-0.84v-0.058l-0.571-0.089l0.003-0.175
		l-2.712-0.394l0.297-1.876l7.369,1.145l3.985,0.636l2.117,0.334l0.418-2.865l-11.399-1.816l0.295-1.804l10.031,1.552l0.179-1.178
		l-0.559-0.086l-0.033,0.098l-1.521-0.24l0.08-0.374l0.221,0.031l0.001,0.046l1.245,0.151l-0.01,0.086l0.593,0.096l0.035-0.24
		l2.302,0.276l0.192-1.48l0.494-3.256l0.571-3.582l0.555-3.484l0.531-3.335l0.615-4.007l0.65-4.228l0.004-0.024l-1.243-0.566
		l-1.457-0.302l-7.334-0.977l-2.698-0.353L127.183,445l-0.167-0.226l0.064-0.477l0.073-0.686l0.113-0.703l0.08-0.446l3.328,0.458
		l3.626,0.468l4.369,0.545l3.27,0.386l0.648-9.542l-12.253-1.255l0.188-0.852l0.512-4.828l0.579-5.982l-0.039-0.122l0.2-0.166
		l0.091,0.062l11.626,1.243l0.295-4.293l0.073-1.073l0.319-4.648l0.214-3.681l-2.117-0.11l-10.353-0.214l0.011-1.416l12.612,0.187
		l0.022-0.288l0.111-0.007l0.108-0.024l0.103-0.041l0.096-0.058l0.086-0.07l0.074-0.084l0.054-0.098l0.037-0.108l0.018-0.11
		l-0.001-0.113l-0.019-0.113l-0.038-0.106l-0.055-0.098l-0.071-0.089l-0.11-0.096l-0.125-0.077l-0.137-0.055l0.137-2.167
		l-4.828-0.302l0.068-1.473l4.838,0.295l0.104-1.418l0.322-4.362l0.27-3.673l-0.14-0.041l0.03-0.245l-0.072-0.062l-0.067-0.082
		l-0.053-0.094l-0.037-0.098l-0.02-0.106l-0.003-0.106l0.014-0.106l0.032-0.101l0.048-0.094l0.061-0.084l0.073-0.072l0.084-0.06
		l0.004-0.252l0.143,0.012l0.208-3.357l0.214-3.342l0.16-2.505l-2.487-0.154l0.078-1.133l-0.085-0.072l-0.073-0.084l-0.059-0.094
		l-0.045-0.103l-0.028-0.108l0.096-0.012h0.097l0.096,0.012l0.056,0.012l0.012-0.046l2.432,0.17l0.105-1.814l0.145-2.522
		l-0.43,0.002l-0.229-0.067l-0.782,0.055l-2.612-0.216l-0.393-0.238l-0.391-0.022l-0.031-0.038l0.004-1.111l-0.189-0.146l0.023-0.3
		l0.296,0.031l0.113-1.699l0.051-0.53l0.221-3.275l-2.838-0.118l0.015-0.365l-2.052-0.12l-0.008-0.274l0.349,0.031v0.036
		l4.476,0.259l0.409-0.199l2.672,0.206l4.428,0.216l0.548-0.437l0.022-0.084l-0.101-0.166l-0.009-0.173l0.07-0.125l0.157-0.391
		l0.21-1.348l0.268-1.91l0.277-1.972l0.351-2.217l0.157-1.089l0.252-2.087l-0.605-0.072l-0.002-0.074l-1.545-0.204l0.211-1.641
		l-0.066-0.031l-10.325-1.356l-0.073-0.084l-0.044-0.146l0.237-1.812l0.086-0.132l0.196-0.094l0.176,0.024l10.043,1.389l0.095-0.106
		l0.207-1.476l0.178,0.014l1.435,0.187l0.577,0.086l0.397-2.793l0.306-2.243l-0.008-0.125l-0.855-0.149l-2.585-0.449l-0.154-0.026
		l0.22-1.56l-1.459-0.204l-0.072,0.053l-0.015,0.11l-0.022,0.166l-0.029,0.214l-0.033,0.245l-0.037,0.276l-0.024,0.18l-0.032,0.238
		l-0.032,0.238l-0.037,0.274l0.046,0.06l0.478,0.055l-0.011,0.091l-1.205-0.137l0.013-0.118l0.452,0.053l0.062-0.048l0.06-0.444
		l0.039-0.286l0.024-0.178l0.036-0.264l0.028-0.202l0.038-0.278l0.023-0.173l0.014-0.103l-0.069-0.074l-1.948-0.266l-0.078,0.058
		l-0.014,0.11l-0.021,0.158l-0.026,0.199l-0.034,0.264l-0.037,0.286l-0.024,0.187l-0.012,0.089l-0.084,0.65l0.076,0.053l0.468,0.05
		l-0.01,0.091l-1.405-0.151l0.011-0.101l0.633,0.067l0.083-0.05l0.072-0.629l0.018-0.151l0.054-0.465l0.044-0.382l0.025-0.216
		l0.011-0.094l-0.058-0.053l-2.275-0.298l-0.051,0.06l-0.034,0.314l-0.022,0.185l-0.036,0.298l-0.027,0.223l-0.044,0.37l-0.02,0.163
		l-0.044,0.365l0.076,0.053l0.45,0.041l-0.007,0.079l-1.398-0.144l0.008-0.082l0.632,0.065l0.08-0.509l0.02-0.127l0.072-0.463
		l0.029-0.185l0.058-0.372l0.051-0.329l-0.053-0.074l-2.332-0.319l-0.227,1.956l0.051,0.106l0.463,0.041l-0.007,0.072l-0.675-0.065
		l0.252-2.135l0.018-0.149l0.016-0.134l-0.067-0.127l0.26-1.812l0.031-0.115l0.132-0.098l0.181,0.007l4.396,0.573l0.016-0.168
		l1.723,0.245v0.079l0.739,0.122l-0.006,0.103l1.972,0.269l0.047-0.362l0.044-0.333l0.024-0.19l0.046-0.35l0.022-0.168l0.047-0.362
		l0.024-0.185l0.044-0.341l0.022-0.168l0.019-0.151l0.017-0.127l0.052-0.398l-8.84-1.245l-0.138-0.062l-0.096-0.118l0.011-0.142
		l0.226-1.816l0.087-0.094l0.114-0.034l0.158,0.024l8.968,1.197l0.431-3.196l-1.723-0.23l-0.002,0.079h-0.027l-0.003,0.091h0.073
		l-0.005,0.168l-1.679-0.206l0.022-0.18l0.21,0.026l0.021-0.17l-5.927-0.825l-0.155-0.098l-0.049-0.106l0.244-1.852l0.062-0.13
		l0.115-0.074l0.152,0.005l8.992,1.221l0.458-3.354l-0.135-0.002v0.067l-0.374-0.053l-0.012,0.079l-1.39-0.185l-0.004-0.041
		l-0.437-0.058l0.018-0.137l-6.713-0.919l-0.113-0.065l-0.085-0.113v-0.101l0.271-1.761l0.066-0.086l0.098-0.043l0.126-0.01
		l4.602,0.641l1.574-5.557l1.256-0.082l0.607-2.068l-6.406-3.489l0.459-1.6l6.368,3.606l1.201-4.17l-0.103-0.209l0.261-0.871
		l0.189-0.13l0.36-1.238l-0.926-0.346l-1.551-0.799l0.058-0.106l1.551,0.818l0.385,0.132l0.032-0.089l-1.327-0.645l0.048-0.072
		l-0.332-0.187l-0.042,0.036l-0.238-0.113l0.006-0.014l0.197-0.386l0.246,0.134l-0.042,0.067l0.321,0.175l0.058-0.106l0.988,0.542
		l0.333,0.185l0.039-0.086l-0.34-0.154l-2.755-1.514l0.053-0.096l3.458,1.9l0.214-0.746l-1.594-0.893l0.061-0.108l-0.149-0.077
		l-0.05,0.089l-4.129-2.255l0.079-0.118l-0.175-0.098l-0.07,0.125l-0.343-0.192l0.287-0.513l-0.205-0.115l0.209-0.374l0.53,0.295
		l-0.402,0.72l0.201,0.103l0.032-0.046l4.075,2.267l-0.026,0.046l0.18,0.103l0.424-0.758l1.362,0.768l1.393-4.852l0.444-1.533
		l0.667-2.301l0.486-1.658l-0.507-0.293l0.602-1.039l0.507,0.288l0.723-1.32l0.036-0.065l-0.524-0.288l0.578-1.053l0.518,0.286
		l0.756-1.329l0.623-1.13l0.421-0.753l0.51-0.933l1.516-2.754l0.412-0.746l0.559-1.058l0.175-0.333l0.466-0.907l1.591-2.858
		l0.843,0.487l1.662-3.093l-0.667-0.398l-1.267-0.775l1.01-1.759l-7.873-4.3l-0.12-0.086l-0.068-0.149l0.028-0.151l1.931-3.443
		l0.092-0.091l0.126-0.01l0.132,0.017l0.523,0.257l7.372,4.057l1.216-2.231l1.217,0.677l0.411-0.725l-1.113-0.617l-0.68-0.393
		l0.181-0.331l0.219-0.401l-0.392-0.271l-0.06,0.06l-0.241-0.19l0.204-0.259l0.237,0.185l-0.049,0.062l0.37,0.276l0.082-0.168
		l1.803,1.001l0.393-0.751l-1.45-0.84l0.419-0.696l0.968-1.706l0.827-1.485l1.024-1.872l1.411,0.801l1.839-3.294l-8.999-5.082
		l-0.053-0.082l0.007-0.086l0.435-0.753l0.091-0.058l0.111,0.022l8.954,5.051l1.68-3.03l1.039-1.876l-9.057-5.022l0.591-1.044
		l9.065,4.964l1.681-3.052l-8.864-4.888l0.821-1.522l-0.462-0.262l-0.297,0.087l-0.112,0.198l-0.248-0.136l0.273-0.495l0.038-0.031
		l0.043-0.024l0.046-0.017l0.048-0.009l0.049-0.001l0.048,0.007l8.247,4.585l1.354,0.713l3.274,1.867l1.175-0.869l0.065,0.053
		l0.427-0.789l0.29-0.535l0.054-0.094l1.15-2.042l-12.719-7.07l-0.055-0.195l0.94-1.692l0.133-0.085l11.502,6.381l0.373,0.211
		l0.911,0.499l1.256-2.299l-0.095-0.4l-0.143-0.067l-0.124-0.1l-0.086-0.176l-0.038-0.2l0.029-0.181l0.086-0.153l0.138-0.124
		l0.181-0.086l0.434-0.114l0.181-0.1l0.148-0.186l0.178-0.359l0.273-0.552l0.083-0.167l-0.044-0.083l-13.277-7.375l-0.127-0.174
		l0.047-0.103l0.682-1.251l0.122-0.103l0.202-0.009l0.085,0.052l12.774,7.216l0.035-0.062l0.332,0.181l1.407-2.556l1.398-2.54
		l-13.235-7.389l-0.089-0.092l0.003-0.133l0.792-1.387l0.152-0.044l0.13,0.044l13.152,7.367l1.384-2.528l1.461-2.668l-13.319-7.362
		l-0.031-0.175l0.736-1.31l0.161-0.09l0.175,0.018l9.776,5.525l0.185-0.337l-0.505-0.278l0.568-0.972l0.479,0.263l1.31-2.383
		l-9.999-5.563l1.078-1.938l9.971,5.496l1.764-3.223l-0.557-0.291l0.473-0.848l0.543,0.313l1.395-2.555l-1.351-0.691l0.195-0.349
		l-0.363-0.304l-0.078,0.14l-0.391-0.221l-0.062,0.122l-0.3-0.173l0.415-0.765l0.03,0.017l0.156-0.279l0.257,0.127l-0.15,0.288
		l0.4,0.23l-0.087,0.131l0.495,0.155l0.027-0.062l1.293,0.755l0.74-1.364l0.545,0.054l0.133-0.046l0.091-0.101l0.045-0.094
		l-0.008-0.163l-0.339-0.489l0.125-0.203l0.006-0.072l-8.536-4.734l0.816-1.471l8.546,4.755l1.34-2.397l-4.113-2.279l-3.154-1.747
		l0.443-0.784l7.243,4.02l0.375-0.009l0.352,0.21l1.352-2.381l-0.23-0.128l-0.015,0.003l-0.29,0.057l-0.204,0.331l-0.446-0.221
		l-0.06,0.119l-0.671-0.365l0.081-0.127l-0.387-0.245l0.236-0.439l0.1-0.186l-2.969-1.74l-0.195,0.359l-0.075,0.137l0.307,0.163
		l-0.148,0.326l-4.847-2.638l0.182-0.335l0.356,0.193l0.003-0.006l0.182-0.372l-0.26-0.142l-0.006-0.003l0.009-0.015l0.112-0.188
		l-0.08-0.046l-0.249-0.143l0.343-0.531l0.179,0.093l1.95,1.061l6.658,3.702l0.301-0.482l0.161-0.601l0.226-0.548l0.279-0.419
		l0.312-0.376l0.387-0.44l0.344-0.3l0.129-0.172l0.215-0.666l2.997-5.609l0.183,0.097l0.204-0.247l0.236-0.118l0.268,0.032
		l0.557-0.525l0.847-2.044l-0.27-0.061l-0.413,0.144l-0.417,0.071l-0.132-0.177l-0.099-0.296l1.215-2.286l0.28-0.479l2.399-4.318
		l2.045-3.681l0.801,0.034l1.361-0.131l1.2-2.203l1.841-3.38l1.823-3.347l0.001-0.002l0.101-0.186l0.369-0.643l0.882-1.528
		l-0.013-0.111l-1.413,0.085l-0.239-0.137l-0.534-0.076l-0.364,0.068l-0.399,0.144l-0.339,0.11l-0.297,0.034l-0.365-0.051
		l-0.415-0.085l-0.39-0.06l-0.398,0.042l-0.348,0.093l-0.458,0.11l-0.386-0.017l-0.314-0.017l-0.466-0.042l-0.5,0.025l-0.517,0.136
		l-0.364,0.034l-0.39-0.068l-0.407-0.093l-0.348-0.009l-0.051,0.11l-0.161,0.11l-0.11-0.008l-0.153,0.246l-0.78,0.06l0.534-0.967
		l10.315-0.663l-0.218-0.414l0.055-0.552l0.059-0.197v-0.141l-0.031-0.556l2.19-4.044l0.605-1.35l0.089,0.041l0.269-0.751
		l0.026-0.073l0.042-0.12l0.351-0.986l-0.24-0.091l0.097-0.257l0.238,0.09l0.233-0.733l0.167-0.335l0.173-0.314l5.709-10.844
		l0.907-1.726l0.561-1.072l2.025-3.765l0.612-1.172l-2.879-3.79l-1.152,0.799l-2.51,3.908l-0.19-0.111l2.529-3.968l1.356-0.914
		l0.146-0.627l0.235-0.009l0.178,0.063l-0.286,0.914l2.721,3.45l1.416-2.721l-0.477-0.239l0.115-0.25l-0.187-0.092l-0.158,0.291
		l0.05,0.019l-0.029,0.05l-0.13-0.083l0.17-0.307l-1.807-0.997l-0.137,0.247l-0.197-0.108l0.336-0.608l0.19,0.105l-0.139,0.253
		l0.226,0.125l1.67,0.921l-0.024,0.043l0.197,0.1l0.127-0.211l0.465,0.247l0.331-0.624l1.142-2.164L247,122.316l-0.605,0.769
		l-0.206-0.141l-0.026-0.184l0.557-0.695l2.757,0.156l2.099,0.008l3.762-7.12l5.487-10.388l1.872-3.545l2.013-3.812l0.417-0.789
		l1.392-2.637l1.665-3.154l0.422-0.736l1.229-2.14l0.348-0.642l3.086-5.7l4.065-7.548l2.011-3.738l3.837-7.214l1.84-3.438
		l0.465-0.868l1.85-3.52l0.199-0.343l-0.041-0.286l0.12-0.271l0.888-1.436l1.123-2.167l0.737-1.375l0.497-0.965l0.509-1.01
		l0.708-1.367l0.725-1.307l1.399-2.461l0.823-1.565l0.168-0.433l0.509-0.835l0.221-0.653l0.437-0.691l0.288-0.319l0.715-1.466
		l0.655-1.071l0.312-0.775l0.235-0.433l0.146-0.099l0.456-0.942l0.223-0.38l-0.014-0.19l1.291-2.37l1.552-2.788l0.494-1.132
		l0.398-0.479l0.547-0.524l0.077-0.365l0.358-0.782l0.372-0.592l0.038-0.289l0.686-1.276l0.617-1.041l0.744-1.4l2.613-4.469
		l1.022-1.668l1.346-2.299l0.449-0.86l0.869-1.448l1.819-3.272l0.084-0.127l0.71-1.075l0.262-0.649l0.77-1.132l0.429-0.587
		l0.053-0.387l0.329-0.93l0.158-0.404l0.753-1.439l0.35-0.553l0.149-0.219l-0.062-0.202l0.696-1.369l0.317-0.544l0.007-0.228
		l0.35-0.658l0.298-0.36l0.07-0.289l0.149-0.333l0.194-0.184v-0.246l0.31-0.763l0.578-1.334l1.104-1.957l0.362-0.711l0.158-0.149
		l0.324-0.763l0.168-0.447l0.537-1.114l0.473-0.921l0.42-0.702l0.561-1.009l0.463-0.886l0.487-0.948l0.211-0.255l0.909-1.807
		l0.367-0.684l0.545-0.913l0.686-1.33v-0.003l0.578-1.028l0.974-1.799l0.05-0.236l3.131-6.392l0.749-1.387l2.997-4.889l1.125-1.451
		l0.17-0.273l1.49-1.941l2.798-3.846l0.617-0.923l2.282-3.407l1.502-2.233l2.039-3.032l1.824-2.71l0.749,0.455l0.665-1.149H457.46"
		/>
	
		<path vector-effect="none" fill-rule="evenodd" fill="#BEB297" stroke="#69722C" stroke-width="0.7368" stroke-linecap="square" stroke-linejoin="bevel" stroke-miterlimit="10" d="
		M425.944,216.091l-3.124,2.9l-1.169,1.085l-1.48,2.201l-2.421,3.599l-1.663,2.979l-2.51,4.508l-5.687,8.245l-1.358,1.968
		l-0.202,0.293l-0.828,1.315l-1.073,1.708l-3.232,4.998l-0.192,0.298l-1.605,2.486l-1.845,2.85l-1.502,2.32l-1.157,1.783
		l-1.142,1.178l-1.507,1.507l-1.022,1.022l-3.769,5.607l-0.921,0.77l-0.919,1.094l-0.269,0.319l-1.279,2.195l-0.343,0.866
		l-0.142,1.327l-1.339,2.615l-2.363,3.062l-0.401,0.521l-0.199,0.245l-0.156,0.197l-0.156,0.178l-0.245,0.283l-2.807,3.234
		l-3.981,4.588l-0.494,0.13l-2.44,3.282l-4.597,6.433l-1.164,1.317l-2.87,3.244l-2.822,2.661l-0.314,0.211l-1.416,1.003l0.022,0.477
		l-2.162,2.587l-1.396,1.372l-1.996,1.62l-1.713,1.905l-0.072,0.07l-0.058,0.082l-0.043,0.086l-0.091,0.154l-0.115,0.139
		l-0.137,0.115l-0.084,0.074l-0.096,0.06l-0.103,0.041l-0.11,0.026l-0.11,0.005l-0.113-0.012l-0.108-0.031l-0.101-0.048
		l-0.091-0.065l-0.667,0.912l-0.857-0.655l0.619-0.842l-0.091-0.103l-0.074-0.118l-0.053-0.127l-0.029-0.134l0.012-0.096
		l0.026-0.094l0.038-0.089l0.05-0.082l0.065-0.074l0.079-0.065l0.07-0.077l0.058-0.086l0.972-2.714l1.73-3.22l2.743-3.374
		l0.492-1.425l1.298-3.789l0.288-0.811l1.972-3.422l0.365,0.173l1.905-2.071l3.165-4.676l3.198-4.727l1.756-2.591l1.944-2.874
		l1.346-1.987l0.252-0.684l0.106-0.187l0.132-0.204l0.125-0.202l0.161-0.235l0.077-0.118l0.422-0.653l1.416-2.186l4.42-6.814
		l0.264-0.204l0.252-0.451l0.137-0.218l0.346-0.619l0.204-0.12l1.178-1.308l-0.278-0.271l1.087-1.372l0.597,0.485l2.006-2.668
		l1.622-2.152l0.852-2.054l1.025-2.323l2.656-4.369l0.142-0.408l0.84-1.005l1.447-2.227l1.641-2.529l3.126-3.342l0.477,0.029
		l1.111-1.857l4.525-7.563l4.672-7.211l2.596-4.531l0.257-0.181l0.026-0.394l0.372,0.105l0.202-0.141l0.437-0.766l0.47-0.825
		l-0.595-0.365l0.259-0.583l0.645,0.372l0.091-0.166l0.559-0.054l0.358-1.848l0.269-0.511l1.495-2.788l-0.007-0.28l0.211-0.181
		l0.453-0.356l1.188-1.362l1.082-0.823l3.254-3.743l1.574-2.242l0.972-1.559l1.838-1.784l3.081-1.472l1.965-0.341l1.293-1.298
		l1.2-1.783l0.386-0.064l0.42,0.177l0.264,0.449l-0.703,1.486l-0.396,1.412l0.019,3.15l0.319,3.132l-0.115,1.479l-0.209,0.972
		l-0.307,0.933l-1.915,3.131l-1.185,2.667l-0.413,0.429l-0.166,0.137L425.944,216.091"/>
	
		<path vector-effect="none" fill-rule="evenodd" fill="#BEB297" stroke="#69722C" stroke-width="0.7368" stroke-linecap="square" stroke-linejoin="bevel" stroke-miterlimit="10" d="
		M509.115,45.685l0.821,2.016l0.42,1.125l0.792,1.353l1.06,1.844l0.912,1.313l0.166,0.254l4.384,2.644l0.374,0.225l0.326,0.193
		l0.288,0.166l0.031,0.012L519,56.988l3.791,1.924l0.314,0.094l5.183,2.697l0.943,0.927l3.844,3.324l4.146,7.483l2.587,6.176
		l0.086,3.618l-3.285,5.679l-2.232,4.095l-0.878,0.908l-0.667,0.321l-3.191,3.569l0.549,0.552l-2.824,3.496l-0.869-0.506
		l-0.11-0.064l-2.99,1.595l-1.149,0.703l-1.26,1.267l-0.528,0.582l-0.108,1.185l0.329,0.262l-13.756,19.946l-0.417-0.282
		l-0.797,1.315l-0.989,3.899l-1.692,6.574l-0.866,1.14l-3.851,3.657l-0.007,0.016l-0.199,0.361l-0.24,0.36l-0.468,0.141
		l-0.046,0.014l-0.257,0.206l-0.691,0.726l-0.785,0.406l-0.857,0.12l-0.72,0.034l-0.324-0.147l-0.055-0.025l-0.36-0.137h-0.6
		l-1.336,0.524l-5.775,5.266l-0.761,0.556l-0.895,0.215l-0.242,0.059l-0.377,0.134l-0.369,0.134l-1.279,0.374l-1.593-0.47
		l-2.774-2.152l-4.628-3.567l-1.339-0.985l-1.689-0.723l-6.586-1.586l-9.578-1.668l-1.557-2.077l-1.66-1.689l-0.689-1.243
		l-0.362-1.472l0.07-1.581l0.206-0.873l0.343-0.704l0.506-2.399l0.12-1.025l0.206-1.256l10.507-16.234l1.759-2.508l1.197-2.904
		l0.655,0.136l0.549-0.745l2.56-3.458l2.579-2.746l0.456,0.194l3.846-2.072l0.245-0.133l0.238,0.056l3.853,2.205l0.509-0.126
		l2.126,0.767l2.846,0.065l1.836,0.117l0.465,0.129l0.573,0.16l1.013,0.22l0.669-0.007l0.609-0.199l0.17-0.516l-0.014-0.582
		l-0.082-0.36l-0.014-0.471l0.18-0.457l-0.012-0.471l-0.158-0.474l-0.106-0.316l-0.166-0.721l-0.026-0.388v-0.513l-0.458-0.222
		l-0.691-0.208l-0.43-0.167l-0.084-0.167l0.221-0.208l0.957,0.097l0.54,0.167l0.888-0.152l0.665,0.097l0.523,0.188l0.197,0.007
		l0.029-0.18l-0.11-0.222l-2.287-0.016l-1.053-0.306l-0.818,0.055l-0.154,0.033l-0.29,0.063l0.151,0.513l0.25,0.222l0.25-0.014
		l0.29,0.111l0.569,0.596l0.151,0.846l-0.055,1.372l-0.334,0.734l-0.25,0.471l-0.317,0.23l-0.557,0.061l-0.149-0.032l-0.365-0.079
		l-0.473-0.055h-0.305l-0.389-0.083l-0.206,0.097h-0.307l-0.305-0.055l-0.264,0.055l-0.235,0.194h-0.29l-0.209-0.014l-0.374,0.028
		l-0.533,0.09l-0.346-0.071l-0.098-0.128l-0.036-0.166l-0.036-0.157l0.07-0.278l0.95-1.378l0.331-0.601l1.049-1.515l0.178-0.13
		l0.18-0.129l0.393-0.739l-2.709-0.363l-0.811-0.728l-1.087-1.043l-0.29-2.828l-0.022-0.329l0.005-0.33l0.026-0.329l0.05-0.326
		l0.113-0.317l0.122-0.277l3.705-6.693l0.377-1.435l0.07-0.264l0.593-1.738l0.187-0.401l0.163-0.413l0.132-0.424l0.101-0.432
		l0.072-0.438l0.041-0.442l0.012-0.444l0.072-1.722l0.058-1.343l0.002-0.094l-0.254-2.444l-0.353-1.501l-0.326-1.151l-0.274-0.782
		l-0.691,0.179l0.034,0.121l-1.32,0.413l-0.146-0.437l1.32-0.421l0.065,0.162l0.667-0.214l-0.058-0.154l-0.245,0.043l-0.66-1.623
		l-0.151-2.208l0.861-4.263l1.392-4.923l0.077-0.271l0.077-0.281l0.115-0.251l0.194-0.259l0.449-0.595l-2.248-1.315l0.542-0.915
		l0.194,0.111l-0.417,0.735l2.051,1.193l0.456-0.71l-0.77-0.472l0.024-0.043l0.048,0.022l0.017-0.037l0.744,0.429l0.146-0.22
		l-0.744-0.427l0.537-0.804l-1.193-0.721l0.058-0.138l-0.154-0.097l-0.513,0.79l-0.209-0.083l0.653-1.012l1.533,0.982l2.555-4.794
		l0.226-0.486l0.202-0.472l0.314-0.43l0.835-0.779l0.885-0.228l3.724,0.066l7.028,0.62l1.948,1.296l0.996,0.662L509.115,45.685"/>
	
		<path vector-effect="none" fill-rule="evenodd" fill="#BEB297" stroke="#69722C" stroke-width="0.7368" stroke-linecap="square" stroke-linejoin="bevel" stroke-miterlimit="10" d="
		M0.001,0"/>
	
		<path vector-effect="none" fill-rule="evenodd" fill="#BEB297" stroke="#69722C" stroke-width="0.7368" stroke-linecap="square" stroke-linejoin="bevel" stroke-miterlimit="10" d="
		M26.127,581.158l2.028,1.917l0.285-0.24l6.81,6.61l-1.576,1.632l-0.538,3.592l-3.142-0.007l-1.386,1.36l-2.413-2.299l-1.315-1.394
		l-4.022-3.923l-2.06,2.083l7.477,7.748l-7.129,6.685l-8.202-8.398l0.15-0.149l-0.08-0.086l3.885-3.942l-1.064-1.065l7.612-7.995
		l1.213,1.202l1.991-1.912l-0.32-0.329l-0.085,0.046l-0.508-0.554l0.227-0.206l0.534,0.561l-0.064,0.062l0.314,0.324L26.127,581.158
		"/>
	
		<path vector-effect="none" fill-rule="evenodd" fill="#BEB297" stroke="#69722C" stroke-width="0.7368" stroke-linecap="square" stroke-linejoin="bevel" stroke-miterlimit="10" d="
		M0.001,0"/>
	
		<path vector-effect="none" fill-rule="evenodd" fill="#BEB297" stroke="#69722C" stroke-width="0.7368" stroke-linecap="square" stroke-linejoin="bevel" stroke-miterlimit="10" d="
		M204.087,578.332l-0.849,1.502l-0.485,0.857l-0.327,0.578l-0.506-0.609l-2.877-1.274l-0.948-0.701l-0.169,0.216l-1.374-1.068
		l7.934-9.955l1.248,0.629l3.048,1.531l-0.497,0.878l-0.507,0.895l-3.391,5.994L204.087,578.332"/>
	
		<path vector-effect="none" fill-rule="evenodd" fill="#BEB297" stroke="#69722C" stroke-width="0.7368" stroke-linecap="square" stroke-linejoin="bevel" stroke-miterlimit="10" d="
		M195.579,596.339l-2.012,4.849l-8.877-4.019l2.288-4.552L195.579,596.339"/>
	
		<path vector-effect="none" fill-rule="evenodd" fill="#BEB297" stroke="#69722C" stroke-width="0.7368" stroke-linecap="square" stroke-linejoin="bevel" stroke-miterlimit="10" d="
		M197.119,592.404l-0.088,0.194l-8.142-3.772l2.217-4.59l8.053,3.664L197.119,592.404"/>
	
		<path vector-effect="none" fill-rule="evenodd" fill="#BEB297" stroke="#69722C" stroke-width="0.7368" stroke-linecap="square" stroke-linejoin="bevel" stroke-miterlimit="10" d="
		M441.185,152.976l0.593,0.426l0.434-0.168l-0.022-1.339l0.624,0.161l-0.029,1.131l0.223,1.725l-0.787,0.589l-1.812,0.531
		l-0.645-0.018l-0.881-0.409l-2.543,3.245l-0.329,0.083l-0.861,1.02l-0.218-0.262l0.614-1.263L435.3,158.1l0.48-0.563l0.286,0.147
		l0.355-0.334l1.992-2.664l-0.453-0.474l0.043-0.88l0.343-1.502l1.804-1.705l0.89-0.303l0.466,0.691l-0.331,1.251l-0.072,0.595
		L441.185,152.976"/>
	
		<path vector-effect="none" fill-rule="evenodd" fill="#BEB297" stroke="#69722C" stroke-width="0.7368" stroke-linecap="square" stroke-linejoin="bevel" stroke-miterlimit="10" d="
		M334.678,475.544l-0.139,0.194l-2.757-4.542l0.439-0.214l2.613,4.338L334.678,475.544"/>
	
		<path vector-effect="none" fill-rule="evenodd" fill="#BEB297" stroke="#69722C" stroke-width="0.7368" stroke-linecap="square" stroke-linejoin="bevel" stroke-miterlimit="10" d="
		M343.904,416.814v0.134l1.049-0.074l0.058,0.18l0.098,0.274l-1.286,0.079l-0.031-0.142l-3.676,0.245l-0.01,0.101l-1.214,0.062
		l0.01,0.358l-0.338,0.041v-0.122l-1.133,0.163l0.031,0.386l-0.439,0.072l-0.163-1.001l0.47-0.113l0.07,0.461l1.164-0.132
		l-0.05-0.533l1.572-0.113l-0.029-0.091L343.904,416.814"/>
	
		<path vector-effect="none" fill-rule="evenodd" fill="#BEB297" stroke="#69722C" stroke-width="0.7368" stroke-linecap="square" stroke-linejoin="bevel" stroke-miterlimit="10" d="
		M346.702,424.408l0.007,0.525l-0.242-0.014l-0.254,0.014l0.012-0.269l-1.161,0.158l-0.912,0.638l0.101,0.053l-0.3,0.499
		l-0.266-0.139l0.19-0.312l-0.965,0.144l-0.835,0.621l-0.266,0.482l-0.262-0.178l0.293-0.497l0.106,0.046l0.751-0.552l0.06-0.29
		l0.235,0.05l-0.026,0.118l1.049-0.175l0.965-0.72l1.444-0.166L346.702,424.408"/>
	
		<path vector-effect="none" fill-rule="evenodd" fill="#BEB297" stroke="#69722C" stroke-width="0.7368" stroke-linecap="square" stroke-linejoin="bevel" stroke-miterlimit="10" d="
		M260.806,556.269l-0.348,0.007l0.146-1.5l5.701-0.413l0.029,0.545l-5.238,0.324l-0.11,0.991L260.806,556.269"/>
	
		<path vector-effect="none" fill-rule="evenodd" fill="#BEB297" stroke="#69722C" stroke-width="0.7368" stroke-linecap="square" stroke-linejoin="bevel" stroke-miterlimit="10" d="
		M322.823,487.846l2.399,1.608l-0.142,0.257l-2.39-1.648l-0.038,0.058l-0.468-0.257l0.317-0.545l0.194-0.367l0.463,0.235
		l-0.091,0.18L322.823,487.846"/>
	
		<path vector-effect="none" fill-rule="evenodd" fill="#BEB297" stroke="#69722C" stroke-width="0.7368" stroke-linecap="square" stroke-linejoin="bevel" stroke-miterlimit="10" d="
		M326.024,483.88l2.066,1.516l-0.084,0.096l-1.891-1.411l-0.113,0.156l-1.058-0.765l0.353-0.485l0.914,0.614L326.024,483.88"/>
	
		<path vector-effect="none" fill-rule="evenodd" fill="#BEB297" stroke="#69722C" stroke-width="0.7368" stroke-linecap="square" stroke-linejoin="bevel" stroke-miterlimit="10" d="
		M332.257,474.563l1.929,1.704l-0.146,0.19l-1.905-1.785l-0.25,0.295l-0.429-0.377l0.41-0.485l0.314-0.384l0.41,0.403
		L332.257,474.563"/>
	
		<path vector-effect="none" fill-rule="evenodd" fill="#BEB297" stroke="#69722C" stroke-width="0.7368" stroke-linecap="square" stroke-linejoin="bevel" stroke-miterlimit="10" d="
		M331.451,476.804l-0.346,0.326l-2.279-1.941l0.319-0.35L331.451,476.804"/>
	
		<path vector-effect="none" fill-rule="evenodd" fill="#BEB297" stroke="#69722C" stroke-width="0.7368" stroke-linecap="square" stroke-linejoin="bevel" stroke-miterlimit="10" d="
		M209.258,569.106l-0.1,0.086l-1.629-0.768l0.62-1.495l1.269,0.924l0.74,0.48L209.258,569.106"/>
	
		<path vector-effect="none" fill-rule="evenodd" fill="#BEB297" stroke="#69722C" stroke-width="0.7368" stroke-linecap="square" stroke-linejoin="bevel" stroke-miterlimit="10" d="
		M334.736,336.338l-0.25,0.334l-0.259-0.022l-0.163,0.271l-0.276,0.453l-0.561-0.235l-0.017-0.329l0.17-0.259l0.283-0.41
		l0.413-0.341l0.149-0.163l0.266-0.089l0.228-0.458l0.23-0.154l0.142,0.108l-0.036,0.175l-0.317,0.782L334.736,336.338"/>
	
		<path vector-effect="none" fill-rule="evenodd" fill="#BEB297" stroke="#69722C" stroke-width="0.7368" stroke-linecap="square" stroke-linejoin="bevel" stroke-miterlimit="10" d="
		M342.308,456.277l1.461,1.161l-0.266,0.6l-1.61-1.346l-0.017-0.233l0.115-0.132l0.216,0.031L342.308,456.277"/>
	
		<path vector-effect="none" fill-rule="evenodd" fill="#BEB297" stroke="#69722C" stroke-width="0.7368" stroke-linecap="square" stroke-linejoin="bevel" stroke-miterlimit="10" d="
		M451.311,200.693l-0.36,0.87l0.549,0.214l-0.18,0.467l-1.164-0.464l0.17-0.447l0.453,0.173l0.365-0.881L451.311,200.693"/>
	
		<path vector-effect="none" fill-rule="evenodd" fill="#BEB297" stroke="#69722C" stroke-width="0.7368" stroke-linecap="square" stroke-linejoin="bevel" stroke-miterlimit="10" d="
		M335.552,474.104l-0.163,0.434l-1.26-1.032l0.271-0.338L335.552,474.104"/>
	
		<path vector-effect="none" fill-rule="evenodd" fill="#BEB297" stroke="#69722C" stroke-width="0.7368" stroke-linecap="square" stroke-linejoin="bevel" stroke-miterlimit="10" d="
		M361.52,326.673l0.578,0.374l-0.103,0.175l-0.602-0.372l-0.242,0.425l-0.461-0.235l0.614-1.056l0.456,0.25L361.52,326.673"/>
	
		<path vector-effect="none" fill-rule="evenodd" fill="#BEB297" stroke="#69722C" stroke-width="0.7368" stroke-linecap="square" stroke-linejoin="bevel" stroke-miterlimit="10" d="
		M210.285,564.794l-0.461,0.883l-0.114-0.05l-0.078,0.142l-0.406-0.199l0.6-1.073l0.186,0.12L210.285,564.794"/>
	
		<path vector-effect="none" fill-rule="evenodd" fill="#BEB297" stroke="#69722C" stroke-width="0.7368" stroke-linecap="square" stroke-linejoin="bevel" stroke-miterlimit="10" d="
		M349.792,349.715l-0.209,0.405l-0.42-0.115l0.094-0.425L349.792,349.715"/>
	
		<path vector-effect="none" fill-rule="evenodd" fill="#BEB297" stroke="#69722C" stroke-width="0.7368" stroke-linecap="square" stroke-linejoin="bevel" stroke-miterlimit="10" d="
		M0.001,0"/>
</g>
<style>
#g-NYC-consulate1-_1-manhattan-img rect, #g-NYC-consulate1-_1-manhattan-img circle, #g-NYC-consulate1-_1-manhattan-img path, #g-NYC-consulate1-_1-manhattan-img line, #g-NYC-consulate1-_1-manhattan-img polyline, #g-NYC-consulate1-_1-manhattan-img polygon { vector-effect: non-scaling-stroke; }
</style>
</svg>

