<?xml version="1.0" encoding="utf-8"?>
<!-- Generator: Adobe Illustrator 27.7.0, SVG Export Plug-In . SVG Version: 6.00 Build 0)  -->
<svg version="1.2" baseProfile="tiny" id="g-NYC-consulate2-_1-Asia-Oceania-img"
	 xmlns="http://www.w3.org/2000/svg" xmlns:xlink="http://www.w3.org/1999/xlink" x="0px" y="0px" viewBox="0 0 841.68 595.199"
	 overflow="visible" xml:space="preserve">
<g>
	<rect x="0.001" fill-rule="evenodd" fill-opacity="0" width="841.709" height="595.051"/>
	<path vector-effect="non-scaling-stroke" fill-rule="evenodd" fill="#377EB8" d="M603.219,491.238c0,2.191-1.776,3.966-3.969,3.966
		c-2.191,0-3.966-1.776-3.966-3.966c0-2.191,1.776-3.969,3.966-3.969C601.443,487.27,603.219,489.048,603.219,491.238"/>
	<path vector-effect="non-scaling-stroke" fill-rule="evenodd" fill="#377EB8" d="M656.814,470.385c0,2.191-1.778,3.966-3.969,3.966
		c-2.191,0-3.969-1.776-3.969-3.966c0-2.193,1.778-3.969,3.969-3.969C655.036,466.417,656.814,468.192,656.814,470.385"/>
	<path vector-effect="non-scaling-stroke" fill-rule="evenodd" fill="#377EB8" d="M661.832,507.372c0,2.193-1.776,3.969-3.969,3.969
		c-2.191,0-3.966-1.776-3.966-3.969c0-2.191,1.776-3.966,3.966-3.966C660.056,503.406,661.832,505.181,661.832,507.372"/>
	<path vector-effect="non-scaling-stroke" fill-rule="evenodd" fill="#377EB8" d="M360.7,347.574c0,2.193-1.778,3.969-3.969,3.969
		c-2.191,0-3.966-1.776-3.966-3.969c0-2.191,1.776-3.966,3.966-3.966C358.922,343.608,360.7,345.384,360.7,347.574"/>
	<path vector-effect="non-scaling-stroke" fill-rule="evenodd" fill="#377EB8" d="M552.016,478.836c0,2.191-1.776,3.966-3.966,3.966
		c-2.193,0-3.969-1.776-3.969-3.966c0-2.193,1.776-3.969,3.969-3.969C550.24,474.867,552.016,476.643,552.016,478.836"/>
	<path vector-effect="non-scaling-stroke" fill-rule="evenodd" fill="#377EB8" d="M656.095,282.16c0,2.191-1.778,3.969-3.969,3.969
		c-2.191,0-3.966-1.778-3.966-3.969c0-2.191,1.776-3.966,3.966-3.966C654.317,278.194,656.095,279.969,656.095,282.16"/>
	<path vector-effect="non-scaling-stroke" fill-rule="evenodd" fill="#377EB8" d="M676.588,251.464c0,2.193-1.776,3.969-3.966,3.969
		c-2.193,0-3.969-1.776-3.969-3.969c0-2.191,1.776-3.966,3.969-3.966C674.812,247.498,676.588,249.274,676.588,251.464"/>
	<path vector-effect="non-scaling-stroke" fill-rule="evenodd" fill="#377EB8" d="M639.565,502.708c0,2.193-1.776,3.969-3.966,3.969
		c-2.193,0-3.969-1.776-3.969-3.969c0-2.191,1.776-3.966,3.969-3.966C637.79,498.741,639.565,500.517,639.565,502.708"/>
	<path vector-effect="non-scaling-stroke" fill-rule="evenodd" fill="#377EB8" d="M615.701,424.384c0,2.191-1.778,3.966-3.969,3.966
		s-3.966-1.776-3.966-3.966s1.776-3.969,3.966-3.969S615.701,422.193,615.701,424.384"/>
	<path vector-effect="non-scaling-stroke" fill-rule="evenodd" fill="#377EB8" d="M563.917,440.724c0,2.191-1.776,3.969-3.969,3.969
		c-2.191,0-3.966-1.778-3.966-3.969c0-2.191,1.776-3.966,3.966-3.966C562.141,436.758,563.917,438.533,563.917,440.724"/>
	<path vector-effect="non-scaling-stroke" fill-rule="evenodd" fill="#377EB8" d="M656.613,493.489c0,2.193-1.776,3.969-3.966,3.969
		c-2.193,0-3.969-1.776-3.969-3.969c0-2.191,1.776-3.966,3.969-3.966C654.837,489.523,656.613,491.298,656.613,493.489"/>
	<path vector-effect="non-scaling-stroke" fill-rule="evenodd" fill="#377EB8" d="M712.274,184.64c0,2.191-1.776,3.967-3.966,3.967
		c-2.193,0-3.969-1.776-3.969-3.967c0-2.191,1.776-3.968,3.969-3.968C710.499,180.673,712.274,182.449,712.274,184.64"/>
	<path vector-effect="non-scaling-stroke" fill-rule="evenodd" fill="#377EB8" d="M649.012,499.548c0,2.191-1.776,3.966-3.966,3.966
		c-2.193,0-3.969-1.776-3.969-3.966c0-2.193,1.776-3.969,3.969-3.969C647.236,495.579,649.012,497.355,649.012,499.548"/>
	<path vector-effect="non-scaling-stroke" fill-rule="evenodd" fill="#377EB8" d="M715.295,180.226c0,2.191-1.778,3.967-3.969,3.967
		c-2.191,0-3.966-1.776-3.966-3.967s1.776-3.968,3.966-3.968C713.517,176.258,715.295,178.034,715.295,180.226"/>
	<path vector-effect="non-scaling-stroke" fill-rule="evenodd" fill="#377EB8" d="M651.411,442.797c0,2.191-1.778,3.966-3.969,3.966
		c-2.191,0-3.966-1.776-3.966-3.966s1.776-3.969,3.966-3.969C649.633,438.828,651.411,440.606,651.411,442.797"/>
	<path vector-effect="non-scaling-stroke" fill-rule="evenodd" fill="#377EB8" d="M562.88,479.645c0,2.193-1.778,3.969-3.969,3.969
		c-2.191,0-3.966-1.776-3.966-3.969c0-2.191,1.776-3.966,3.966-3.966C561.102,475.678,562.88,477.454,562.88,479.645"/>
	<path vector-effect="non-scaling-stroke" fill-rule="evenodd" fill="#377EB8" d="M661.263,279.182c0,2.193-1.776,3.969-3.969,3.969
		c-2.191,0-3.966-1.776-3.966-3.969c0-2.191,1.776-3.966,3.966-3.966C659.487,275.216,661.263,276.991,661.263,279.182"/>
	<path vector-effect="non-scaling-stroke" fill-rule="evenodd" fill="#377EB8" d="M564.735,427.508c0,2.191-1.776,3.966-3.966,3.966
		c-2.193,0-3.969-1.776-3.969-3.966s1.776-3.969,3.969-3.969C562.96,423.539,564.735,425.317,564.735,427.508"/>
	<path vector-effect="non-scaling-stroke" fill-rule="evenodd" fill="#377EB8" d="M656.702,471.34c0,2.193-1.776,3.969-3.966,3.969
		c-2.193,0-3.969-1.776-3.969-3.969c0-2.191,1.776-3.966,3.969-3.966C654.926,467.374,656.702,469.15,656.702,471.34"/>
	<path vector-effect="non-scaling-stroke" fill-rule="evenodd" fill="#377EB8" d="M648.088,350.509c0,2.191-1.776,3.966-3.966,3.966
		c-2.193,0-3.969-1.776-3.969-3.966c0-2.193,1.776-3.969,3.969-3.969C646.312,346.54,648.088,348.316,648.088,350.509"/>
	<path vector-effect="non-scaling-stroke" fill-rule="evenodd" fill="#377EB8" d="M645.792,492.921c0,2.191-1.776,3.966-3.966,3.966
		c-2.193,0-3.969-1.776-3.969-3.966c0-2.191,1.776-3.969,3.969-3.969C644.016,488.952,645.792,490.73,645.792,492.921"/>
	<path vector-effect="non-scaling-stroke" fill-rule="evenodd" fill="#377EB8" d="M700.205,433.816c0,2.191-1.776,3.969-3.966,3.969
		c-2.191,0-3.969-1.778-3.969-3.969c0-2.191,1.778-3.966,3.969-3.966C698.43,429.85,700.205,431.625,700.205,433.816"/>
	<path vector-effect="non-scaling-stroke" fill-rule="evenodd" fill="#377EB8" d="M672.931,485.95c0,2.193-1.776,3.969-3.966,3.969
		c-2.193,0-3.969-1.776-3.969-3.969c0-2.191,1.776-3.966,3.969-3.966C671.156,481.984,672.931,483.76,672.931,485.95"/>
	<path vector-effect="non-scaling-stroke" fill-rule="evenodd" fill="#377EB8" d="M665.836,466.834c0,2.193-1.776,3.969-3.966,3.969
		c-2.193,0-3.969-1.776-3.969-3.969c0-2.191,1.776-3.966,3.969-3.966C664.061,462.868,665.836,464.644,665.836,466.834"/>
	<path vector-effect="non-scaling-stroke" fill-rule="evenodd" fill="#377EB8" d="M636.396,498.665c0,2.191-1.778,3.966-3.969,3.966
		c-2.191,0-3.966-1.776-3.966-3.966c0-2.191,1.776-3.969,3.966-3.969C634.618,494.696,636.396,496.474,636.396,498.665"/>
</g>
<style>
#g-NYC-consulate2-_1-Asia-Oceania-img rect, #g-NYC-consulate2-_1-Asia-Oceania-img circle, #g-NYC-consulate2-_1-Asia-Oceania-img path, #g-NYC-consulate2-_1-Asia-Oceania-img line, #g-NYC-consulate2-_1-Asia-Oceania-img polyline, #g-NYC-consulate2-_1-Asia-Oceania-img polygon { vector-effect: non-scaling-stroke; }
</style>
</svg>

