<?xml version="1.0" encoding="utf-8"?>
<!-- Generator: Adobe Illustrator 27.7.0, SVG Export Plug-In . SVG Version: 6.00 Build 0)  -->
<svg version="1.2" baseProfile="tiny" id="g-NYC-consulate2-_1-Europe-img"
	 xmlns="http://www.w3.org/2000/svg" xmlns:xlink="http://www.w3.org/1999/xlink" x="0px" y="0px" viewBox="0 0 841.68 595.199"
	 overflow="visible" xml:space="preserve">
<g>
	<rect x="0.001" fill-rule="evenodd" fill-opacity="0" width="841.709" height="595.051"/>
	<path vector-effect="non-scaling-stroke" fill-rule="evenodd" fill="#327230" d="M810.446,211.729c0,2.191-1.776,3.967-3.966,3.967
		c-2.193,0-3.969-1.776-3.969-3.967c0-2.191,1.776-3.968,3.969-3.968C808.67,207.761,810.446,209.537,810.446,211.729"/>
	<path vector-effect="non-scaling-stroke" fill-rule="evenodd" fill="#327230" d="M696.09,251.635c0,2.191-1.778,3.966-3.969,3.966
		s-3.966-1.776-3.966-3.966s1.776-3.969,3.966-3.969S696.09,249.444,696.09,251.635"/>
	<path vector-effect="non-scaling-stroke" fill-rule="evenodd" fill="#327230" d="M621.524,473.481c0,2.191-1.776,3.966-3.969,3.966
		c-2.191,0-3.966-1.776-3.966-3.966c0-2.193,1.776-3.969,3.966-3.969C619.749,469.512,621.524,471.287,621.524,473.481"/>
	<path vector-effect="non-scaling-stroke" fill-rule="evenodd" fill="#327230" d="M657.837,458.568c0,2.191-1.778,3.969-3.969,3.969
		s-3.966-1.778-3.966-3.969s1.776-3.966,3.966-3.966S657.837,456.378,657.837,458.568"/>
	<path vector-effect="non-scaling-stroke" fill-rule="evenodd" fill="#327230" d="M680.578,316.622c0,2.193-1.778,3.969-3.969,3.969
		c-2.191,0-3.969-1.776-3.969-3.969c0-2.191,1.778-3.966,3.969-3.966C678.8,312.656,680.578,314.432,680.578,316.622"/>
	<path vector-effect="non-scaling-stroke" fill-rule="evenodd" fill="#327230" d="M645.189,493.086c0,2.191-1.776,3.966-3.969,3.966
		c-2.191,0-3.966-1.776-3.966-3.966s1.776-3.969,3.966-3.969C643.414,489.117,645.189,490.895,645.189,493.086"/>
	<path vector-effect="non-scaling-stroke" fill-rule="evenodd" fill="#327230" d="M789.477,260.124c0,2.193-1.778,3.969-3.969,3.969
		c-2.191,0-3.966-1.776-3.966-3.969c0-2.191,1.776-3.966,3.966-3.966C787.699,256.157,789.477,257.933,789.477,260.124"/>
	<path vector-effect="non-scaling-stroke" fill-rule="evenodd" fill="#327230" d="M612.399,486.526c0,2.193-1.776,3.969-3.969,3.969
		c-2.191,0-3.966-1.776-3.966-3.969c0-2.191,1.776-3.966,3.966-3.966C610.624,482.56,612.399,484.335,612.399,486.526"/>
	<path vector-effect="non-scaling-stroke" fill-rule="evenodd" fill="#327230" d="M664.764,466.697c0,2.191-1.776,3.969-3.966,3.969
		c-2.193,0-3.969-1.778-3.969-3.969s1.776-3.969,3.969-3.969C662.988,462.729,664.764,464.507,664.764,466.697"/>
	<path vector-effect="non-scaling-stroke" fill-rule="evenodd" fill="#327230" d="M599.783,512.272c0,2.191-1.778,3.969-3.969,3.969
		c-2.191,0-3.969-1.778-3.969-3.969s1.778-3.966,3.969-3.966C598.005,508.305,599.783,510.081,599.783,512.272"/>
	<path vector-effect="non-scaling-stroke" fill-rule="evenodd" fill="#327230" d="M699.349,195.767c0,2.191-1.776,3.967-3.969,3.967
		c-2.191,0-3.966-1.776-3.966-3.967s1.776-3.968,3.966-3.968C697.573,191.8,699.349,193.576,699.349,195.767"/>
	<path vector-effect="non-scaling-stroke" fill-rule="evenodd" fill="#327230" d="M612.694,474.131c0,2.193-1.778,3.969-3.969,3.969
		c-2.191,0-3.969-1.776-3.969-3.969c0-2.191,1.778-3.966,3.969-3.966C610.916,470.165,612.694,471.94,612.694,474.131"/>
	<path vector-effect="non-scaling-stroke" fill-rule="evenodd" fill="#327230" d="M685.59,462.395c0,2.191-1.776,3.969-3.969,3.969
		c-2.191,0-3.966-1.778-3.966-3.969s1.776-3.966,3.966-3.966C683.815,458.429,685.59,460.205,685.59,462.395"/>
	<path vector-effect="non-scaling-stroke" fill-rule="evenodd" fill="#327230" d="M742.406,168.462c0,2.191-1.776,3.968-3.966,3.968
		c-2.193,0-3.969-1.776-3.969-3.968c0-2.191,1.776-3.967,3.969-3.967C740.63,164.494,742.406,166.27,742.406,168.462"/>
	<path vector-effect="non-scaling-stroke" fill-rule="evenodd" fill="#327230" d="M670.203,416.233c0,2.193-1.778,3.969-3.969,3.969
		c-2.191,0-3.966-1.776-3.966-3.969c0-2.191,1.776-3.966,3.966-3.966C668.425,412.267,670.203,414.043,670.203,416.233"/>
	<path vector-effect="non-scaling-stroke" fill-rule="evenodd" fill="#327230" d="M631.383,399.853c0,2.191-1.776,3.966-3.966,3.966
		c-2.191,0-3.969-1.776-3.969-3.966c0-2.191,1.778-3.969,3.969-3.969C629.608,395.884,631.383,397.662,631.383,399.853"/>
	<path vector-effect="non-scaling-stroke" fill-rule="evenodd" fill="#327230" d="M699.478,258.473c0,2.191-1.776,3.969-3.966,3.969
		c-2.193,0-3.969-1.778-3.969-3.969c0-2.191,1.776-3.969,3.969-3.969C697.703,254.504,699.478,256.282,699.478,258.473"/>
	<path vector-effect="non-scaling-stroke" fill-rule="evenodd" fill="#327230" d="M636.607,498.662c0,2.191-1.778,3.966-3.969,3.966
		c-2.191,0-3.966-1.776-3.966-3.966c0-2.193,1.776-3.969,3.966-3.969C634.829,494.694,636.607,496.469,636.607,498.662"/>
	<path vector-effect="non-scaling-stroke" fill-rule="evenodd" fill="#327230" d="M528.096,493.163c0,2.193-1.776,3.969-3.969,3.969
		c-2.191,0-3.966-1.776-3.966-3.969c0-2.191,1.776-3.966,3.966-3.966C526.321,489.197,528.096,490.972,528.096,493.163"/>
	<path vector-effect="non-scaling-stroke" fill-rule="evenodd" fill="#327230" d="M708.138,462.995c0,2.191-1.776,3.966-3.966,3.966
		c-2.193,0-3.969-1.776-3.969-3.966s1.776-3.969,3.969-3.969C706.362,459.027,708.138,460.805,708.138,462.995"/>
	<path vector-effect="non-scaling-stroke" fill-rule="evenodd" fill="#327230" d="M572.399,425.589c0,2.191-1.776,3.966-3.966,3.966
		c-2.191,0-3.969-1.776-3.969-3.966c0-2.191,1.778-3.969,3.969-3.969C570.623,421.62,572.399,423.398,572.399,425.589"/>
	<path vector-effect="non-scaling-stroke" fill-rule="evenodd" fill="#327230" d="M613.904,486.824c0,2.193-1.776,3.969-3.966,3.969
		c-2.191,0-3.969-1.776-3.969-3.969c0-2.191,1.778-3.966,3.969-3.966C612.128,482.857,613.904,484.633,613.904,486.824"/>
	<path vector-effect="non-scaling-stroke" fill-rule="evenodd" fill="#327230" d="M657.196,459.456c0,2.191-1.776,3.969-3.966,3.969
		c-2.193,0-3.969-1.778-3.969-3.969s1.776-3.966,3.969-3.966C655.42,455.49,657.196,457.265,657.196,459.456"/>
	<path vector-effect="non-scaling-stroke" fill-rule="evenodd" fill="#327230" d="M548.539,507.391c0,2.191-1.778,3.969-3.969,3.969
		c-2.191,0-3.966-1.778-3.966-3.969c0-2.191,1.776-3.966,3.966-3.966C546.761,503.425,548.539,505.201,548.539,507.391"/>
	<path vector-effect="non-scaling-stroke" fill-rule="evenodd" fill="#327230" d="M657.136,470.654c0,2.193-1.778,3.969-3.969,3.969
		c-2.191,0-3.966-1.776-3.966-3.969c0-2.191,1.776-3.966,3.966-3.966C655.358,466.688,657.136,468.463,657.136,470.654"/>
	<path vector-effect="non-scaling-stroke" fill-rule="evenodd" fill="#327230" d="M597.648,528.959c0,2.191-1.776,3.966-3.966,3.966
		c-2.191,0-3.969-1.776-3.969-3.966c0-2.191,1.778-3.969,3.969-3.969C595.872,524.991,597.648,526.769,597.648,528.959"/>
	<path vector-effect="non-scaling-stroke" fill-rule="evenodd" fill="#327230" d="M782.872,61.69c0,2.191-1.776,3.967-3.969,3.967
		c-2.191,0-3.966-1.776-3.966-3.967c0-2.191,1.776-3.968,3.966-3.968C781.096,57.723,782.872,59.499,782.872,61.69"/>
	<path vector-effect="non-scaling-stroke" fill-rule="evenodd" fill="#327230" d="M540.175,422.784c0,2.191-1.778,3.969-3.969,3.969
		c-2.191,0-3.966-1.778-3.966-3.969s1.776-3.966,3.966-3.966C538.397,418.817,540.175,420.593,540.175,422.784"/>
	<path vector-effect="non-scaling-stroke" fill-rule="evenodd" fill="#327230" d="M636.307,498.873c0,2.193-1.776,3.969-3.969,3.969
		c-2.191,0-3.966-1.776-3.966-3.969c0-2.191,1.776-3.966,3.966-3.966C634.531,494.907,636.307,496.683,636.307,498.873"/>
	<path vector-effect="non-scaling-stroke" fill-rule="evenodd" fill="#327230" d="M677.243,356.462c0,2.191-1.778,3.969-3.969,3.969
		s-3.966-1.778-3.966-3.969c0-2.191,1.776-3.966,3.966-3.966S677.243,354.271,677.243,356.462"/>
	<path vector-effect="non-scaling-stroke" fill-rule="evenodd" fill="#327230" d="M656.265,459.612c0,2.191-1.776,3.969-3.966,3.969
		s-3.969-1.778-3.969-3.969s1.778-3.966,3.969-3.966S656.265,457.421,656.265,459.612"/>
	<path vector-effect="non-scaling-stroke" fill-rule="evenodd" fill="#327230" d="M657.314,459.924c0,2.191-1.778,3.969-3.969,3.969
		c-2.191,0-3.966-1.778-3.966-3.969c0-2.191,1.776-3.966,3.966-3.966C655.536,455.958,657.314,457.733,657.314,459.924"/>
	<path vector-effect="non-scaling-stroke" fill-rule="evenodd" fill="#327230" d="M658.835,446.682c0,2.191-1.776,3.966-3.969,3.966
		c-2.191,0-3.966-1.776-3.966-3.966c0-2.193,1.776-3.969,3.966-3.969C657.059,442.713,658.835,444.489,658.835,446.682"/>
</g>
<style>
#g-NYC-consulate2-_1-Europe-img rect, #g-NYC-consulate2-_1-Europe-img circle, #g-NYC-consulate2-_1-Europe-img path, #g-NYC-consulate2-_1-Europe-img line, #g-NYC-consulate2-_1-Europe-img polyline, #g-NYC-consulate2-_1-Europe-img polygon { vector-effect: non-scaling-stroke; }
</style>
</svg>

