<?xml version="1.0" encoding="utf-8"?>
<!-- Generator: Adobe Illustrator 27.7.0, SVG Export Plug-In . SVG Version: 6.00 Build 0)  -->
<svg version="1.2" baseProfile="tiny" id="g-NYC-consulate2-_1-All_Consulates-img"
	 xmlns="http://www.w3.org/2000/svg" xmlns:xlink="http://www.w3.org/1999/xlink" x="0px" y="0px" viewBox="0 0 841.68 595.199"
	 overflow="visible" xml:space="preserve">
<g>
	<rect x="0.001" fill-rule="evenodd" fill-opacity="0" width="841.709" height="595.051"/>
	<path vector-effect="none" fill-rule="evenodd" fill="#C1C1C1" d="M603.219,491.238c0,2.191-1.776,3.966-3.969,3.966
		c-2.191,0-3.966-1.776-3.966-3.966c0-2.191,1.776-3.969,3.966-3.969C601.443,487.27,603.219,489.048,603.219,491.238"/>
	<path vector-effect="none" fill-rule="evenodd" fill="#C1C1C1" d="M656.814,470.385c0,2.191-1.778,3.966-3.969,3.966
		c-2.191,0-3.969-1.776-3.969-3.966c0-2.193,1.778-3.969,3.969-3.969C655.036,466.417,656.814,468.192,656.814,470.385"/>
	<path vector-effect="none" fill-rule="evenodd" fill="#C1C1C1" d="M661.832,507.372c0,2.193-1.776,3.969-3.969,3.969
		c-2.191,0-3.966-1.776-3.966-3.969c0-2.191,1.776-3.966,3.966-3.966C660.056,503.406,661.832,505.181,661.832,507.372"/>
	<path vector-effect="none" fill-rule="evenodd" fill="#C1C1C1" d="M360.7,347.574c0,2.193-1.778,3.969-3.969,3.969
		c-2.191,0-3.966-1.776-3.966-3.969c0-2.191,1.776-3.966,3.966-3.966C358.922,343.608,360.7,345.384,360.7,347.574"/>
	<path vector-effect="none" fill-rule="evenodd" fill="#C1C1C1" d="M552.016,478.836c0,2.191-1.776,3.966-3.966,3.966
		c-2.193,0-3.969-1.776-3.969-3.966c0-2.193,1.776-3.969,3.969-3.969C550.24,474.867,552.016,476.643,552.016,478.836"/>
	<path vector-effect="none" fill-rule="evenodd" fill="#C1C1C1" d="M656.095,282.16c0,2.191-1.778,3.969-3.969,3.969
		c-2.191,0-3.966-1.778-3.966-3.969c0-2.191,1.776-3.966,3.966-3.966C654.317,278.194,656.095,279.969,656.095,282.16"/>
	<path vector-effect="none" fill-rule="evenodd" fill="#C1C1C1" d="M676.588,251.464c0,2.193-1.776,3.969-3.966,3.969
		c-2.193,0-3.969-1.776-3.969-3.969c0-2.191,1.776-3.966,3.969-3.966C674.812,247.498,676.588,249.274,676.588,251.464"/>
	<path vector-effect="none" fill-rule="evenodd" fill="#C1C1C1" d="M639.565,502.708c0,2.193-1.776,3.969-3.966,3.969
		c-2.193,0-3.969-1.776-3.969-3.969c0-2.191,1.776-3.966,3.969-3.966C637.79,498.741,639.565,500.517,639.565,502.708"/>
	<path vector-effect="none" fill-rule="evenodd" fill="#C1C1C1" d="M615.701,424.384c0,2.191-1.778,3.966-3.969,3.966
		s-3.966-1.776-3.966-3.966s1.776-3.969,3.966-3.969S615.701,422.193,615.701,424.384"/>
	<path vector-effect="none" fill-rule="evenodd" fill="#C1C1C1" d="M563.917,440.724c0,2.191-1.776,3.969-3.969,3.969
		c-2.191,0-3.966-1.778-3.966-3.969c0-2.191,1.776-3.966,3.966-3.966C562.141,436.758,563.917,438.533,563.917,440.724"/>
	<path vector-effect="none" fill-rule="evenodd" fill="#C1C1C1" d="M656.613,493.489c0,2.193-1.776,3.969-3.966,3.969
		c-2.193,0-3.969-1.776-3.969-3.969c0-2.191,1.776-3.966,3.969-3.966C654.837,489.523,656.613,491.298,656.613,493.489"/>
	<path vector-effect="none" fill-rule="evenodd" fill="#C1C1C1" d="M712.274,184.64c0,2.191-1.776,3.967-3.966,3.967
		c-2.193,0-3.969-1.776-3.969-3.967c0-2.191,1.776-3.968,3.969-3.968C710.499,180.673,712.274,182.449,712.274,184.64"/>
	<path vector-effect="none" fill-rule="evenodd" fill="#C1C1C1" d="M649.012,499.548c0,2.191-1.776,3.966-3.966,3.966
		c-2.193,0-3.969-1.776-3.969-3.966c0-2.193,1.776-3.969,3.969-3.969C647.236,495.579,649.012,497.355,649.012,499.548"/>
	<path vector-effect="none" fill-rule="evenodd" fill="#C1C1C1" d="M715.295,180.226c0,2.191-1.778,3.967-3.969,3.967
		c-2.191,0-3.966-1.776-3.966-3.967s1.776-3.968,3.966-3.968C713.517,176.258,715.295,178.034,715.295,180.226"/>
	<path vector-effect="none" fill-rule="evenodd" fill="#C1C1C1" d="M651.411,442.797c0,2.191-1.778,3.966-3.969,3.966
		c-2.191,0-3.966-1.776-3.966-3.966s1.776-3.969,3.966-3.969C649.633,438.828,651.411,440.606,651.411,442.797"/>
	<path vector-effect="none" fill-rule="evenodd" fill="#C1C1C1" d="M562.88,479.645c0,2.193-1.778,3.969-3.969,3.969
		c-2.191,0-3.966-1.776-3.966-3.969c0-2.191,1.776-3.966,3.966-3.966C561.102,475.678,562.88,477.454,562.88,479.645"/>
	<path vector-effect="none" fill-rule="evenodd" fill="#C1C1C1" d="M661.263,279.182c0,2.193-1.776,3.969-3.969,3.969
		c-2.191,0-3.966-1.776-3.966-3.969c0-2.191,1.776-3.966,3.966-3.966C659.487,275.216,661.263,276.991,661.263,279.182"/>
	<path vector-effect="none" fill-rule="evenodd" fill="#C1C1C1" d="M564.735,427.508c0,2.191-1.776,3.966-3.966,3.966
		c-2.193,0-3.969-1.776-3.969-3.966s1.776-3.969,3.969-3.969C562.96,423.539,564.735,425.317,564.735,427.508"/>
	<path vector-effect="none" fill-rule="evenodd" fill="#C1C1C1" d="M656.702,471.34c0,2.193-1.776,3.969-3.966,3.969
		c-2.193,0-3.969-1.776-3.969-3.969c0-2.191,1.776-3.966,3.969-3.966C654.926,467.374,656.702,469.15,656.702,471.34"/>
	<path vector-effect="none" fill-rule="evenodd" fill="#C1C1C1" d="M648.088,350.509c0,2.191-1.776,3.966-3.966,3.966
		c-2.193,0-3.969-1.776-3.969-3.966c0-2.193,1.776-3.969,3.969-3.969C646.312,346.54,648.088,348.316,648.088,350.509"/>
	<path vector-effect="none" fill-rule="evenodd" fill="#C1C1C1" d="M645.792,492.921c0,2.191-1.776,3.966-3.966,3.966
		c-2.193,0-3.969-1.776-3.969-3.966c0-2.191,1.776-3.969,3.969-3.969C644.016,488.952,645.792,490.73,645.792,492.921"/>
	<path vector-effect="none" fill-rule="evenodd" fill="#C1C1C1" d="M700.205,433.816c0,2.191-1.776,3.969-3.966,3.969
		c-2.191,0-3.969-1.778-3.969-3.969c0-2.191,1.778-3.966,3.969-3.966C698.43,429.85,700.205,431.625,700.205,433.816"/>
	<path vector-effect="none" fill-rule="evenodd" fill="#C1C1C1" d="M672.931,485.95c0,2.193-1.776,3.969-3.966,3.969
		c-2.193,0-3.969-1.776-3.969-3.969c0-2.191,1.776-3.966,3.969-3.966C671.156,481.984,672.931,483.76,672.931,485.95"/>
	<path vector-effect="none" fill-rule="evenodd" fill="#C1C1C1" d="M665.836,466.834c0,2.193-1.776,3.969-3.966,3.969
		c-2.193,0-3.969-1.776-3.969-3.969c0-2.191,1.776-3.966,3.969-3.966C664.061,462.868,665.836,464.644,665.836,466.834"/>
	<path vector-effect="none" fill-rule="evenodd" fill="#C1C1C1" d="M636.396,498.665c0,2.191-1.778,3.966-3.969,3.966
		c-2.191,0-3.966-1.776-3.966-3.966c0-2.191,1.776-3.969,3.966-3.969C634.618,494.696,636.396,496.474,636.396,498.665"/>
	<path vector-effect="none" fill-rule="evenodd" fill="#C1C1C1" d="M610.993,454.772c0,2.191-1.776,3.969-3.969,3.969
		c-2.191,0-3.966-1.778-3.966-3.969s1.776-3.966,3.966-3.966C609.218,450.806,610.993,452.582,610.993,454.772"/>
	<path vector-effect="none" fill-rule="evenodd" fill="#C1C1C1" d="M603.262,342.49c0,2.191-1.776,3.969-3.966,3.969
		c-2.193,0-3.969-1.778-3.969-3.969s1.776-3.966,3.969-3.966C601.487,338.524,603.262,340.3,603.262,342.49"/>
	<path vector-effect="none" fill-rule="evenodd" fill="#C1C1C1" d="M625.327,509.256c0,2.191-1.778,3.966-3.969,3.966
		c-2.191,0-3.966-1.776-3.966-3.966c0-2.191,1.776-3.969,3.966-3.969C623.549,505.287,625.327,507.065,625.327,509.256"/>
	<path vector-effect="none" fill-rule="evenodd" fill="#C1C1C1" d="M665.464,466.582c0,2.191-1.778,3.966-3.969,3.966
		c-2.191,0-3.966-1.776-3.966-3.966c0-2.191,1.776-3.969,3.966-3.969C663.686,462.614,665.464,464.392,665.464,466.582"/>
	<path vector-effect="none" fill-rule="evenodd" fill="#C1C1C1" d="M646.288,466.676c0,2.191-1.776,3.966-3.966,3.966
		c-2.191,0-3.969-1.776-3.969-3.966s1.778-3.969,3.969-3.969C644.513,462.707,646.288,464.485,646.288,466.676"/>
	<path vector-effect="none" fill-rule="evenodd" fill="#C1C1C1" d="M645.607,493.189c0,2.191-1.776,3.969-3.966,3.969
		c-2.191,0-3.969-1.778-3.969-3.969s1.778-3.966,3.969-3.966C643.831,489.223,645.607,490.999,645.607,493.189"/>
	<path vector-effect="none" fill-rule="evenodd" fill="#C1C1C1" d="M454.653,456.435c0,2.191-1.776,3.966-3.966,3.966
		s-3.969-1.776-3.969-3.966c0-2.193,1.778-3.969,3.969-3.969S454.653,454.242,454.653,456.435"/>
	<path vector-effect="none" fill-rule="evenodd" fill="#C1C1C1" d="M599.344,512.939c0,2.191-1.776,3.966-3.966,3.966
		c-2.193,0-3.969-1.776-3.969-3.966c0-2.193,1.776-3.969,3.969-3.969C597.568,508.97,599.344,510.746,599.344,512.939"/>
	<path vector-effect="none" fill-rule="evenodd" fill="#C1C1C1" d="M575.672,432.508c0,2.191-1.778,3.969-3.969,3.969
		c-2.191,0-3.969-1.778-3.969-3.969c0-2.191,1.778-3.966,3.969-3.966C573.894,428.542,575.672,430.318,575.672,432.508"/>
	<path vector-effect="none" fill-rule="evenodd" fill="#C1C1C1" d="M517.016,491.45c0,2.193-1.778,3.969-3.969,3.969
		c-2.191,0-3.966-1.776-3.966-3.969c0-2.191,1.776-3.966,3.966-3.966C515.238,487.483,517.016,489.259,517.016,491.45"/>
	<path vector-effect="none" fill-rule="evenodd" fill="#C1C1C1" d="M624.041,481.48c0,2.193-1.776,3.969-3.966,3.969
		s-3.969-1.776-3.969-3.969c0-2.191,1.778-3.966,3.969-3.966S624.041,479.289,624.041,481.48"/>
	<path vector-effect="none" fill-rule="evenodd" fill="#C1C1C1" d="M612.903,474.445c0,2.191-1.776,3.966-3.969,3.966
		c-2.191,0-3.966-1.776-3.966-3.966c0-2.193,1.776-3.969,3.966-3.969C611.128,470.477,612.903,472.252,612.903,474.445"/>
	<path vector-effect="none" fill-rule="evenodd" fill="#C1C1C1" d="M639.784,502.878c0,2.191-1.776,3.969-3.966,3.969
		c-2.191,0-3.969-1.778-3.969-3.969c0-2.191,1.778-3.969,3.969-3.969C638.008,498.909,639.784,500.687,639.784,502.878"/>
	<path vector-effect="none" fill-rule="evenodd" fill="#C1C1C1" d="M518.057,496.092c0,2.191-1.776,3.969-3.969,3.969
		c-2.191,0-3.966-1.778-3.966-3.969c0-2.191,1.776-3.966,3.966-3.966C516.282,492.126,518.057,493.902,518.057,496.092"/>
	<path vector-effect="none" fill-rule="evenodd" fill="#C1C1C1" d="M624.461,481.898c0,2.191-1.776,3.969-3.969,3.969
		c-2.191,0-3.966-1.778-3.966-3.969s1.776-3.966,3.966-3.966C622.685,477.931,624.461,479.707,624.461,481.898"/>
	<path vector-effect="none" fill-rule="evenodd" fill="#C1C1C1" d="M551.819,524.288c0,2.191-1.776,3.966-3.969,3.966
		c-2.191,0-3.966-1.776-3.966-3.966c0-2.191,1.776-3.969,3.966-3.969C550.044,520.319,551.819,522.097,551.819,524.288"/>
	<path vector-effect="none" fill-rule="evenodd" fill="#C1C1C1" d="M438.296,441.055c0,2.193-1.776,3.969-3.966,3.969
		c-2.193,0-3.969-1.776-3.969-3.969c0-2.191,1.776-3.966,3.969-3.966C436.521,437.089,438.296,438.864,438.296,441.055"/>
	<path vector-effect="none" fill-rule="evenodd" fill="#C1C1C1" d="M639.462,492.928c0,2.191-1.778,3.966-3.969,3.966
		c-2.191,0-3.966-1.776-3.966-3.966c0-2.193,1.776-3.969,3.966-3.969C637.684,488.959,639.462,490.735,639.462,492.928"/>
	<path vector-effect="none" fill-rule="evenodd" fill="#C1C1C1" d="M447.184,462.201c0,2.191-1.776,3.966-3.966,3.966
		c-2.193,0-3.969-1.776-3.969-3.966c0-2.193,1.776-3.969,3.969-3.969C445.408,458.232,447.184,460.008,447.184,462.201"/>
	<path vector-effect="none" fill-rule="evenodd" fill="#C1C1C1" d="M643.651,444.201c0,2.191-1.776,3.969-3.966,3.969
		c-2.191,0-3.969-1.778-3.969-3.969c0-2.191,1.778-3.966,3.969-3.966C641.876,440.234,643.651,442.01,643.651,444.201"/>
	<path vector-effect="none" fill-rule="evenodd" fill="#C1C1C1" d="M645.084,493.607c0,2.191-1.776,3.969-3.966,3.969
		c-2.191,0-3.969-1.778-3.969-3.969c0-2.191,1.778-3.966,3.969-3.966C643.308,489.641,645.084,491.416,645.084,493.607"/>
	<path vector-effect="none" fill-rule="evenodd" fill="#C1C1C1" d="M525.894,320.941c0,2.191-1.778,3.966-3.969,3.966
		c-2.191,0-3.966-1.776-3.966-3.966s1.776-3.969,3.966-3.969C524.116,316.973,525.894,318.751,525.894,320.941"/>
	<path vector-effect="none" fill-rule="evenodd" fill="#C1C1C1" d="M636.292,499.183c0,2.191-1.776,3.966-3.969,3.966
		c-2.191,0-3.966-1.776-3.966-3.966c0-2.191,1.776-3.969,3.966-3.969C634.517,495.214,636.292,496.992,636.292,499.183"/>
	<path vector-effect="none" fill-rule="evenodd" fill="#C1C1C1" d="M660.603,443.325c0,2.191-1.778,3.966-3.969,3.966
		c-2.191,0-3.966-1.776-3.966-3.966c0-2.191,1.776-3.969,3.966-3.969C658.825,439.356,660.603,441.134,660.603,443.325"/>
	<path vector-effect="none" fill-rule="evenodd" fill="#C1C1C1" d="M814.124,255.284c0,2.193-1.776,3.969-3.969,3.969
		c-2.191,0-3.966-1.776-3.966-3.969c0-2.191,1.776-3.966,3.966-3.966C812.348,251.318,814.124,253.093,814.124,255.284"/>
	<path vector-effect="none" fill-rule="evenodd" fill="#C1C1C1" d="M604.966,503.723c0,2.191-1.776,3.969-3.966,3.969
		c-2.193,0-3.969-1.778-3.969-3.969c0-2.191,1.776-3.969,3.969-3.969C603.19,499.754,604.966,501.532,604.966,503.723"/>
	<path vector-effect="none" fill-rule="evenodd" fill="#C1C1C1" d="M635.769,499.183c0,2.191-1.778,3.966-3.969,3.966
		c-2.191,0-3.966-1.776-3.966-3.966c0-2.191,1.776-3.969,3.966-3.969C633.991,495.214,635.769,496.992,635.769,499.183"/>
	<path vector-effect="none" fill-rule="evenodd" fill="#C1C1C1" d="M593.595,413.973c0,2.191-1.776,3.969-3.966,3.969
		c-2.193,0-3.969-1.778-3.969-3.969c0-2.191,1.776-3.969,3.969-3.969C591.82,410.004,593.595,411.782,593.595,413.973"/>
	<path vector-effect="none" fill-rule="evenodd" fill="#C1C1C1" d="M562.871,492.119c0,2.193-1.776,3.969-3.966,3.969
		c-2.193,0-3.969-1.776-3.969-3.969c0-2.191,1.776-3.966,3.969-3.966C561.095,488.153,562.871,489.928,562.871,492.119"/>
	<path vector-effect="none" fill-rule="evenodd" fill="#C1C1C1" d="M810.446,211.729c0,2.191-1.776,3.967-3.966,3.967
		c-2.193,0-3.969-1.776-3.969-3.967c0-2.191,1.776-3.968,3.969-3.968C808.67,207.761,810.446,209.537,810.446,211.729"/>
	<path vector-effect="none" fill-rule="evenodd" fill="#C1C1C1" d="M696.09,251.635c0,2.191-1.778,3.966-3.969,3.966
		s-3.966-1.776-3.966-3.966s1.776-3.969,3.966-3.969S696.09,249.444,696.09,251.635"/>
	<path vector-effect="none" fill-rule="evenodd" fill="#C1C1C1" d="M621.524,473.481c0,2.191-1.776,3.966-3.969,3.966
		c-2.191,0-3.966-1.776-3.966-3.966c0-2.193,1.776-3.969,3.966-3.969C619.749,469.512,621.524,471.287,621.524,473.481"/>
	<path vector-effect="none" fill-rule="evenodd" fill="#C1C1C1" d="M657.837,458.568c0,2.191-1.778,3.969-3.969,3.969
		s-3.966-1.778-3.966-3.969s1.776-3.966,3.966-3.966S657.837,456.378,657.837,458.568"/>
	<path vector-effect="none" fill-rule="evenodd" fill="#C1C1C1" d="M680.578,316.622c0,2.193-1.778,3.969-3.969,3.969
		c-2.191,0-3.969-1.776-3.969-3.969c0-2.191,1.778-3.966,3.969-3.966C678.8,312.656,680.578,314.432,680.578,316.622"/>
	<path vector-effect="none" fill-rule="evenodd" fill="#C1C1C1" d="M645.189,493.086c0,2.191-1.776,3.966-3.969,3.966
		c-2.191,0-3.966-1.776-3.966-3.966s1.776-3.969,3.966-3.969C643.414,489.117,645.189,490.895,645.189,493.086"/>
	<path vector-effect="none" fill-rule="evenodd" fill="#C1C1C1" d="M789.477,260.124c0,2.193-1.778,3.969-3.969,3.969
		c-2.191,0-3.966-1.776-3.966-3.969c0-2.191,1.776-3.966,3.966-3.966C787.699,256.157,789.477,257.933,789.477,260.124"/>
	<path vector-effect="none" fill-rule="evenodd" fill="#C1C1C1" d="M612.399,486.526c0,2.193-1.776,3.969-3.969,3.969
		c-2.191,0-3.966-1.776-3.966-3.969c0-2.191,1.776-3.966,3.966-3.966C610.624,482.56,612.399,484.335,612.399,486.526"/>
	<path vector-effect="none" fill-rule="evenodd" fill="#C1C1C1" d="M664.764,466.697c0,2.191-1.776,3.969-3.966,3.969
		c-2.193,0-3.969-1.778-3.969-3.969s1.776-3.969,3.969-3.969C662.988,462.729,664.764,464.507,664.764,466.697"/>
	<path vector-effect="none" fill-rule="evenodd" fill="#C1C1C1" d="M599.783,512.272c0,2.191-1.778,3.969-3.969,3.969
		c-2.191,0-3.969-1.778-3.969-3.969s1.778-3.966,3.969-3.966C598.005,508.305,599.783,510.081,599.783,512.272"/>
	<path vector-effect="none" fill-rule="evenodd" fill="#C1C1C1" d="M699.349,195.767c0,2.191-1.776,3.967-3.969,3.967
		c-2.191,0-3.966-1.776-3.966-3.967s1.776-3.968,3.966-3.968C697.573,191.8,699.349,193.576,699.349,195.767"/>
	<path vector-effect="none" fill-rule="evenodd" fill="#C1C1C1" d="M612.694,474.131c0,2.193-1.778,3.969-3.969,3.969
		c-2.191,0-3.969-1.776-3.969-3.969c0-2.191,1.778-3.966,3.969-3.966C610.916,470.165,612.694,471.94,612.694,474.131"/>
	<path vector-effect="none" fill-rule="evenodd" fill="#C1C1C1" d="M685.59,462.395c0,2.191-1.776,3.969-3.969,3.969
		c-2.191,0-3.966-1.778-3.966-3.969s1.776-3.966,3.966-3.966C683.815,458.429,685.59,460.205,685.59,462.395"/>
	<path vector-effect="none" fill-rule="evenodd" fill="#C1C1C1" d="M742.406,168.462c0,2.191-1.776,3.968-3.966,3.968
		c-2.193,0-3.969-1.776-3.969-3.968c0-2.191,1.776-3.967,3.969-3.967C740.63,164.494,742.406,166.27,742.406,168.462"/>
	<path vector-effect="none" fill-rule="evenodd" fill="#C1C1C1" d="M670.203,416.233c0,2.193-1.778,3.969-3.969,3.969
		c-2.191,0-3.966-1.776-3.966-3.969c0-2.191,1.776-3.966,3.966-3.966C668.425,412.267,670.203,414.043,670.203,416.233"/>
	<path vector-effect="none" fill-rule="evenodd" fill="#C1C1C1" d="M631.383,399.853c0,2.191-1.776,3.966-3.966,3.966
		c-2.191,0-3.969-1.776-3.969-3.966c0-2.191,1.778-3.969,3.969-3.969C629.608,395.884,631.383,397.662,631.383,399.853"/>
	<path vector-effect="none" fill-rule="evenodd" fill="#C1C1C1" d="M699.478,258.473c0,2.191-1.776,3.969-3.966,3.969
		c-2.193,0-3.969-1.778-3.969-3.969c0-2.191,1.776-3.969,3.969-3.969C697.703,254.504,699.478,256.282,699.478,258.473"/>
	<path vector-effect="none" fill-rule="evenodd" fill="#C1C1C1" d="M636.607,498.662c0,2.191-1.778,3.966-3.969,3.966
		c-2.191,0-3.966-1.776-3.966-3.966c0-2.193,1.776-3.969,3.966-3.969C634.829,494.694,636.607,496.469,636.607,498.662"/>
	<path vector-effect="none" fill-rule="evenodd" fill="#C1C1C1" d="M528.096,493.163c0,2.193-1.776,3.969-3.969,3.969
		c-2.191,0-3.966-1.776-3.966-3.969c0-2.191,1.776-3.966,3.966-3.966C526.321,489.197,528.096,490.972,528.096,493.163"/>
	<path vector-effect="none" fill-rule="evenodd" fill="#C1C1C1" d="M708.138,462.995c0,2.191-1.776,3.966-3.966,3.966
		c-2.193,0-3.969-1.776-3.969-3.966s1.776-3.969,3.969-3.969C706.362,459.027,708.138,460.805,708.138,462.995"/>
	<path vector-effect="none" fill-rule="evenodd" fill="#C1C1C1" d="M572.399,425.589c0,2.191-1.776,3.966-3.966,3.966
		c-2.191,0-3.969-1.776-3.969-3.966c0-2.191,1.778-3.969,3.969-3.969C570.623,421.62,572.399,423.398,572.399,425.589"/>
	<path vector-effect="none" fill-rule="evenodd" fill="#C1C1C1" d="M613.904,486.824c0,2.193-1.776,3.969-3.966,3.969
		c-2.191,0-3.969-1.776-3.969-3.969c0-2.191,1.778-3.966,3.969-3.966C612.128,482.857,613.904,484.633,613.904,486.824"/>
	<path vector-effect="none" fill-rule="evenodd" fill="#C1C1C1" d="M657.196,459.456c0,2.191-1.776,3.969-3.966,3.969
		c-2.193,0-3.969-1.778-3.969-3.969s1.776-3.966,3.969-3.966C655.42,455.49,657.196,457.265,657.196,459.456"/>
	<path vector-effect="none" fill-rule="evenodd" fill="#C1C1C1" d="M548.539,507.391c0,2.191-1.778,3.969-3.969,3.969
		c-2.191,0-3.966-1.778-3.966-3.969c0-2.191,1.776-3.966,3.966-3.966C546.761,503.425,548.539,505.201,548.539,507.391"/>
	<path vector-effect="none" fill-rule="evenodd" fill="#C1C1C1" d="M657.136,470.654c0,2.193-1.778,3.969-3.969,3.969
		c-2.191,0-3.966-1.776-3.966-3.969c0-2.191,1.776-3.966,3.966-3.966C655.358,466.688,657.136,468.463,657.136,470.654"/>
	<path vector-effect="none" fill-rule="evenodd" fill="#C1C1C1" d="M597.648,528.959c0,2.191-1.776,3.966-3.966,3.966
		c-2.191,0-3.969-1.776-3.969-3.966c0-2.191,1.778-3.969,3.969-3.969C595.872,524.991,597.648,526.769,597.648,528.959"/>
	<path vector-effect="none" fill-rule="evenodd" fill="#C1C1C1" d="M782.872,61.69c0,2.191-1.776,3.967-3.969,3.967
		c-2.191,0-3.966-1.776-3.966-3.967c0-2.191,1.776-3.968,3.966-3.968C781.096,57.723,782.872,59.499,782.872,61.69"/>
	<path vector-effect="none" fill-rule="evenodd" fill="#C1C1C1" d="M540.175,422.784c0,2.191-1.778,3.969-3.969,3.969
		c-2.191,0-3.966-1.778-3.966-3.969s1.776-3.966,3.966-3.966C538.397,418.817,540.175,420.593,540.175,422.784"/>
	<path vector-effect="none" fill-rule="evenodd" fill="#C1C1C1" d="M636.307,498.873c0,2.193-1.776,3.969-3.969,3.969
		c-2.191,0-3.966-1.776-3.966-3.969c0-2.191,1.776-3.966,3.966-3.966C634.531,494.907,636.307,496.683,636.307,498.873"/>
	<path vector-effect="none" fill-rule="evenodd" fill="#C1C1C1" d="M677.243,356.462c0,2.191-1.778,3.969-3.969,3.969
		s-3.966-1.778-3.966-3.969c0-2.191,1.776-3.966,3.966-3.966S677.243,354.271,677.243,356.462"/>
	<path vector-effect="none" fill-rule="evenodd" fill="#C1C1C1" d="M656.265,459.612c0,2.191-1.776,3.969-3.966,3.969
		s-3.969-1.778-3.969-3.969s1.778-3.966,3.969-3.966S656.265,457.421,656.265,459.612"/>
	<path vector-effect="none" fill-rule="evenodd" fill="#C1C1C1" d="M657.314,459.924c0,2.191-1.778,3.969-3.969,3.969
		c-2.191,0-3.966-1.778-3.966-3.969c0-2.191,1.776-3.966,3.966-3.966C655.536,455.958,657.314,457.733,657.314,459.924"/>
	<path vector-effect="none" fill-rule="evenodd" fill="#C1C1C1" d="M658.835,446.682c0,2.191-1.776,3.966-3.969,3.966
		c-2.191,0-3.966-1.776-3.966-3.966c0-2.193,1.776-3.969,3.966-3.969C657.059,442.713,658.835,444.489,658.835,446.682"/>
	<path vector-effect="none" fill-rule="evenodd" fill="#C1C1C1" d="M584.657,422.073c0,2.193-1.776,3.969-3.966,3.969
		c-2.193,0-3.969-1.776-3.969-3.969c0-2.191,1.776-3.966,3.969-3.966C582.882,418.107,584.657,419.883,584.657,422.073"/>
	<path vector-effect="none" fill-rule="evenodd" fill="#C1C1C1" d="M664.711,492.268c0,2.193-1.778,3.969-3.969,3.969
		c-2.191,0-3.966-1.776-3.966-3.969c0-2.191,1.776-3.966,3.966-3.966C662.933,488.302,664.711,490.077,664.711,492.268"/>
	<path vector-effect="none" fill-rule="evenodd" fill="#C1C1C1" d="M640.35,501.743c0,2.193-1.776,3.969-3.966,3.969
		c-2.191,0-3.969-1.776-3.969-3.969c0-2.191,1.778-3.966,3.969-3.966C638.574,497.777,640.35,499.552,640.35,501.743"/>
	<path vector-effect="none" fill-rule="evenodd" fill="#C1C1C1" d="M693.338,469.644c0,2.193-1.778,3.969-3.969,3.969
		c-2.191,0-3.966-1.776-3.966-3.969c0-2.191,1.776-3.966,3.966-3.966C691.56,465.678,693.338,467.453,693.338,469.644"/>
	<path vector-effect="none" fill-rule="evenodd" fill="#C1C1C1" d="M586.215,422.884c0,2.193-1.776,3.969-3.966,3.969
		c-2.191,0-3.969-1.776-3.969-3.969c0-2.191,1.778-3.966,3.969-3.966C584.439,418.918,586.215,420.694,586.215,422.884"/>
	<path vector-effect="none" fill-rule="evenodd" fill="#C1C1C1" d="M644.285,480.374c0,2.193-1.776,3.969-3.966,3.969
		c-2.193,0-3.969-1.776-3.969-3.969c0-2.191,1.776-3.966,3.969-3.966C642.509,476.408,644.285,478.183,644.285,480.374"/>
	<path vector-effect="none" fill-rule="evenodd" fill="#C1C1C1" d="M645.379,491.91c0,2.191-1.776,3.969-3.969,3.969
		c-2.191,0-3.966-1.778-3.966-3.969c0-2.191,1.776-3.966,3.966-3.966C643.603,487.944,645.379,489.72,645.379,491.91"/>
	<path vector-effect="none" fill-rule="evenodd" fill="#C1C1C1" d="M648.177,487.985c0,2.191-1.778,3.969-3.969,3.969
		s-3.966-1.778-3.966-3.969c0-2.191,1.776-3.969,3.966-3.969S648.177,485.794,648.177,487.985"/>
	<path vector-effect="none" fill-rule="evenodd" fill="#C1C1C1" d="M623.792,481.211c0,2.191-1.778,3.966-3.969,3.966
		s-3.966-1.776-3.966-3.966c0-2.193,1.776-3.969,3.966-3.969S623.792,479.018,623.792,481.211"/>
	<path vector-effect="none" fill-rule="evenodd" fill="#C1C1C1" d="M658.588,417.594c0,2.191-1.776,3.969-3.966,3.969
		c-2.191,0-3.969-1.778-3.969-3.969c0-2.191,1.778-3.966,3.969-3.966C656.812,413.628,658.588,415.403,658.588,417.594"/>
</g>
<style>
#g-NYC-consulate2-_1-All_Consulates-img rect, #g-NYC-consulate2-_1-All_Consulates-img circle, #g-NYC-consulate2-_1-All_Consulates-img path, #g-NYC-consulate2-_1-All_Consulates-img line, #g-NYC-consulate2-_1-All_Consulates-img polyline, #g-NYC-consulate2-_1-All_Consulates-img polygon { vector-effect: non-scaling-stroke; }
</style>
</svg>

