<?xml version="1.0" encoding="utf-8"?>
<!-- Generator: Adobe Illustrator 27.7.0, SVG Export Plug-In . SVG Version: 6.00 Build 0)  -->
<svg version="1.2" baseProfile="tiny" id="g-NYC-consulate2-_1-UES-img"
	 xmlns="http://www.w3.org/2000/svg" xmlns:xlink="http://www.w3.org/1999/xlink" x="0px" y="0px" viewBox="0 0 841.68 595.199"
	 overflow="visible" xml:space="preserve">
<g>
	<rect x="0.001" fill-rule="evenodd" fill-opacity="0" width="841.709" height="595.051"/>
	
		<path vector-effect="none" fill-rule="evenodd" fill="#BECF50" stroke="#232323" stroke-width="0.7368" stroke-linecap="square" stroke-linejoin="bevel" stroke-miterlimit="10" d="
		M764.543,394.291l-2.289,2.884l-1.526-0.825l-1.001-0.621l-6.682-3.58l-21.897-12.261l-10.881-5.946l-4.638-2.534l-7.39-4.081
		l-22.149-12.201l4.446-8.064l4.463-8.024l4.448-8.043l4.463-8.031l4.46-8.019l4.434-8.055l4.302-7.719l4.609-8.309l4.47-8.038
		l4.444-8.05l4.544-7.947l4.269-8.122l4.952-8.787l4.796-8.767l4.535-8.11l4.508-8.118l4.528-8.147l1.43-2.581l3.071-5.551
		l4.496-8.143l4.871-8.774l21.847,12.135l23.097,12.738l22.01,12.218l21.532,11.941l1.473,0.816l2.733,1.862l0.756,0.425
		l0.497,0.293l0.497,0.29l0.897,0.523l0.319,0.187l-5.814,8.218l-5.631,7.923l-4.103,7.436l-2.807,5.082l-2.006,3.251l-4.782,7.75
		l-5.785,8.271l-5.473,7.822l-5.262,7.798l-5.31,7.82l-10.293,15.224l-10.26,15.198l-12.851,14.883l-1.324,1.538l-4.261,5.087
		l-0.233,0.278l-6.291,7.572l-3.306,3.909l-2.742,3.206l-0.379,0.458l-3.582,4.295l-2.452,2.86l-1.02,1.142l-0.235,0.262
		l-0.398,0.463l-0.281,0.293l-0.355,0.451L764.543,394.291"/>
	
		<path vector-effect="none" fill-rule="evenodd" fill="#BECF50" stroke="#232323" stroke-width="0.7368" stroke-linecap="square" stroke-linejoin="bevel" stroke-miterlimit="10" d="
		M0.001,0"/>
	
		<path vector-effect="none" fill-rule="evenodd" fill="#BECF50" stroke="#232323" stroke-width="0.7368" stroke-linecap="square" stroke-linejoin="bevel" stroke-miterlimit="10" d="
		M773.459,523.729l1.389,0.897l-0.25,0.42l-1.442-0.895l-0.583,1.02l-1.104-0.564l1.476-2.529l1.092,0.597L773.459,523.729"/>
	
		<path vector-effect="none" fill-rule="evenodd" fill="#BECF50" stroke="#232323" stroke-width="0.7368" stroke-linecap="square" stroke-linejoin="bevel" stroke-miterlimit="10" d="
		M854.211,51.718l-4.796,8.696l-4.468,8.023l-4.448,8.069l-4.482,8.064l-4.48,8.03l-4.511,7.969l-4.405,8.133l-4.477,8.054
		l-4.465,8.07l-2.162,3.906l-0.432,0.781l-2.195,3.969l-4.859,8.771l-4.511,8.146l-4.504,8.155l-4.501,8.114l-4.537,8.155
		l-2.426,4.382l-2.08,3.76l-4.84,8.762l-4.871,8.774l-4.496,8.143l-3.071,5.551l-1.43,2.581l-4.528,8.147l-4.508,8.118l-4.535,8.11
		l-4.796,8.767l-4.952,8.787l-4.269,8.122l-4.544,7.947l-4.444,8.05l-4.47,8.038l-4.609,8.309l-4.302,7.719l-4.434,8.055
		l-4.46,8.019l-4.463,8.031l-4.448,8.043l-4.463,8.024l-4.446,8.064l-15.644-8.667l-14.648-8.194l-1.094-0.612l-1.022-0.569
		l-14.699-8.072l-15.644-8.866l4.499-7.942l4.434-7.949l4.396-8.024l4.508-8.055l4.461-8l4.348-8.103l4.456-7.968l3.009-5.379
		l1.473-2.635l4.487-8.088l4.513-7.899l4.369-8.095l4.477-8.071l4.82-8.791l4.907-8.715l4.499-8.118l4.53-8.139l4.506-8.175
		l4.482-8.121l4.477-8.126l4.549-8.221l0.343-0.703l4.835-8.615l0.929-1.681l3.582-6.481l4.518-8.136l4.532-8.177l4.578-8.284
		l4.468-8.05l4.832-8.563l4.806-8.838l4.403-7.961l4.458-8.059l4.321-7.984l4.528-8.079l4.554-8.091l4.614-8.164l4.324-7.972
		l4.456-7.983l4.715-8.868l15.73,8.798l4.403,2.435l2.896,1.603l7.366,4.07l1.073,0.595l0.849,0.489l2.291,1.267l9.099,5.018
		l3.594,1.983l5.756,3.182L854.211,51.718"/>
	
		<path vector-effect="none" fill-rule="evenodd" fill="#BECF50" stroke="#232323" stroke-width="0.7368" stroke-linecap="square" stroke-linejoin="bevel" stroke-miterlimit="10" d="
		M907.856,81.631l0.708,0.386l1.248-1.712l0.607,0.503l0.25,0.546l-1.013,2.879l-2.258,14.424l0.098,3.323l1.528,8.251l1.116,6.039
		l1.581,5.078l9.502-3.461l0.122-0.023l0.127-0.004l0.122,0.016l0.12,0.036l0.113,0.054l0.103,0.071l0.091,0.086l0.077,0.099
		l0.06,0.11l0.041,0.118l2.385,6.618l0.041,0.105l0.026,0.11l0.01,0.113l-0.01,0.113l-0.026,0.11l-0.046,0.104l-0.058,0.096
		l-0.074,0.086l-0.086,0.073l-5.72,1.855l0.106,0.626l0.017,0.635l-0.074,0.631l-0.161,0.614l-0.249,0.585l-0.329,0.543
		l-0.403,0.491l-0.468,0.429l-0.526,0.358l-0.569,0.28l3.39,9.337l1.936,9.204l1.584,0.968l0.144-0.199l-0.384-1.348l-0.427,0.071
		l-0.9-3.859l0.261-0.064l0.036,0.135l0.341-0.064l0.298-0.085l-0.029-0.142l0.264-0.05l0.921,3.831l-0.432,0.128l0.439,1.617
		l-0.149,0.227l1.327,0.78l-0.638,1.178l-1.214-0.716l0.156-0.298l-1.368-0.737l0.043,0.148l0.895,0.513l-0.456,0.999l0.545,0.203
		l0.513,0.274l0.473,0.339l0.422,0.398l0.369,0.45l0.305,0.495l0.238,0.531l0.166,0.557l0.703,9.398l-0.768,2.93l-3.114,2.954
		l-1.816,6.518l-3.338,6.965l-3.981,5.969l-3.17,4.755l-2.891,3.983l-3.928,5.415l-5.017,6.918l-7.177,8.043l-7.69,8.652
		l-4.907,6.869l-5.675,7.943l-0.319-0.187l-0.897-0.523l-0.497-0.29l-0.497-0.293l-0.756-0.425l-2.733-1.862l-1.473-0.816
		l-21.532-11.941l-22.01-12.218l-23.097-12.738l-21.847-12.135l4.84-8.762l2.08-3.76l2.426-4.382l4.537-8.155l4.501-8.114
		l4.504-8.155l4.511-8.146l4.859-8.771l2.195-3.969l0.432-0.781l2.162-3.906l4.465-8.07l4.477-8.054l4.405-8.133l4.511-7.969
		l4.48-8.03l4.482-8.064l4.448-8.069l4.468-8.023l4.796-8.696l5.418,3.011l16.455,9.142l6.286,3.482l5.104,2.824l11.699,6.475
		l0.741,0.381l5.778,3.249l0.974,0.626l0.597,0.356L907.856,81.631"/>
	
		<path vector-effect="none" fill-rule="evenodd" fill="#BECF50" stroke="#232323" stroke-width="0.7368" stroke-linecap="square" stroke-linejoin="bevel" stroke-miterlimit="10" d="
		M0.001,0"/>
</g>
<style>
#g-NYC-consulate2-_1-UES-img rect, #g-NYC-consulate2-_1-UES-img circle, #g-NYC-consulate2-_1-UES-img path, #g-NYC-consulate2-_1-UES-img line, #g-NYC-consulate2-_1-UES-img polyline, #g-NYC-consulate2-_1-UES-img polygon { vector-effect: non-scaling-stroke; }
</style>
</svg>

