<?xml version="1.0" encoding="utf-8"?>
<!-- Generator: Adobe Illustrator 27.7.0, SVG Export Plug-In . SVG Version: 6.00 Build 0)  -->
<svg version="1.2" baseProfile="tiny" id="g-NYC-consulate1-_1-cosulates-img"
	 xmlns="http://www.w3.org/2000/svg" xmlns:xlink="http://www.w3.org/1999/xlink" x="0px" y="0px" viewBox="0 0 841.68 595.199"
	 overflow="visible" xml:space="preserve">
<g>
	<rect x="0.001" fill-rule="evenodd" fill-opacity="0" width="841.709" height="595.051"/>
	
		<path id="consulate_00000056420065928834701240000001401572553357681830_" vector-effect="non-scaling-stroke" fill-rule="evenodd" fill="#FF7F00" d="
		M287.42,311.732l-3.724,1.377l3.724,1.38l1.377,3.721l1.377-3.721l3.724-1.38l-3.724-1.377l-1.377-3.724L287.42,311.732"/>
	
		<path id="consulate_00000063602643208984904380000003560912149957808259_" vector-effect="non-scaling-stroke" fill-rule="evenodd" fill="#FF7F00" d="
		M309.792,303.027l-3.721,1.377l3.721,1.38l1.38,3.721l1.377-3.721l3.721-1.38l-3.721-1.377l-1.377-3.724L309.792,303.027"/>
	
		<path id="consulate_00000152953307735768469300000012891060428986755723_" vector-effect="non-scaling-stroke" fill-rule="evenodd" fill="#FF7F00" d="
		M475.775,307.092l-3.724,1.377l3.724,1.377l1.377,3.724l1.377-3.724l3.724-1.377l-3.724-1.377l-1.377-3.724L475.775,307.092"/>
	
		<path id="consulate_00000003089556766449210080000016636615233555067835_" vector-effect="non-scaling-stroke" fill-rule="evenodd" fill="#FF7F00" d="
		M311.886,318.467l-3.721,1.38l3.721,1.377l1.38,3.724l1.377-3.724l3.721-1.377l-3.721-1.38l-1.377-3.721L311.886,318.467"/>
	
		<path id="consulate_00000021830316476090584810000016157553052676224648_" vector-effect="non-scaling-stroke" fill-rule="evenodd" fill="#FF7F00" d="
		M186.181,251.762l-3.723,1.377l3.723,1.377l1.378,3.724l1.378-3.724l3.723-1.377l-3.723-1.377l-1.378-3.724L186.181,251.762"/>
	
		<path id="consulate_00000073681489649979653130000002833635689339977660_" vector-effect="non-scaling-stroke" fill-rule="evenodd" fill="#FF7F00" d="
		M266.046,306.554l-3.724,1.38l3.724,1.377l1.377,3.724l1.377-3.724l3.724-1.377l-3.724-1.38l-1.377-3.721L266.046,306.554"/>
	
		<path id="consulate_00000067195677738601953600000016429560712378571403_" vector-effect="non-scaling-stroke" fill-rule="evenodd" fill="#FF7F00" d="
		M309.492,224.454l-3.724,1.378l3.724,1.378l1.377,3.723l1.38-3.723l3.721-1.378l-3.721-1.378l-1.38-3.723L309.492,224.454"/>
	
		<path id="consulate_00000021821554928324634140000015416301974186788533_" vector-effect="non-scaling-stroke" fill-rule="evenodd" fill="#FF7F00" d="
		M318.048,211.641l-3.724,1.378l3.724,1.378l1.377,3.723l1.377-3.723l3.724-1.378l-3.724-1.378l-1.377-3.723L318.048,211.641"/>
	
		<path id="consulate_00000087398511908241085140000001208200369474441883_" vector-effect="non-scaling-stroke" fill-rule="evenodd" fill="#FF7F00" d="
		M302.594,316.521l-3.724,1.377l3.724,1.377l1.377,3.724l1.377-3.724l3.724-1.377l-3.724-1.377l-1.377-3.724L302.594,316.521"/>
	
		<path id="consulate_00000183937471499318595560000004926150273926944903_" vector-effect="non-scaling-stroke" fill-rule="evenodd" fill="#FF7F00" d="
		M292.629,283.825l-3.721,1.377l3.721,1.377l1.38,3.724l1.377-3.724l3.724-1.377l-3.724-1.377l-1.377-3.724L292.629,283.825"/>
	
		<path id="consulate_00000182492181748370000760000010168952090659243945_" vector-effect="non-scaling-stroke" fill-rule="evenodd" fill="#FF7F00" d="
		M271.013,290.646l-3.724,1.377l3.724,1.377l1.377,3.724l1.38-3.724l3.721-1.377l-3.721-1.377l-1.38-3.724L271.013,290.646"/>
	
		<path id="consulate_00000104677397083144131420000001065273909429186433_" vector-effect="non-scaling-stroke" fill-rule="evenodd" fill="#FF7F00" d="
		M309.708,312.673l-3.721,1.377l3.721,1.377l1.38,3.724l1.377-3.724l3.724-1.377l-3.724-1.377l-1.377-3.724L309.708,312.673"/>
	
		<path id="consulate_00000163767254714397802940000016976158642803040934_" vector-effect="non-scaling-stroke" fill-rule="evenodd" fill="#FF7F00" d="
		M332.944,183.745l-3.721,1.378l3.721,1.378l1.38,3.723l1.377-3.723l3.724-1.378l-3.724-1.378l-1.377-3.723L332.944,183.745"/>
	
		<path id="consulate_00000061433538743921734430000001172459923381816992_" vector-effect="non-scaling-stroke" fill-rule="evenodd" fill="#FF7F00" d="
		M306.536,315.202l-3.724,1.377l3.724,1.377l1.377,3.724l1.377-3.724l3.724-1.377l-3.724-1.377l-1.377-3.724L306.536,315.202"/>
	
		<path id="consulate_00000014616937150760808530000005161440833849716650_" vector-effect="non-scaling-stroke" fill-rule="evenodd" fill="#FF7F00" d="
		M334.206,181.902l-3.724,1.378l3.724,1.378l1.377,3.723l1.377-3.723l3.724-1.378l-3.724-1.378l-1.377-3.723L334.206,181.902"/>
	
		<path id="consulate_00000033333532561989494810000017221938866253419904_" vector-effect="non-scaling-stroke" fill-rule="evenodd" fill="#FF7F00" d="
		M307.536,291.51l-3.724,1.38l3.724,1.377l1.377,3.724l1.38-3.724l3.721-1.377l-3.721-1.38l-1.38-3.721L307.536,291.51"/>
	
		<path id="consulate_00000140705231936532155750000006169096810220470972_" vector-effect="non-scaling-stroke" fill-rule="evenodd" fill="#FF7F00" d="
		M270.581,306.893l-3.724,1.38l3.724,1.377l1.377,3.724l1.377-3.724l3.724-1.377l-3.724-1.38l-1.377-3.721L270.581,306.893"/>
	
		<path id="consulate_00000148651951454567120630000004489537012750303393_" vector-effect="non-scaling-stroke" fill-rule="evenodd" fill="#FF7F00" d="
		M311.649,223.212l-3.721,1.378l3.721,1.378l1.38,3.723l1.377-3.723l3.724-1.378l-3.724-1.378l-1.377-3.723L311.649,223.212"/>
	
		<path id="consulate_00000030474112706049217950000001388271780019519157_" vector-effect="non-scaling-stroke" fill-rule="evenodd" fill="#FF7F00" d="
		M271.356,285.13l-3.724,1.377l3.724,1.377l1.377,3.724l1.377-3.724l3.724-1.377l-3.724-1.377l-1.377-3.724L271.356,285.13"/>
	
		<path id="consulate_00000060752610822865257320000013270028199247434128_" vector-effect="non-scaling-stroke" fill-rule="evenodd" fill="#FF7F00" d="
		M309.746,303.428l-3.724,1.377l3.724,1.377l1.377,3.724l1.377-3.724l3.724-1.377l-3.724-1.377l-1.377-3.724L309.746,303.428"/>
	
		<path id="consulate_00000088854195823176306300000003073143957614223505_" vector-effect="non-scaling-stroke" fill-rule="evenodd" fill="#FF7F00" d="
		M306.15,252.985l-3.724,1.377l3.724,1.38l1.377,3.721l1.38-3.721l3.721-1.38l-3.721-1.377l-1.38-3.724L306.15,252.985"/>
	
		<path id="consulate_00000003078135142822133110000004732713730444316807_" vector-effect="non-scaling-stroke" fill-rule="evenodd" fill="#FF7F00" d="
		M305.192,312.435l-3.724,1.377l3.724,1.377l1.377,3.724l1.377-3.724l3.724-1.377l-3.724-1.377l-1.377-3.724L305.192,312.435"/>
	
		<path id="consulate_00000114044909226936738820000011258190814561996477_" vector-effect="non-scaling-stroke" fill-rule="evenodd" fill="#FF7F00" d="
		M327.907,287.762l-3.724,1.377l3.724,1.377l1.377,3.724l1.377-3.724l3.724-1.377l-3.724-1.377l-1.377-3.724L327.907,287.762"/>
	
		<path id="consulate_00000120547977919312296750000016297140918606927264_" vector-effect="non-scaling-stroke" fill-rule="evenodd" fill="#FF7F00" d="
		M316.52,309.525l-3.721,1.38l3.721,1.377l1.38,3.724l1.377-3.724l3.724-1.377l-3.724-1.38l-1.377-3.721L316.52,309.525"/>
	
		<path id="consulate_00000154405459956299655910000010288916699925130430_" vector-effect="non-scaling-stroke" fill-rule="evenodd" fill="#FF7F00" d="
		M313.559,301.547l-3.724,1.377l3.724,1.377l1.377,3.724l1.38-3.724l3.721-1.377l-3.721-1.377l-1.38-3.724L313.559,301.547"/>
	
		<path id="consulate_00000052101195220368019890000011340426774262977457_" vector-effect="non-scaling-stroke" fill-rule="evenodd" fill="#FF7F00" d="
		M301.269,314.832l-3.724,1.377l3.724,1.38l1.377,3.721l1.377-3.721l3.724-1.38l-3.724-1.377l-1.377-3.721L301.269,314.832"/>
	
		<path id="consulate_00000120545803213501287150000013995637214130107070_" vector-effect="non-scaling-stroke" fill-rule="evenodd" fill="#FF7F00" d="
		M290.666,296.51l-3.724,1.377l3.724,1.377l1.377,3.724l1.377-3.724l3.724-1.377l-3.724-1.377l-1.377-3.724L290.666,296.51"/>
	
		<path id="consulate_00000082340453216143734620000012098902257432573881_" vector-effect="non-scaling-stroke" fill-rule="evenodd" fill="#FF7F00" d="
		M287.439,249.638l-3.724,1.377l3.724,1.38l1.377,3.721l1.377-3.721l3.724-1.38l-3.724-1.377l-1.377-3.724L287.439,249.638"/>
	
		<path id="consulate_00000063610830973706579980000005018272723294504116_" vector-effect="non-scaling-stroke" fill-rule="evenodd" fill="#FF7F00" d="
		M296.648,319.254l-3.724,1.377l3.724,1.377l1.377,3.724l1.38-3.724l3.721-1.377l-3.721-1.377l-1.38-3.724L296.648,319.254"/>
	
		<path id="consulate_00000103257667021431857800000012967761720124899001_" vector-effect="non-scaling-stroke" fill-rule="evenodd" fill="#FF7F00" d="
		M313.403,301.441l-3.724,1.377l3.724,1.377l1.377,3.724l1.38-3.724l3.721-1.377l-3.721-1.377l-1.38-3.724L313.403,301.441"/>
	
		<path id="consulate_00000156586708605183370300000003721380644888741273_" vector-effect="non-scaling-stroke" fill-rule="evenodd" fill="#FF7F00" d="
		M305.399,301.48l-3.721,1.377l3.721,1.377l1.38,3.724l1.377-3.724l3.724-1.377l-3.724-1.377l-1.377-3.724L305.399,301.48"/>
	
		<path id="consulate_00000119108830796306350910000005738626490913215405_" vector-effect="non-scaling-stroke" fill-rule="evenodd" fill="#FF7F00" d="
		M305.115,312.548l-3.724,1.377l3.724,1.377l1.377,3.724l1.377-3.724l3.724-1.377l-3.724-1.377l-1.377-3.724L305.115,312.548"/>
	
		<path id="consulate_00000155107770483229626690000008754857078125211534_" vector-effect="non-scaling-stroke" fill-rule="evenodd" fill="#FF7F00" d="
		M225.402,297.204l-3.723,1.377l3.723,1.377l1.378,3.724l1.378-3.724l3.723-1.377l-3.723-1.377l-1.378-3.724L225.402,297.204"/>
	
		<path id="consulate_00000023974283193092021720000012481471146332922298_" vector-effect="non-scaling-stroke" fill-rule="evenodd" fill="#FF7F00" d="
		M285.803,320.79l-3.724,1.38l3.724,1.377l1.377,3.724l1.377-3.724l3.724-1.377l-3.724-1.38l-1.377-3.721L285.803,320.79"/>
	
		<path id="consulate_00000180339960060616505270000004878308232970208401_" vector-effect="non-scaling-stroke" fill-rule="evenodd" fill="#FF7F00" d="
		M275.919,287.218l-3.724,1.377l3.724,1.377l1.377,3.724l1.38-3.724l3.721-1.377l-3.721-1.377l-1.38-3.724L275.919,287.218"/>
	
		<path id="consulate_00000138560018885336689630000010884508239584082054_" vector-effect="non-scaling-stroke" fill-rule="evenodd" fill="#FF7F00" d="
		M251.434,311.821l-3.721,1.377l3.721,1.38l1.38,3.721l1.377-3.721l3.724-1.38l-3.724-1.377l-1.377-3.724L251.434,311.821"/>
	
		<path id="consulate_00000042728375626147982500000011283801515929396666_" vector-effect="non-scaling-stroke" fill-rule="evenodd" fill="#FF7F00" d="
		M296.113,307.66l-3.724,1.377l3.724,1.377l1.377,3.724l1.377-3.724l3.724-1.377l-3.724-1.377l-1.377-3.724L296.113,307.66"/>
	
		<path id="consulate_00000076577303686799174240000001994364199061564033_" vector-effect="non-scaling-stroke" fill-rule="evenodd" fill="#FF7F00" d="
		M291.463,304.721l-3.724,1.38l3.724,1.377l1.377,3.724l1.377-3.724l3.724-1.377l-3.724-1.38L292.84,301L291.463,304.721"/>
	
		<path id="consulate_00000072994121024794955860000002454126814619568521_" vector-effect="non-scaling-stroke" fill-rule="evenodd" fill="#FF7F00" d="
		M302.685,316.591l-3.724,1.38l3.724,1.377l1.377,3.724l1.377-3.724l3.724-1.377l-3.724-1.38l-1.377-3.721L302.685,316.591"/>
	
		<path id="consulate_00000093147555788862045380000015430517778973046663_" vector-effect="non-scaling-stroke" fill-rule="evenodd" fill="#FF7F00" d="
		M251.87,313.76l-3.724,1.377l3.724,1.377l1.377,3.724l1.377-3.724l3.724-1.377l-3.724-1.377l-1.377-3.724L251.87,313.76"/>
	
		<path id="consulate_00000104690113445508248460000011499500243576241066_" vector-effect="non-scaling-stroke" fill-rule="evenodd" fill="#FF7F00" d="
		M296.288,307.833l-3.724,1.38l3.724,1.377l1.377,3.724l1.377-3.724l3.724-1.377l-3.724-1.38l-1.377-3.721L296.288,307.833"/>
	
		<path id="consulate_00000052799222823601865470000003463699030804087947_" vector-effect="non-scaling-stroke" fill-rule="evenodd" fill="#FF7F00" d="
		M265.962,325.529l-3.721,1.377l3.721,1.38l1.38,3.721l1.377-3.721l3.724-1.38l-3.724-1.377l-1.377-3.724L265.962,325.529"/>
	
		<path id="consulate_00000105412278173695316200000002725857994288890036_" vector-effect="non-scaling-stroke" fill-rule="evenodd" fill="#FF7F00" d="
		M218.574,290.786l-3.723,1.377l3.723,1.377l1.378,3.724l1.378-3.724l3.723-1.377l-3.723-1.377l-1.378-3.724L218.574,290.786"/>
	
		<path id="consulate_00000023256476103987778720000008230944985114932141_" vector-effect="non-scaling-stroke" fill-rule="evenodd" fill="#FF7F00" d="
		M302.548,312.438l-3.721,1.377l3.721,1.377l1.38,3.724l1.377-3.724l3.724-1.377l-3.724-1.377l-1.377-3.724L302.548,312.438"/>
	
		<path id="consulate_00000160167476771699564510000006181413361016319920_" vector-effect="non-scaling-stroke" fill-rule="evenodd" fill="#FF7F00" d="
		M222.284,299.611l-3.723,1.377l3.723,1.38l1.378,3.721l1.378-3.721l3.723-1.38l-3.723-1.377l-1.378-3.721L222.284,299.611"/>
	
		<path id="consulate_00000169554232277139502490000003986142399807766682_" vector-effect="non-scaling-stroke" fill-rule="evenodd" fill="#FF7F00" d="
		M304.3,292.098l-3.724,1.377l3.724,1.377l1.377,3.724l1.377-3.724l3.724-1.377l-3.724-1.377l-1.377-3.724L304.3,292.098"/>
	
		<path id="consulate_00000131332980008424441900000003100949130379466685_" vector-effect="non-scaling-stroke" fill-rule="evenodd" fill="#FF7F00" d="
		M304.897,312.721l-3.724,1.38l3.724,1.377l1.377,3.724l1.377-3.724l3.724-1.377l-3.724-1.38l-1.377-3.721L304.897,312.721"/>
	
		<path id="consulate_00000087394614032160395290000017161133635983792310_" vector-effect="non-scaling-stroke" fill-rule="evenodd" fill="#FF7F00" d="
		M255.141,240.643l-3.724,1.377l3.724,1.38l1.377,3.721l1.377-3.721l3.724-1.38l-3.724-1.377l-1.377-3.723L255.141,240.643"/>
	
		<path id="consulate_00000040532596497421271290000004661484591644328071_" vector-effect="non-scaling-stroke" fill-rule="evenodd" fill="#FF7F00" d="
		M301.226,315.048l-3.724,1.38l3.724,1.377l1.377,3.724l1.377-3.724l3.724-1.377l-3.724-1.38l-1.377-3.721L301.226,315.048"/>
	
		<path id="consulate_00000109007890827235805980000018093761088622687627_" vector-effect="non-scaling-stroke" fill-rule="evenodd" fill="#FF7F00" d="
		M311.373,291.731l-3.721,1.38l3.721,1.377l1.38,3.724l1.377-3.724l3.724-1.377l-3.724-1.38l-1.377-3.721L311.373,291.731"/>
	
		<path id="consulate_00000039823721474697041520000017661481676471526064_" vector-effect="non-scaling-stroke" fill-rule="evenodd" fill="#FF7F00" d="
		M375.461,213.235l-3.724,1.378l3.724,1.378l1.377,3.723l1.377-3.723l3.724-1.378l-3.724-1.378l-1.377-3.723L375.461,213.235"/>
	
		<path id="consulate_00000004543977581689257260000018363568165725868989_" vector-effect="non-scaling-stroke" fill-rule="evenodd" fill="#FF7F00" d="
		M288.149,316.944l-3.724,1.377l3.724,1.38l1.377,3.721l1.377-3.721l3.724-1.38l-3.724-1.377l-1.377-3.721L288.149,316.944"/>
	
		<path id="consulate_00000128454105974101743580000002921646653962228623_" vector-effect="non-scaling-stroke" fill-rule="evenodd" fill="#FF7F00" d="
		M301.008,315.048l-3.724,1.38l3.724,1.377l1.377,3.724l1.377-3.724l3.724-1.377l-3.724-1.38l-1.377-3.721L301.008,315.048"/>
	
		<path id="consulate_00000034774666696943769190000012117911000932349333_" vector-effect="non-scaling-stroke" fill-rule="evenodd" fill="#FF7F00" d="
		M162.03,549.4l-3.723,1.377l3.723,1.377l1.378,3.724l1.378-3.724l3.723-1.377l-3.723-1.377l-1.378-3.724L162.03,549.4"/>
	
		<path id="consulate_00000072241797030871031850000005328525450144484240_" vector-effect="non-scaling-stroke" fill-rule="evenodd" fill="#FF7F00" d="
		M283.403,279.48l-3.724,1.377l3.724,1.377l1.377,3.724l1.377-3.724l3.724-1.377l-3.724-1.377l-1.377-3.724L283.403,279.48"/>
	
		<path id="consulate_00000155866121234102092010000000528855032878888867_" vector-effect="non-scaling-stroke" fill-rule="evenodd" fill="#FF7F00" d="
		M270.576,312.102l-3.721,1.377l3.721,1.377l1.38,3.724l1.377-3.724l3.724-1.377l-3.724-1.377l-1.377-3.724L270.576,312.102"/>
	
		<path id="consulate_00000121243466596381298640000016899162970311296914_" vector-effect="non-scaling-stroke" fill-rule="evenodd" fill="#FF7F00" d="
		M373.925,195.053l-3.724,1.378l3.724,1.378l1.377,3.723l1.38-3.723l3.721-1.378l-3.721-1.378l-1.38-3.723L373.925,195.053"/>
	
		<path id="consulate_00000032648372552620848980000006900216734763139761_" vector-effect="non-scaling-stroke" fill-rule="evenodd" fill="#FF7F00" d="
		M326.189,211.712l-3.724,1.378l3.724,1.378l1.377,3.723l1.377-3.723l3.724-1.378l-3.724-1.378l-1.377-3.723L326.189,211.712"/>
	<g id="consulateG_00000129195405240722285180000014358935296472159166_">
		
			<path id="consulate_00000045579183353966574060000013978039992547539085_" vector-effect="non-scaling-stroke" fill-rule="evenodd" fill="#FF7F00" d="
			M295.062,304.321l-3.724,1.377l3.724,1.377l1.377,3.724l1.377-3.724l3.724-1.377l-3.724-1.377l-1.377-3.724L295.062,304.321"/>
		
			<path id="consulate_00000173843197284937582130000000670290918852573072_" vector-effect="non-scaling-stroke" fill-rule="evenodd" fill="#FF7F00" d="
			M310.219,298.094l-3.724,1.38l3.724,1.377l1.377,3.724l1.38-3.724l3.721-1.377l-3.721-1.38l-1.38-3.721L310.219,298.094"/>
		
			<path id="consulate_00000035508837923848234800000017772879516959179940_" vector-effect="non-scaling-stroke" fill-rule="evenodd" fill="#FF7F00" d="
			M319.713,238.841l-3.724,1.377l3.724,1.377l1.377,3.724l1.377-3.724l3.724-1.377l-3.724-1.377l-1.377-3.723L319.713,238.841"/>
		
			<path id="consulate_00000061443362151233022910000017720619990451324095_" vector-effect="non-scaling-stroke" fill-rule="evenodd" fill="#FF7F00" d="
			M304.94,312.505l-3.724,1.377l3.724,1.377l1.377,3.724l1.377-3.724l3.724-1.377l-3.724-1.377l-1.377-3.724L304.94,312.505"/>
	</g>
	
		<path id="consulate_00000030470242379134395620000000627336489430452393_" vector-effect="non-scaling-stroke" fill-rule="evenodd" fill="#FF7F00" d="
		M365.172,215.256l-3.724,1.378l3.724,1.378l1.377,3.723l1.377-3.723l3.724-1.378l-3.724-1.378l-1.377-3.723L365.172,215.256"/>
	
		<path id="consulate_00000139282522197148805000000009653196615457531279_" vector-effect="non-scaling-stroke" fill-rule="evenodd" fill="#FF7F00" d="
		M291.252,309.767l-3.724,1.377l3.724,1.377l1.377,3.724l1.38-3.724l3.721-1.377l-3.721-1.377l-1.38-3.724L291.252,309.767"/>
	
		<path id="consulate_00000005268938781306854710000008423517638748216976_" vector-effect="non-scaling-stroke" fill-rule="evenodd" fill="#FF7F00" d="
		M313.113,301.489l-3.724,1.377l3.724,1.377l1.377,3.724l1.377-3.724l3.724-1.377l-3.724-1.377l-1.377-3.724L313.113,301.489"/>
	
		<path id="consulate_00000055697271099216896840000014245268318186174911_" vector-effect="non-scaling-stroke" fill-rule="evenodd" fill="#FF7F00" d="
		M285.985,320.514l-3.724,1.377l3.724,1.377l1.377,3.724l1.377-3.724l3.724-1.377l-3.724-1.377l-1.377-3.724L285.985,320.514"/>
	
		<path id="consulate_00000057139363946692681440000001942131646939667873_" vector-effect="non-scaling-stroke" fill-rule="evenodd" fill="#FF7F00" d="
		M327.55,188.39l-3.724,1.378l3.724,1.378l1.377,3.723l1.377-3.723l3.724-1.378l-3.724-1.378l-1.377-3.723L327.55,188.39"/>
	
		<path id="consulate_00000052061961780565640410000013185959649774782596_" vector-effect="non-scaling-stroke" fill-rule="evenodd" fill="#FF7F00" d="
		M291.374,304.592l-3.721,1.377l3.721,1.377l1.38,3.724l1.377-3.724l3.724-1.377l-3.724-1.377l-1.377-3.724L291.374,304.592"/>
	
		<path id="consulate_00000005987467684753708270000012062340240072948122_" vector-effect="non-scaling-stroke" fill-rule="evenodd" fill="#FF7F00" d="
		M321.806,299.692l-3.724,1.377l3.724,1.38l1.377,3.721l1.377-3.721l3.724-1.38l-3.724-1.377l-1.377-3.721L321.806,299.692"/>
	
		<path id="consulate_00000008854885084380386700000004623189520995017642_" vector-effect="non-scaling-stroke" fill-rule="evenodd" fill="#FF7F00" d="
		M345.524,176.992l-3.724,1.378l3.724,1.378l1.377,3.723l1.377-3.723l3.724-1.378l-3.724-1.378l-1.377-3.723L345.524,176.992"/>
	
		<path id="consulate_00000003074315261735365680000001038044395223712180_" vector-effect="non-scaling-stroke" fill-rule="evenodd" fill="#FF7F00" d="
		M315.382,280.423l-3.724,1.377l3.724,1.38l1.377,3.721l1.377-3.721l3.724-1.38l-3.724-1.377l-1.377-3.724L315.382,280.423"/>
	
		<path id="consulate_00000109008128528492863560000012452160744977508772_" vector-effect="non-scaling-stroke" fill-rule="evenodd" fill="#FF7F00" d="
		M299.177,273.584l-3.724,1.377l3.724,1.377l1.377,3.724l1.38-3.724l3.721-1.377l-3.721-1.377l-1.38-3.724L299.177,273.584"/>
	
		<path id="consulate_00000077297015485573850980000000102211766399156404_" vector-effect="non-scaling-stroke" fill-rule="evenodd" fill="#FF7F00" d="
		M327.603,214.566l-3.724,1.378l3.724,1.378l1.377,3.723l1.38-3.723l3.721-1.378l-3.721-1.378l-1.38-3.723L327.603,214.566"/>
	
		<path id="consulate_00000123419930464841676230000007553865951713035904_" vector-effect="non-scaling-stroke" fill-rule="evenodd" fill="#FF7F00" d="
		M301.358,314.832l-3.724,1.377l3.724,1.377l1.377,3.724l1.377-3.724l3.724-1.377l-3.724-1.377l-1.377-3.724L301.358,314.832"/>
	
		<path id="consulate_00000083808993323390100970000018429523555328008603_" vector-effect="non-scaling-stroke" fill-rule="evenodd" fill="#FF7F00" d="
		M256.06,312.536l-3.724,1.377l3.724,1.38l1.377,3.721l1.38-3.721l3.721-1.38l-3.721-1.377l-1.38-3.724L256.06,312.536"/>
	
		<path id="consulate_00000086652599126600070680000011922314577645448592_" vector-effect="non-scaling-stroke" fill-rule="evenodd" fill="#FF7F00" d="
		M331.218,299.942l-3.724,1.38l3.724,1.377l1.377,3.724l1.377-3.724l3.724-1.377l-3.724-1.38l-1.377-3.721L331.218,299.942"/>
	
		<path id="consulate_00000140708214249263567240000017091144923894366360_" vector-effect="non-scaling-stroke" fill-rule="evenodd" fill="#FF7F00" d="
		M274.554,284.329l-3.724,1.377l3.724,1.377l1.377,3.724l1.38-3.724l3.721-1.377l-3.721-1.377l-1.38-3.724L274.554,284.329"/>
	
		<path id="consulate_00000130647681768547388490000013412665897750596004_" vector-effect="non-scaling-stroke" fill-rule="evenodd" fill="#FF7F00" d="
		M291.88,309.89l-3.724,1.38l3.724,1.377l1.377,3.724l1.377-3.724l3.724-1.377l-3.724-1.38l-1.377-3.721L291.88,309.89"/>
	
		<path id="consulate_00000148651307868535298490000007045945946717455247_" vector-effect="non-scaling-stroke" fill-rule="evenodd" fill="#FF7F00" d="
		M309.953,298.466l-3.724,1.377l3.724,1.377l1.377,3.724l1.377-3.724l3.724-1.377l-3.724-1.377l-1.377-3.724L309.953,298.466"/>
	
		<path id="consulate_00000066507613531963571120000000622022769465603245_" vector-effect="non-scaling-stroke" fill-rule="evenodd" fill="#FF7F00" d="
		M264.594,318.477l-3.724,1.377l3.724,1.377l1.377,3.724l1.377-3.724l3.724-1.377l-3.724-1.377l-1.377-3.724L264.594,318.477"/>
	
		<path id="consulate_00000165216881533774174760000006156808401620557229_" vector-effect="non-scaling-stroke" fill-rule="evenodd" fill="#FF7F00" d="
		M309.926,303.14l-3.721,1.377l3.721,1.38l1.38,3.721l1.377-3.721l3.724-1.38l-3.724-1.377l-1.377-3.724L309.926,303.14"/>
	
		<path id="consulate_00000051379933176579400060000004374166541555316623_" vector-effect="non-scaling-stroke" fill-rule="evenodd" fill="#FF7F00" d="
		M285.095,327.48l-3.724,1.377l3.724,1.377l1.377,3.724l1.377-3.724l3.724-1.377l-3.724-1.377l-1.377-3.724L285.095,327.48"/>
	
		<path id="consulate_00000018238520441628542400000003045408104129763460_" vector-effect="non-scaling-stroke" fill-rule="evenodd" fill="#FF7F00" d="
		M362.415,132.42l-3.724,1.378l3.724,1.378l1.377,3.723l1.377-3.723l3.724-1.378l-3.724-1.378l-1.377-3.723L362.415,132.42"/>
	
		<path id="consulate_00000065781117069764150990000004888195854184536971_" vector-effect="non-scaling-stroke" fill-rule="evenodd" fill="#FF7F00" d="
		M261.103,283.158l-3.724,1.377l3.724,1.377l1.377,3.724l1.377-3.724l3.724-1.377l-3.724-1.377l-1.377-3.724L261.103,283.158"/>
	
		<path id="consulate_00000082341464403590195910000012180949196195788684_" vector-effect="non-scaling-stroke" fill-rule="evenodd" fill="#FF7F00" d="
		M301.233,314.921l-3.724,1.377l3.724,1.377l1.377,3.724l1.377-3.724l3.724-1.377l-3.724-1.377l-1.377-3.724L301.233,314.921"/>
	
		<path id="consulate_00000084490714183916840600000008895388353692873663_" vector-effect="non-scaling-stroke" fill-rule="evenodd" fill="#FF7F00" d="
		M318.319,255.471l-3.721,1.377l3.721,1.38l1.38,3.721l1.377-3.721l3.724-1.38l-3.724-1.377l-1.377-3.724L318.319,255.471"/>
	
		<path id="consulate_00000093143247486674415400000000241066100185130420_" vector-effect="non-scaling-stroke" fill-rule="evenodd" fill="#FF7F00" d="
		M309.564,298.531l-3.724,1.377l3.724,1.377l1.377,3.724l1.38-3.724l3.721-1.377l-3.721-1.377l-1.38-3.724L309.564,298.531"/>
	
		<path id="consulate_00000080176114260074366890000001354521251963310519_" vector-effect="non-scaling-stroke" fill-rule="evenodd" fill="#FF7F00" d="
		M310.001,298.66l-3.724,1.38l3.724,1.377l1.377,3.724l1.38-3.724l3.721-1.377l-3.721-1.38l-1.38-3.721L310.001,298.66"/>
	
		<path id="consulate_00000116944134506826712470000004360174190348031651_" vector-effect="non-scaling-stroke" fill-rule="evenodd" fill="#FF7F00" d="
		M310.636,293.132l-3.724,1.377l3.724,1.38l1.377,3.721l1.377-3.721l3.724-1.38l-3.724-1.377l-1.377-3.724L310.636,293.132"/>
	
		<path id="consulate_00000031925898292768865200000012572540846621862831_" vector-effect="non-scaling-stroke" fill-rule="evenodd" fill="#FF7F00" d="
		M279.672,282.86l-3.724,1.377l3.724,1.38l1.377,3.721l1.377-3.721l3.724-1.38l-3.724-1.377l-1.377-3.724L279.672,282.86"/>
	
		<path id="consulate_00000086669636663156341750000015185674790859450537_" vector-effect="non-scaling-stroke" fill-rule="evenodd" fill="#FF7F00" d="
		M313.089,312.164l-3.724,1.377l3.724,1.377l1.377,3.724l1.38-3.724l3.721-1.377l-3.721-1.377l-1.38-3.724L313.089,312.164"/>
	
		<path id="consulate_00000094591938084381914430000012987040319284377790_" vector-effect="non-scaling-stroke" fill-rule="evenodd" fill="#FF7F00" d="
		M302.92,316.118l-3.724,1.377l3.724,1.377l1.377,3.724l1.38-3.724l3.721-1.377l-3.721-1.377l-1.38-3.724L302.92,316.118"/>
	
		<path id="consulate_00000172426941469088281700000010911692549351794565_" vector-effect="non-scaling-stroke" fill-rule="evenodd" fill="#FF7F00" d="
		M325.04,302.718l-3.724,1.38l3.724,1.377l1.377,3.724l1.377-3.724l3.724-1.377l-3.724-1.38l-1.377-3.721L325.04,302.718"/>
	
		<path id="consulate_00000114770910651744433130000011921119626073847209_" vector-effect="non-scaling-stroke" fill-rule="evenodd" fill="#FF7F00" d="
		M280.322,283.199l-3.724,1.38l3.724,1.377l1.377,3.721l1.377-3.721l3.724-1.377l-3.724-1.38l-1.377-3.721L280.322,283.199"/>
	
		<path id="consulate_00000161593944166593688090000017683517581109267901_" vector-effect="non-scaling-stroke" fill-rule="evenodd" fill="#FF7F00" d="
		M304.564,307.197l-3.724,1.38l3.724,1.377l1.377,3.724l1.377-3.724l3.724-1.377l-3.724-1.38l-1.377-3.721L304.564,307.197"/>
	
		<path id="consulate_00000041978334254415212450000012234688575445952412_" vector-effect="non-scaling-stroke" fill-rule="evenodd" fill="#FF7F00" d="
		M305.019,312.013l-3.724,1.377l3.724,1.38l1.377,3.721l1.377-3.721l3.724-1.38l-3.724-1.377l-1.377-3.721L305.019,312.013"/>
	
		<path id="consulate_00000074400307006513604330000016036352157125276601_" vector-effect="non-scaling-stroke" fill-rule="evenodd" fill="#FF7F00" d="
		M135.448,548.416l-3.723,1.377l3.723,1.377l1.378,3.724l1.378-3.724l3.723-1.377l-3.723-1.377l-1.378-3.724L135.448,548.416"/>
	
		<path id="consulate_00000132792186745745238400000005557661975072679562_" vector-effect="non-scaling-stroke" fill-rule="evenodd" fill="#FF7F00" d="
		M306.188,310.374l-3.724,1.377l3.724,1.38l1.377,3.721l1.377-3.721l3.724-1.38l-3.724-1.377l-1.377-3.724L306.188,310.374"/>
	
		<path id="consulate_00000178898937537778206220000006009020481753381259_" vector-effect="non-scaling-stroke" fill-rule="evenodd" fill="#FF7F00" d="
		M430.186,57.997l-3.721,1.378l3.721,1.378l1.38,3.723l1.377-3.723l3.724-1.378l-3.724-1.378l-1.377-3.723L430.186,57.997"/>
	
		<path id="consulate_00000132048098348856617230000008977719859774654636_" vector-effect="non-scaling-stroke" fill-rule="evenodd" fill="#FF7F00" d="
		M296.007,307.548l-3.724,1.377l3.724,1.377l1.377,3.724l1.377-3.724l3.724-1.377l-3.724-1.377l-1.377-3.724L296.007,307.548"/>
	
		<path id="consulate_00000056394397974970986510000000566844597945953923_" vector-effect="non-scaling-stroke" fill-rule="evenodd" fill="#FF7F00" d="
		M310.533,280.991l-3.724,1.377l3.724,1.377l1.377,3.724l1.38-3.724l3.721-1.377l-3.721-1.377l-1.38-3.724L310.533,280.991"/>
</g>
<style>
#g-NYC-consulate1-_1-cosulates-img rect, #g-NYC-consulate1-_1-cosulates-img circle, #g-NYC-consulate1-_1-cosulates-img path, #g-NYC-consulate1-_1-cosulates-img line, #g-NYC-consulate1-_1-cosulates-img polyline, #g-NYC-consulate1-_1-cosulates-img polygon { vector-effect: non-scaling-stroke; }
</style>
</svg>

