<?xml version="1.0" encoding="utf-8"?>
<!-- Generator: Adobe Illustrator 27.7.0, SVG Export Plug-In . SVG Version: 6.00 Build 0)  -->
<svg version="1.2" baseProfile="tiny" id="g-NYC-consulate2-_1-UN1km-img"
	 xmlns="http://www.w3.org/2000/svg" xmlns:xlink="http://www.w3.org/1999/xlink" x="0px" y="0px" viewBox="0 0 841.68 595.199"
	 overflow="visible" xml:space="preserve">
<g>
	<rect x="0.001" fill-rule="evenodd" fill-opacity="0" width="841.709" height="595.051"/>
	<path vector-effect="none" fill-rule="evenodd" fill="#D5B43C" fill-opacity="0.25" d="M676.696,392.986l-11.388,0.561
		l-11.275,1.67l-11.059,2.764l-10.733,3.829l-10.303,4.859l-9.775,5.843l-9.156,6.766l-8.443,7.63l-7.652,8.417l-6.788,9.125
		l-5.857,9.742l-4.871,10.269l-3.837,10.692l-2.767,11.018l-1.668,11.234l-0.557,11.342l0.564,11.342l1.677,11.234l2.774,11.013
		l3.846,10.692l4.878,10.265l5.864,9.739l6.793,9.118l7.659,8.412l8.451,7.623l9.159,6.761l9.782,5.833l10.305,4.852l10.735,3.822
		l11.061,2.757l11.277,1.66l11.385,0.554l11.388-0.561l11.275-1.67l11.059-2.764l10.732-3.829l10.303-4.861l9.775-5.84l9.156-6.769
		l8.443-7.63l7.652-8.417l6.788-9.122l5.857-9.744l4.871-10.267l3.837-10.694l2.766-11.018l1.668-11.234l0.557-11.342l-0.564-11.342
		l-1.677-11.232l-2.774-11.016l-3.846-10.692l-4.878-10.262l-5.864-9.739l-6.793-9.12l-7.659-8.41l-8.451-7.623l-9.159-6.762
		l-9.782-5.835l-10.305-4.852l-10.735-3.822l-11.061-2.755l-11.277-1.663L676.696,392.986"/>
</g>
<style>
#g-NYC-consulate2-_1-UN1km-img rect, #g-NYC-consulate2-_1-UN1km-img circle, #g-NYC-consulate2-_1-UN1km-img path, #g-NYC-consulate2-_1-UN1km-img line, #g-NYC-consulate2-_1-UN1km-img polyline, #g-NYC-consulate2-_1-UN1km-img polygon { vector-effect: non-scaling-stroke; }
</style>
</svg>

